<?xml version="1.0" standalone="no"?>
<svg version="1.0" xmlns="http://www.w3.org/2000/svg"
 width="192.000000pt" height="192.000000pt" viewBox="0 0 192.000000 192.000000"
 preserveAspectRatio="xMidYMid meet">

<g transform="translate(0.000000,192.000000) scale(0.100000,-0.100000)"
fill="#1565C0" stroke="none">
<path d="M937 1546 c-83 -30 -137 -93 -137 -161 0 -97 77 -154 280 -210 210
-58 290 -86 344 -123 66 -44 106 -98 122 -167 l11 -50 8 68 c30 270 -137 541
-391 637 -64 23 -179 26 -237 6z m221 -65 c43 -22 72 -55 72 -82 0 -14 -14
-16 -122 -11 -135 5 -191 18 -196 44 -4 21 40 65 71 72 44 9 134 -2 175 -23z"/>
<path d="M424 1265 c-53 -91 -68 -158 -68 -300 0 -115 3 -138 26 -197 74 -195
229 -340 409 -383 93 -22 213 -19 294 6 168 52 239 232 130 328 -50 44 -71 53
-255 111 -364 114 -505 229 -505 413 0 37 -1 67 -2 67 -1 0 -14 -20 -29 -45z
m445 -634 c105 -22 206 -48 223 -58 71 -41 35 -111 -69 -134 -126 -29 -307 44
-359 143 -19 36 -18 88 0 88 8 0 100 -18 205 -39z"/>
</g>
</svg>
