<svg version="1.1" id="Layer_1" xmlns="http://www.w3.org/2000/svg" xmlns:xlink="http://www.w3.org/1999/xlink" x="0px" y="0px"
	 width="100%" viewBox="0 0 512 512" enable-background="new 0 0 512 512" xml:space="preserve">
<path fill="#ECF5FF" opacity="1.000000" stroke="none" 
	d="
M1.000000,483.000000 
	C1.000000,332.642578 1.000000,182.285187 1.468657,31.464048 
	C66.955971,31.002146 131.974625,31.003963 196.996552,31.003033 
	C196.999832,31.000286 196.994736,31.005995 196.995544,31.474049 
	C197.000732,41.611942 197.005127,51.281776 196.586487,60.986294 
	C193.703125,61.365078 191.222672,61.603874 188.785675,62.070004 
	C169.674011,65.725517 155.576096,86.105049 160.039673,105.013290 
	C161.744965,112.237106 166.060272,118.844788 168.828888,125.882172 
	C121.963959,142.152603 101.385651,186.371979 107.182861,226.929672 
	C109.130371,226.929672 111.118988,226.926147 113.107590,226.930206 
	C141.067383,226.987274 169.027191,227.045380 196.990570,227.565399 
	C197.003647,242.703125 197.013123,257.378662 196.953781,272.515015 
	C196.918182,282.663940 196.951416,292.352051 196.984329,302.506348 
	C197.024429,317.717957 197.064850,332.463409 197.033112,347.657288 
	C197.036667,357.954895 197.112381,367.804138 197.134338,378.141113 
	C197.037033,393.368866 196.993454,408.108887 196.903793,423.326416 
	C196.926773,433.487396 196.995834,443.170868 197.045151,453.331787 
	C197.015289,463.537598 197.005188,473.265991 196.997543,482.997192 
	C197.000000,483.000000 196.993637,482.994537 196.525604,482.995422 
	C131.038391,482.997559 66.019196,482.998779 1.000000,483.000000 
M110.938812,345.381195 
	C128.453796,322.003815 145.968781,298.626465 163.654388,275.021362 
	C155.297821,268.793793 147.517532,262.995667 139.534439,257.046417 
	C127.709778,272.776031 116.336006,287.905853 104.150009,304.116150 
	C98.232628,297.632538 92.768059,291.645081 87.643112,286.029755 
	C80.304024,293.385895 73.421478,300.284424 67.172340,306.548096 
	C80.772865,320.213837 94.676613,334.184265 108.662987,348.237701 
	C109.073730,347.726135 109.793060,346.830261 110.938812,345.381195 
M151.898758,369.630524 
	C147.925156,366.652832 143.951553,363.675110 139.575363,360.395721 
	C127.892708,375.933075 116.452553,391.147888 104.165207,407.489471 
	C98.178246,400.912506 92.722610,394.919250 87.732025,389.436890 
	C80.341385,396.808533 73.430832,403.701294 67.227982,409.888184 
	C80.844635,423.505096 94.776749,437.437439 108.861908,451.522858 
	C126.805000,427.589050 145.119339,403.160004 163.628189,378.471527 
	C159.613007,375.440521 156.044937,372.747040 151.898758,369.630524 
z"/>
<path fill="#FF5959" opacity="1.000000" stroke="none" 
	d="
M513.000000,121.000000 
	C513.000000,241.355972 513.000000,361.711945 512.531555,482.518433 
	C492.365753,482.969635 472.668427,482.970337 452.987488,482.987885 
	C453.003906,483.004730 453.037384,483.037811 453.016541,482.566589 
	C452.968109,374.871216 452.932190,267.647034 452.923584,160.422852 
	C452.922516,147.272186 453.067322,134.121506 453.603973,120.983521 
	C473.708954,120.997475 493.354462,120.998734 513.000000,121.000000 
z"/>
<path fill="#D6E8FE" opacity="1.000000" stroke="none"
	d="
M196.993286,31.005779 
	C131.974625,31.003963 66.955971,31.002146 1.468657,31.000164 
	C1.000000,21.019392 1.000000,11.038786 1.000000,1.000000 
	C66.020882,1.000000 131.041779,1.000000 196.530243,1.468656 
	C196.996292,11.626801 196.994797,21.316290 196.993286,31.005779 
z"/>
<path fill="#B5DBFF" opacity="1.000000" stroke="none" 
	d="
M393.000000,513.000000 
	C327.979095,513.000000 262.958221,513.000000 197.467545,512.531372 
	C196.996399,502.373291 196.995010,492.683929 196.993637,482.994537 
	C196.993637,482.994537 197.000000,483.000000 197.466736,482.998840 
	C262.882019,482.982422 327.830597,482.967194 392.789307,483.423248 
	C392.866302,493.596344 392.933167,503.298187 393.000000,513.000000 
z"/>
<path fill="#D6E8FE" opacity="1.000000" stroke="none" 
	d="
M196.525604,482.995422 
	C196.995010,492.683929 196.996399,502.373291 196.998886,512.531372 
	C131.666641,513.000000 66.333282,513.000000 1.000000,513.000000 
	C1.000000,503.233124 1.000000,493.585236 1.000000,483.468658 
	C66.019196,482.998779 131.038391,482.997559 196.525604,482.995422 
z"/>
<path fill="#B5DBFF" opacity="1.000000" stroke="none" 
	d="
M196.996552,31.003033 
	C196.994797,21.316290 196.996292,11.626801 196.998901,1.468656 
	C262.020905,1.000000 327.041779,1.000000 392.531342,1.000000 
	C392.995117,10.694470 392.990204,20.388941 392.451599,30.544003 
	C326.943512,31.005060 261.969116,31.005527 196.994736,31.005995 
	C196.994736,31.005995 196.999832,31.000286 196.996552,31.003033 
z"/>
<path fill="#FF5959" opacity="1.000000" stroke="none" 
	d="
M393.468689,513.000000 
	C392.933167,503.298187 392.866302,493.596344 392.843719,483.470428 
	C392.888000,483.046326 393.003632,482.960449 393.471527,482.956116 
	C413.638733,482.980469 433.338074,483.009125 453.037384,483.037811 
	C453.037384,483.037811 453.003906,483.004730 452.988647,483.458618 
	C452.982269,493.608337 452.991150,503.304169 453.000000,513.000000 
	C433.312439,513.000000 413.624878,513.000000 393.468689,513.000000 
z"/>
<path fill="#FFBDA9" opacity="1.000000" stroke="none" 
	d="
M453.468658,513.000000 
	C452.991150,503.304169 452.982269,493.608337 452.972229,483.441772 
	C472.668427,482.970337 492.365753,482.969635 512.531555,482.984497 
	C513.000000,492.951141 513.000000,502.902252 513.000000,513.000000 
	C493.312653,513.000000 473.625000,513.000000 453.468658,513.000000 
z"/>
<path fill="#D6E8FE" opacity="1.000000" stroke="none" 
	d="
M196.995544,31.474049 
	C261.969116,31.005527 326.943512,31.005060 392.375946,31.007948 
	C392.891846,40.672340 392.949707,50.333378 393.001678,60.927441 
	C392.977295,72.183830 392.941498,82.507195 392.942841,92.830559 
	C392.959991,222.873856 392.982513,352.917145 393.003632,482.960449 
	C393.003632,482.960449 392.888000,483.046326 392.833557,482.999146 
	C327.830597,482.967194 262.882019,482.982422 197.464279,482.996033 
	C197.005188,473.265991 197.015289,463.537598 197.509323,453.335236 
	C242.582535,452.861267 287.171814,452.861267 331.771851,452.861267 
	C331.771851,442.473480 331.771851,432.758087 331.771851,422.848938 
	C286.554443,422.848938 241.752167,422.848938 196.949890,422.848938 
	C196.993454,408.108887 197.037033,393.368866 197.587509,378.151093 
	C242.650635,377.673370 287.206848,377.673370 331.774841,377.673370 
	C331.774841,367.129120 331.774841,357.399811 331.774841,347.208893 
	C286.634460,347.208893 241.869858,347.208893 197.105255,347.208893 
	C197.064850,332.463409 197.024429,317.717957 197.453568,302.530457 
	C242.523132,302.088470 287.123169,302.088470 331.804260,302.088470 
	C331.804260,291.772125 331.804260,282.065430 331.804260,272.054230 
	C286.624390,272.054230 241.823486,272.054230 197.022614,272.054230 
	C197.013123,257.378662 197.003647,242.703125 197.455765,227.495697 
	C227.514023,226.963821 257.110687,226.963821 286.622192,226.963821 
	C291.901184,180.025742 266.620239,139.593857 223.935638,125.368988 
	C224.649246,124.266937 225.242233,123.474457 225.845871,122.690170 
	C235.193329,110.544930 237.129532,97.102592 230.901581,83.309753 
	C224.478333,69.084389 212.705566,61.828682 196.987671,61.209583 
	C196.995789,61.123665 197.009521,60.951614 197.009521,60.951614 
	C197.005127,51.281776 197.000732,41.611942 196.995544,31.474049 
z"/>
<path fill="#49588D" opacity="1.000000" stroke="none" 
	d="
M223.819962,125.682373 
	C266.620239,139.593857 291.901184,180.025742 286.622192,226.963821 
	C257.110687,226.963821 227.514023,226.963821 197.452179,227.033524 
	C169.027191,227.045380 141.067383,226.987274 113.107590,226.930206 
	C111.118988,226.926147 109.130371,226.929672 107.182861,226.929672 
	C101.385651,186.371979 121.963959,142.152603 169.158646,125.969437 
	C177.573639,131.504654 185.442413,136.748169 195.795197,136.360413 
	C196.374329,136.429291 196.785248,136.316498 197.172897,136.235626 
	C197.149628,136.267532 197.226334,136.286438 197.649811,136.310867 
	C208.152664,136.402725 216.233948,131.641037 223.819962,125.682373 
z"/>
<path fill="#27D9F8" opacity="1.000000" stroke="none" 
	d="
M197.033112,347.657288 
	C241.869858,347.208893 286.634460,347.208893 331.774841,347.208893 
	C331.774841,357.399811 331.774841,367.129120 331.774841,377.673370 
	C287.206848,377.673370 242.650635,377.673370 197.641266,377.663391 
	C197.112381,367.804138 197.036667,357.954895 197.033112,347.657288 
z"/>
<path fill="#48578D" opacity="1.000000" stroke="none" 
	d="
M196.953766,272.515015 
	C241.823486,272.054230 286.624390,272.054230 331.804260,272.054230 
	C331.804260,282.065430 331.804260,291.772125 331.804260,302.088470 
	C287.123169,302.088470 242.523132,302.088470 197.453873,302.064331 
	C196.951416,292.352051 196.918182,282.663940 196.953766,272.515015 
z"/>
<path fill="#49588E" opacity="1.000000" stroke="none" 
	d="
M196.903793,423.326416 
	C241.752167,422.848938 286.554443,422.848938 331.771851,422.848938 
	C331.771851,432.758087 331.771851,442.473480 331.771851,452.861267 
	C287.171814,452.861267 242.582535,452.861267 197.529083,452.857819 
	C196.995834,443.170868 196.926773,433.487396 196.903793,423.326416 
z"/>
<path fill="#FF5B5B" opacity="1.000000" stroke="none" 
	d="
M110.725601,345.657776 
	C109.793060,346.830261 109.073730,347.726135 108.662987,348.237701 
	C94.676613,334.184265 80.772865,320.213837 67.172340,306.548096 
	C73.421478,300.284424 80.304024,293.385895 87.643112,286.029755 
	C92.768059,291.645081 98.232628,297.632538 104.150009,304.116150 
	C116.336006,287.905853 127.709778,272.776031 139.534439,257.046417 
	C147.517532,262.995667 155.297821,268.793793 163.654388,275.021362 
	C145.968781,298.626465 128.453796,322.003815 110.725601,345.657776 
z"/>
<path fill="#FF5B5B" opacity="1.000000" stroke="none" 
	d="
M152.187805,369.842041 
	C156.044937,372.747040 159.613007,375.440521 163.628189,378.471527 
	C145.119339,403.160004 126.805000,427.589050 108.861908,451.522858 
	C94.776749,437.437439 80.844635,423.505096 67.227982,409.888184 
	C73.430832,403.701294 80.341385,396.808533 87.732025,389.436890 
	C92.722610,394.919250 98.178246,400.912506 104.165207,407.489471 
	C116.452553,391.147888 127.892708,375.933075 139.575363,360.395721 
	C143.951553,363.675110 147.925156,366.652832 152.187805,369.842041 
z"/>
<path fill="#FFCCBD" opacity="1.000000" stroke="none" 
	d="
M195.626984,136.178757 
	C185.442413,136.748169 177.573639,131.504654 169.515900,125.820511 
	C166.060272,118.844788 161.744965,112.237106 160.039673,105.013290 
	C155.576096,86.105049 169.674011,65.725517 188.785675,62.070004 
	C191.222672,61.603874 193.703125,61.365078 196.586487,60.986294 
	C197.009521,60.951614 196.995789,61.123665 196.998993,61.648148 
	C197.076920,86.877235 197.151611,111.581833 197.226318,136.286438 
	C197.226334,136.286438 197.149628,136.267532 196.780487,136.197632 
	C196.149887,136.144760 195.888428,136.161758 195.626984,136.178757 
z"/>
<path fill="#FFCCBD" opacity="1.000000" stroke="none" 
	d="
M393.471527,482.956116 
	C392.982513,352.917145 392.959991,222.873856 392.942841,92.830559 
	C392.941498,82.507195 392.977295,72.183830 393.038574,61.389717 
	C412.871674,60.918968 432.662018,60.918968 453.013641,60.918968 
	C453.013641,80.862213 453.013641,100.450768 453.079102,120.505074 
	C453.067322,134.121506 452.922516,147.272186 452.923584,160.422852 
	C452.932190,267.647034 452.968109,374.871216 453.016541,482.566589 
	C433.338074,483.009125 413.638733,482.980469 393.471527,482.956116 
z"/>
<path fill="#FEBDA9" opacity="1.000000" stroke="none" 
	d="
M197.649811,136.310867 
	C197.151611,111.581833 197.076920,86.877235 196.990875,61.734066 
	C212.705566,61.828682 224.478333,69.084389 230.901581,83.309753 
	C237.129532,97.102592 235.193329,110.544930 225.845871,122.690170 
	C225.242233,123.474457 224.649246,124.266937 223.935638,125.368988 
	C216.233948,131.641037 208.152664,136.402725 197.649811,136.310867 
z"/>
<path fill="#FEBDA9" opacity="1.000000" stroke="none" 
	d="
M195.795197,136.360413 
	C195.888428,136.161758 196.149887,136.144760 196.803772,136.165741 
	C196.785248,136.316498 196.374329,136.429291 195.795197,136.360413 
z"/>
</svg>