<svg version="1.1" id="Layer_1" xmlns="http://www.w3.org/2000/svg" xmlns:xlink="http://www.w3.org/1999/xlink" x="0px" y="0px"
	 width="100%" viewBox="0 0 512 512" enable-background="new 0 0 512 512" xml:space="preserve">
<path fill="#1565C0" opacity="1.000000" stroke="none"
	d="
M232.145142,33.002811 
	C243.703690,32.667507 254.806015,32.017170 265.904999,32.070316 
	C285.401123,32.163673 304.368134,35.874210 322.982635,41.494087 
	C346.700470,48.654713 368.719116,59.325787 388.700409,73.987762 
	C395.693726,79.119362 402.433014,84.658257 408.870728,90.473450 
	C423.287567,103.496223 435.779083,118.150635 446.336700,134.555130 
	C460.134369,155.993866 469.673920,179.114929 476.036774,203.719330 
	C481.976044,226.685547 483.382233,250.122055 481.743988,273.512451 
	C479.895844,299.899384 473.403900,325.353058 462.291321,349.655609 
	C453.802429,368.220276 443.191193,385.327118 430.306793,400.962128 
	C420.137115,413.302917 409.024475,424.938812 395.687317,434.004028 
	C383.375397,442.372375 371.142517,451.000977 358.126678,458.153564 
	C341.724396,467.167053 323.820129,472.824554 305.560760,476.857422 
	C288.148804,480.703125 270.429504,482.432159 252.558777,481.990936 
	C224.442795,481.296722 197.327164,475.803345 171.275711,465.091644 
	C152.231735,457.261200 134.405823,447.201538 118.295937,434.488434 
	C103.778397,423.031921 90.845886,409.918396 79.379494,395.182312 
	C58.776329,368.704071 45.087547,339.128082 37.504776,306.689056 
	C35.089882,296.358185 34.098583,285.645508 33.103832,275.046692 
	C32.254097,265.993011 31.719725,256.825256 32.118187,247.755081 
	C33.202572,223.071350 38.004715,199.062225 47.019421,175.991455 
	C53.289055,159.946014 61.042591,144.651428 70.825798,130.437195 
	C85.385025,109.283806 102.795929,90.954704 123.542252,75.658005 
	C144.011429,60.565674 166.160477,48.944592 190.539398,41.931293 
	C202.429611,38.510735 214.749985,36.584991 226.876709,33.987576 
	C228.477036,33.644802 230.083694,33.331512 232.145142,33.002811 
M114.448395,285.051605 
	C146.941956,317.552460 179.435516,350.053314 211.575104,382.200104 
	C279.981873,313.794006 348.032349,245.744186 415.772156,178.005035 
	C400.720978,162.917709 385.352966,147.512802 369.710663,131.832947 
	C317.525940,184.021835 265.045532,236.506409 211.742050,289.814148 
	C188.725616,266.721344 166.101440,244.022095 144.064804,221.912354 
	C128.619675,237.343063 113.234627,252.713760 97.778984,268.154968 
	C97.719452,268.060272 97.851372,268.386749 98.080139,268.617004 
	C103.363205,273.934845 108.656807,279.242218 114.448395,285.051605 
z"/>
<path fill="#FEFEFF" opacity="1.000000" stroke="none"
	d="
M114.198425,284.801575
	C108.656807,279.242218 103.363205,273.934845 98.080139,268.617004
	C97.851372,268.386749 97.719452,268.060272 97.778984,268.154968
	C113.234627,252.713760 128.619675,237.343063 144.064804,221.912354
	C166.101440,244.022095 188.725616,266.721344 211.742050,289.814148
	C265.045532,236.506409 317.525940,184.021835 369.710663,131.832947
	C385.352966,147.512802 400.720978,162.917709 415.772156,178.005035
	C348.032349,245.744186 279.981873,313.794006 211.575104,382.200104
	C179.435516,350.053314 146.941956,317.552460 114.198425,284.801575
z"/>
</svg>