<svg version="1.1" id="Layer_1" xmlns="http://www.w3.org/2000/svg" xmlns:xlink="http://www.w3.org/1999/xlink" x="0px" y="0px"
	 width="100%" viewBox="0 0 512 512" enable-background="new 0 0 512 512" xml:space="preserve">

<path fill="#1565C0" opacity="1.000000" stroke="none" 
	d="
M163.000000,496.000092 
	C142.669754,496.000122 122.839424,495.966309 103.009277,496.010834 
	C86.934425,496.046936 71.519600,485.926453 66.953972,469.651306 
	C65.952690,466.082062 65.082489,462.321960 65.079636,458.649017 
	C64.983582,335.001648 64.952179,211.354156 65.052887,87.706810 
	C65.067566,69.687355 75.552429,55.205940 93.335709,50.382572 
	C97.092743,49.363548 101.141983,49.089851 105.061279,49.058495 
	C122.224174,48.921181 139.388870,48.974270 156.552734,49.022697 
	C159.562744,49.031189 161.127945,48.809574 162.290497,44.918259 
	C167.200150,28.484745 179.940613,18.396572 197.019241,18.169836 
	C237.005966,17.638971 277.009247,17.643051 316.996124,18.168247 
	C334.037628,18.392075 346.757751,28.519588 351.732330,44.920547 
	C352.770264,48.342571 353.903442,49.054974 356.962708,49.039406 
	C373.626373,48.954617 390.292236,48.861973 406.954102,49.054863 
	C415.819763,49.157497 424.485291,50.197617 432.184570,55.527550 
	C443.343719,63.252640 448.888458,74.007599 448.916412,87.215019 
	C449.084686,166.702301 448.999969,246.190125 448.999908,325.677765 
	C448.999878,368.837708 448.866516,411.998383 449.090881,455.157166 
	C449.149109,466.362488 446.304382,476.401245 438.685730,484.423492 
	C431.608215,491.875885 422.464050,495.971008 411.960876,495.976440 
	C329.140594,496.019287 246.320297,496.000153 163.000000,496.000092 
M95.000000,97.514053 
	C95.000008,216.985886 94.999268,336.457733 95.001793,455.929565 
	C95.001953,463.485779 97.505081,465.998138 105.038574,465.998352 
	C206.348129,466.001312 307.657684,466.001343 408.967224,465.998352 
	C416.496979,465.998138 418.998138,463.484314 418.998291,455.923676 
	C419.000732,333.619049 419.000610,211.314423 418.998138,89.009789 
	C418.998016,82.437302 415.722687,79.030701 409.197906,79.015045 
	C391.702118,78.973076 374.205994,79.036079 356.710419,78.965538 
	C353.852264,78.954018 352.640533,79.547333 351.781616,82.840561 
	C347.742157,98.328430 333.314789,110.285187 316.448059,110.124329 
	C276.127869,109.739792 235.801529,110.005875 195.477676,109.981987 
	C193.671799,109.980919 191.805328,109.957413 190.069839,109.528549 
	C175.241074,105.864265 165.950470,96.574173 161.869781,81.850525 
	C161.538696,80.655899 159.485077,79.136337 158.218658,79.123993 
	C140.057983,78.946877 121.894440,78.920364 103.732979,79.050507 
	C97.851608,79.092651 95.057426,82.225204 95.004616,88.023659 
	C94.978821,90.856102 95.000053,93.688957 95.000000,97.514053 
M323.998657,70.075958 
	C323.997925,65.913719 324.097839,61.748390 323.970062,57.590061 
	C323.822571,52.789478 319.994476,47.753548 314.029572,47.811863 
	C276.073822,48.182922 238.112686,47.999443 200.153320,48.001804 
	C193.822937,48.002197 190.257202,51.426891 190.024933,57.905834 
	C189.893784,61.563889 189.848862,65.238022 190.030609,68.891708 
	C190.455826,77.440300 193.268265,81.109375 202.269302,81.068253 
	C238.396545,80.903183 274.524963,81.000305 310.652954,80.999802 
	C320.415161,80.999664 321.244873,80.374962 323.998657,70.075958 
z"/>
<path fill="#1565C0" opacity="1.000000" stroke="none" 
	d="
M344.964417,185.999420 
	C351.849457,186.014099 358.514771,185.090363 363.330353,190.838501 
	C367.227814,195.490662 368.135742,200.801804 366.129150,206.457367 
	C363.980225,212.514175 359.332336,215.895416 353.072906,215.921341 
	C315.424774,216.077347 277.775543,216.050049 240.126968,215.957657 
	C232.310822,215.938477 225.922882,208.795563 226.000122,200.746994 
	C226.080978,192.320251 232.425537,186.019852 241.020096,186.012299 
	C275.503662,185.981995 309.987335,185.999557 344.964417,185.999420 
z"/>
<path fill="#1565C0" opacity="1.000000" stroke="none" 
	d="
M263.000000,303.000275 
	C255.171646,303.000153 247.843262,303.016571 240.514969,302.995361 
	C232.801498,302.973022 226.689636,297.395966 226.005722,289.797699 
	C225.319672,282.175537 230.704193,275.147949 238.288727,274.019684 
	C241.846970,273.490387 245.459229,273.050415 249.048004,273.042664 
	C282.691620,272.969910 316.336182,272.877289 349.978851,273.071014 
	C360.682861,273.132660 367.136383,278.575531 367.009766,288.876953 
	C366.915344,296.558868 360.617035,302.983215 352.939209,302.989716 
	C323.126129,303.015045 293.313080,303.000183 263.000000,303.000275 
z"/>
<path fill="#1565C0" opacity="1.000000" stroke="none" 
	d="
M273.000000,390.000000 
	C261.839386,390.000031 251.161469,389.625732 240.523605,390.117737 
	C231.915726,390.515839 225.855850,382.156342 225.979721,375.390778 
	C226.127792,367.303833 232.284164,361.010864 240.338837,361.007233 
	C277.817566,360.990356 315.296265,360.987427 352.774994,361.009460 
	C361.116150,361.014374 366.742554,367.301605 367.098267,375.868683 
	C367.400085,383.137451 360.088043,390.315643 352.951538,390.188324 
	C326.475006,389.715973 299.984955,390.000061 273.000000,390.000000 
z"/>
<path fill="#1565C0" opacity="1.000000" stroke="none" 
	d="
M179.521744,215.995850 
	C171.970947,215.770325 164.719971,216.368835 157.814728,215.094284 
	C149.958084,213.644135 146.875534,208.305191 146.999954,199.865448 
	C147.094482,193.453033 151.536392,187.260986 158.404434,186.428009 
	C165.942368,185.513794 173.744858,185.523819 181.297668,186.353989 
	C188.409363,187.135635 193.635513,193.803787 193.996368,200.429260 
	C194.348007,206.885483 189.863998,212.736938 182.737213,215.113892 
	C181.820511,215.419647 180.895447,215.700333 179.521744,215.995850 
z"/>
<path fill="#1565C0" opacity="1.000000" stroke="none" 
	d="
M184.590210,301.990723 
	C175.144226,302.204620 165.963837,303.443573 157.119690,302.230682 
	C149.834396,301.231628 146.051559,293.347534 147.013672,285.800110 
	C147.907547,278.787933 153.723679,273.475800 162.087097,273.123444 
	C168.476089,272.854218 174.953033,273.291626 181.312012,274.063904 
	C188.222153,274.903168 192.873016,279.837219 193.961365,286.379578 
	C194.864151,291.806610 190.750916,298.956757 184.590210,301.990723 
z"/>
<path fill="#1565C0" opacity="1.000000" stroke="none" 
	d="
M162.206085,390.000000 
	C153.351730,391.525024 146.539597,382.685089 146.895081,375.587982 
	C147.321472,367.075378 153.177490,361.014801 161.973511,361.001556 
	C167.962372,360.992523 173.957581,361.173157 179.938538,360.955475 
	C187.310394,360.687225 193.978470,367.485229 193.873627,375.644836 
	C193.755768,384.814301 186.822266,390.065094 180.144760,390.009827 
	C174.322647,389.961609 168.499802,389.999939 162.206085,390.000000 
z"/>
</svg>