<svg version="1.1" id="Layer_1" xmlns="http://www.w3.org/2000/svg" xmlns:xlink="http://www.w3.org/1999/xlink" x="0px" y="0px"
	 width="100%" viewBox="0 0 512 512" enable-background="new 0 0 512 512" xml:space="preserve">
<path fill="#E1152C" opacity="1.000000" stroke="none" 
	d="
M288.000000,513.000000 
	C267.645782,513.000000 247.291550,513.000000 226.650269,512.600037 
	C222.090881,511.458679 217.808746,510.769196 213.547760,509.967346 
	C189.558075,505.452789 166.262787,498.517273 144.431778,487.603638 
	C124.655396,477.717133 106.054024,465.888763 89.382996,451.075531 
	C75.368782,438.623047 62.313961,425.330719 51.212013,410.286102 
	C39.949673,395.024109 30.146793,378.863983 22.575891,361.323273 
	C12.868924,338.833557 5.712073,315.739868 2.918364,291.352264 
	C2.821424,290.506042 1.663442,289.781342 1.000000,289.000000 
	C1.000000,267.979095 1.000000,246.958206 1.409101,225.622467 
	C2.202456,224.631393 2.786747,223.997849 2.941361,223.272675 
	C5.897626,209.407272 8.009969,195.304901 11.887469,181.705032 
	C19.567833,154.767090 32.287167,130.243912 48.675209,107.407082 
	C64.123596,85.879677 82.261269,67.013992 103.471016,51.532288 
	C117.606529,41.214306 133.298889,32.836269 148.904694,24.770689 
	C172.308960,12.674615 197.551147,6.131994 223.671921,2.919400 
	C224.513901,2.815844 225.226883,1.663458 226.000000,1.000000 
	C246.354233,1.000000 266.708466,1.000000 287.365295,1.403219 
	C291.941742,2.543281 296.224762,3.230829 300.487885,4.025124 
	C324.651306,8.527187 348.039215,15.629373 370.041382,26.590134 
	C389.542145,36.304775 407.733734,48.127399 424.214447,62.578194 
	C438.314697,74.941696 451.365082,88.267227 462.499908,103.289017 
	C474.192474,119.063316 484.385895,135.791611 492.073792,154.003296 
	C501.397217,176.089340 508.399506,198.746429 511.081818,222.646927 
	C511.176666,223.492401 512.336548,224.218338 513.000000,225.000000 
	C513.000000,246.020889 513.000000,267.041779 512.591919,288.372070 
	C511.437164,293.118591 510.827606,297.583923 509.921600,301.988312 
	C504.103912,330.269989 495.198120,357.407928 480.808685,382.639465 
	C464.132477,411.880798 442.594696,436.884644 416.465454,458.002350 
	C401.651398,469.975128 385.512726,479.966095 368.369598,488.114319 
	C343.460114,499.953888 317.375885,508.180481 289.788086,511.094604 
	C289.132294,511.163910 288.593414,512.340088 288.000000,513.000000 
M179.001038,139.353363 
	C177.918472,138.396484 176.835907,137.439606 176.139801,136.824310 
	C162.912445,150.068649 149.988846,163.008865 136.665527,176.349289 
	C163.331573,203.004089 190.256195,229.917358 217.889572,257.539093 
	C190.664017,284.737183 163.739517,311.634521 137.203156,338.144135 
	C150.164017,351.095642 163.097504,364.019806 176.442200,377.354889 
	C203.086395,350.692566 229.995636,323.765015 257.754913,295.986847 
	C284.963470,323.199921 311.859406,350.100342 338.238678,376.484009 
	C351.039459,363.682129 363.958771,350.761719 377.447662,337.271637 
	C350.858307,310.685699 323.946594,283.777466 296.504913,256.339325 
	C323.505737,229.344635 350.337830,202.518600 376.662964,176.199402 
	C363.745239,163.220276 350.774963,150.188339 337.053711,136.401855 
	C310.451447,163.009048 283.551361,189.914093 256.481354,216.989090 
	C230.819214,191.284958 205.160049,165.583817 179.001038,139.353363 
z"/>
<path fill="#FFFEFE" opacity="1.000000" stroke="none" 
	d="
M179.250977,139.618011 
	C205.160049,165.583817 230.819214,191.284958 256.481354,216.989090 
	C283.551361,189.914093 310.451447,163.009048 337.053711,136.401855 
	C350.774963,150.188339 363.745239,163.220276 376.662964,176.199402 
	C350.337830,202.518600 323.505737,229.344635 296.504913,256.339325 
	C323.946594,283.777466 350.858307,310.685699 377.447662,337.271637 
	C363.958771,350.761719 351.039459,363.682129 338.238678,376.484009 
	C311.859406,350.100342 284.963470,323.199921 257.754913,295.986847 
	C229.995636,323.765015 203.086395,350.692566 176.442200,377.354889 
	C163.097504,364.019806 150.164017,351.095642 137.203156,338.144135 
	C163.739517,311.634521 190.664017,284.737183 217.889572,257.539093 
	C190.256195,229.917358 163.331573,203.004089 136.665527,176.349289 
	C149.988846,163.008865 162.912445,150.068649 176.139801,136.824310 
	C176.835907,137.439606 177.918472,138.396484 179.250977,139.618011 
z"/>
</svg>