<svg version="1.1" id="Layer_1" xmlns="http://www.w3.org/2000/svg" xmlns:xlink="http://www.w3.org/1999/xlink" x="0px" y="0px"
	 width="100%" viewBox="0 0 512 512" enable-background="new 0 0 512 512" xml:space="preserve">
<path fill="#33B9EF" opacity="1.000000" stroke="none" 
	d="
M0.999999,492.000000 
	C1.000000,340.979095 1.000000,189.958206 1.271384,38.806534 
	C2.020904,38.052082 2.729448,37.498253 2.942800,36.794331 
	C6.441886,25.249632 20.074961,16.773806 31.448029,16.886753 
	C63.907101,17.209112 96.371452,17.000265 128.902252,17.464579 
	C128.925034,28.285906 128.879272,38.643047 128.375626,49.000137 
	C96.348236,49.000088 64.778740,49.000088 33.183376,49.000088 
	C33.096146,50.831207 33.007393,51.825047 33.007332,52.818893 
	C33.000694,159.130234 32.997982,265.441559 33.028900,371.752899 
	C33.029320,373.198578 33.459320,374.644135 33.862122,376.384583 
	C58.495766,401.154236 82.941620,425.643585 107.423485,450.096924 
	C117.540192,460.201904 127.734131,470.229553 138.239105,480.535706 
	C139.412277,480.851807 140.239258,480.988037 141.066284,480.988251 
	C185.557678,480.999084 230.049072,481.000763 274.540466,480.981995 
	C275.411011,480.981628 276.281433,480.726807 277.527893,480.531921 
	C226.834869,437.874573 213.383087,372.253021 233.709854,320.468872 
	C260.391083,252.496140 312.760559,222.938370 384.567108,224.965668 
	C384.567108,166.579041 384.567108,107.887764 384.567108,49.000183 
	C352.478546,49.000183 320.822510,49.000183 289.097839,48.535965 
	C289.074921,37.714630 289.120605,27.357510 289.624481,17.000271 
	C322.564636,17.000099 355.046631,17.019772 387.528534,16.991549 
	C403.395691,16.977762 416.973175,31.250257 416.983337,46.321312 
	C417.023834,106.287903 416.999969,166.254547 416.999939,226.221161 
	C416.999939,228.371597 416.999939,230.522034 416.999939,232.276901 
	C421.713898,234.319656 426.068970,236.082993 430.319519,238.069839 
	C450.833893,247.658875 468.473999,261.166107 482.307922,279.001160 
	C497.098083,298.069092 507.588257,319.359985 511.104950,343.618195 
	C511.183350,344.158997 512.344116,344.542908 513.000000,345.000000 
	C513.000000,360.687561 513.000000,376.375122 512.680237,392.190491 
	C511.919617,392.980591 511.172241,393.604065 511.082672,394.310883 
	C508.730042,412.872589 501.433350,429.651459 491.785492,445.355499 
	C483.781097,458.384521 473.864258,469.901031 461.927948,479.734253 
	C450.135162,489.449188 437.362518,497.376190 423.211060,502.911621 
	C415.572296,505.899536 407.470581,507.690399 399.639435,510.212952 
	C398.269226,510.654297 397.205353,512.046753 396.000000,513.000000 
	C271.645782,513.000000 147.291550,513.000000 22.806440,512.728638 
	C22.474436,512.195984 22.326714,511.792664 22.064447,511.694122 
	C12.693143,508.172485 5.732045,502.270905 2.714374,492.368195 
	C2.631598,492.096558 1.592923,492.116211 0.999999,492.000000 
M355.914886,372.418396 
	C350.043060,377.294586 344.171204,382.170807 337.730469,387.519440 
	C334.445435,384.094971 331.437317,380.789368 328.247925,377.669098 
	C321.194855,370.769012 311.533234,370.551392 305.049194,377.035278 
	C298.550781,383.533661 298.734924,393.204712 305.663422,400.228912 
	C314.907043,409.600159 324.254669,418.869019 333.581421,428.157928 
	C334.368530,428.941803 335.336121,429.544434 336.381409,430.356842 
	C348.969971,419.859985 361.368286,409.510315 373.779144,399.175751 
	C392.342957,383.717499 410.887878,368.236176 429.503174,352.840057 
	C434.476776,348.726624 437.375153,343.729767 436.519379,337.207672 
	C435.724579,331.150269 432.389343,326.712738 426.598328,324.461609 
	C420.444977,322.069641 414.862305,323.276855 409.825317,327.481750 
	C392.048309,342.322174 374.251923,357.139282 355.914886,372.418396 
z"/>

<path fill="#E76E54" opacity="1.000000" stroke="none" 
	d="
M288.531342,1.000000 
	C289.008698,6.025228 289.017426,11.050456 289.096191,16.538036 
	C289.120605,27.357510 289.074921,37.714630 289.031281,49.000252 
	C289.018738,55.086082 289.086212,60.245186 288.974579,65.400414 
	C288.595886,82.891228 274.915497,96.825996 257.441010,96.932976 
	C225.166443,97.130569 192.889038,97.125298 160.614395,96.936607 
	C143.133179,96.834404 129.405579,82.904564 129.020615,65.460640 
	C128.899567,59.975117 128.892685,54.487076 128.833527,49.000187 
	C128.879272,38.643047 128.925034,28.285906 128.972336,17.002228 
	C128.982590,11.050460 128.991287,6.025230 129.000000,1.000000 
	C182.020889,1.000000 235.041794,1.000000 288.531342,1.000000 
z"/>
<path fill="#FFFFFF" opacity="1.000000" stroke="none" 
	d="
M128.375626,49.000137 
	C128.892685,54.487076 128.899567,59.975117 129.020615,65.460640 
	C129.405579,82.904564 143.133179,96.834404 160.614395,96.936607 
	C192.889038,97.125298 225.166443,97.130569 257.441010,96.932976 
	C274.915497,96.825996 288.595886,82.891228 288.974579,65.400414 
	C289.086212,60.245186 289.018738,55.086082 289.099884,49.464470 
	C320.822510,49.000183 352.478546,49.000183 384.567108,49.000183 
	C384.567108,107.887764 384.567108,166.579041 384.567108,224.965668 
	C312.760559,222.938370 260.391083,252.496140 233.709854,320.468872 
	C213.383087,372.253021 226.834869,437.874573 277.527893,480.531921 
	C276.281433,480.726807 275.411011,480.981628 274.540466,480.981995 
	C230.049072,481.000763 185.557678,480.999084 141.066284,480.988251 
	C140.239258,480.988037 139.412277,480.851807 138.377228,480.064392 
	C138.169205,444.944794 138.169205,410.539795 138.169205,375.985352 
	C136.208878,375.855072 134.901642,375.692871 133.594345,375.692291 
	C101.609764,375.678223 69.625175,375.676483 37.640606,375.698608 
	C36.323257,375.699524 35.006081,375.953583 33.688820,376.089752 
	C33.459320,374.644135 33.029320,373.198578 33.028900,371.752899 
	C32.997982,265.441559 33.000694,159.130234 33.007332,52.818893 
	C33.007393,51.825047 33.096146,50.831207 33.183376,49.000088 
	C64.778740,49.000088 96.348236,49.000088 128.375626,49.000137 
M256.500000,128.999329 
	C230.508926,128.999634 204.517822,128.976242 178.526794,129.012009 
	C168.278198,129.026108 161.095505,135.586411 161.013519,144.849289 
	C160.931610,154.102539 168.167145,160.973618 178.254501,160.982986 
	C220.073486,161.021805 261.892548,161.021164 303.711517,160.983551 
	C313.822510,160.974457 321.046814,154.144333 320.984711,144.884872 
	C320.922729,135.643417 313.699768,129.039948 303.484222,129.011337 
	C288.156250,128.968414 272.828094,128.999634 256.500000,128.999329 
M188.505554,225.001083 
	C216.494461,224.999725 244.483551,225.053604 272.472198,224.966095 
	C281.873077,224.936707 288.912384,218.006012 288.985077,209.125900 
	C289.056183,200.438690 282.176636,193.102356 273.226593,193.064178 
	C241.073303,192.927048 208.918716,192.926483 176.765427,193.064667 
	C167.776459,193.103302 160.953644,200.378174 161.013107,209.109344 
	C161.072235,217.792694 167.985977,224.692108 177.013504,224.975739 
	C180.508743,225.085541 184.010162,224.998474 188.505554,225.001083 
M181.590912,256.996796 
	C180.591400,256.997070 179.591827,256.989807 178.592392,256.998749 
	C168.310760,257.090942 161.133530,263.532532 161.010941,272.775208 
	C160.885834,282.208191 168.194916,288.952942 178.671677,288.994110 
	C188.500153,289.032745 198.329483,289.068817 208.157349,288.982117 
	C217.877335,288.896332 225.013275,282.020813 224.987259,272.947144 
	C224.961273,263.886902 217.807785,257.098328 208.054657,257.013824 
	C199.559372,256.940216 191.062943,256.997406 181.590912,256.996796 
M128.999237,208.501785 
	C128.999237,203.419754 128.999237,198.337723 128.999237,193.321594 
	C117.938606,193.321594 107.699043,193.321594 97.410019,193.321594 
	C97.410019,204.004913 97.410019,214.362335 97.410019,224.678070 
	C108.061768,224.678070 118.301643,224.678070 128.999237,224.678070 
	C128.999237,219.409866 128.999237,214.454025 128.999237,208.501785 
M128.949692,322.829254 
	C128.473633,322.257660 128.002319,321.191864 127.520836,321.187256 
	C117.448204,321.090820 107.374420,321.114441 97.312004,321.114441 
	C97.312004,332.035889 97.312004,342.278137 97.312004,352.595184 
	C107.987465,352.595184 118.347946,352.595184 128.988403,352.595184 
	C128.988403,342.720642 128.988403,333.247833 128.949692,322.829254 
M109.512978,257.000671 
	C105.434258,257.000671 101.355537,257.000671 97.319443,257.000671 
	C97.319443,268.056671 97.319443,278.296478 97.319443,288.592194 
	C107.999733,288.592194 118.357475,288.592194 128.680206,288.592194 
	C128.680206,277.942291 128.680206,267.702759 128.680206,257.000671 
	C122.414978,257.000671 116.462151,257.000671 109.512978,257.000671 
M128.999237,136.583923 
	C128.999237,134.164139 128.999237,131.744370 128.999237,129.299423 
	C117.986168,129.299423 107.745949,129.299423 97.389557,129.299423 
	C97.389557,139.959457 97.389557,150.317596 97.389557,160.696854 
	C108.021179,160.696854 118.261642,160.696854 128.999237,160.696854 
	C128.999237,152.790161 128.999237,145.175720 128.999237,136.583923 
z"/>
<path fill="#E76E54" opacity="1.000000" stroke="none" 
	d="
M33.862122,376.384583 
	C35.006081,375.953583 36.323257,375.699524 37.640606,375.698608 
	C69.625175,375.676483 101.609764,375.678223 133.594345,375.692291 
	C134.901642,375.692871 136.208878,375.855072 138.169205,375.985352 
	C138.169205,410.539795 138.169205,444.944794 138.031082,479.821045 
	C127.734131,470.229553 117.540192,460.201904 107.423485,450.096924 
	C82.941620,425.643585 58.495766,401.154236 33.862122,376.384583 
z"/>
<path fill="#FDFEFF" opacity="1.000000" stroke="none" 
	d="
M356.188873,372.191833 
	C374.251923,357.139282 392.048309,342.322174 409.825317,327.481750 
	C414.862305,323.276855 420.444977,322.069641 426.598328,324.461609 
	C432.389343,326.712738 435.724579,331.150269 436.519379,337.207672 
	C437.375153,343.729767 434.476776,348.726624 429.503174,352.840057 
	C410.887878,368.236176 392.342957,383.717499 373.779144,399.175751 
	C361.368286,409.510315 348.969971,419.859985 336.381409,430.356842 
	C335.336121,429.544434 334.368530,428.941803 333.581421,428.157928 
	C324.254669,418.869019 314.907043,409.600159 305.663422,400.228912 
	C298.734924,393.204712 298.550781,383.533661 305.049194,377.035278 
	C311.533234,370.551392 321.194855,370.769012 328.247925,377.669098 
	C331.437317,380.789368 334.445435,384.094971 337.730469,387.519440 
	C344.171204,382.170807 350.043060,377.294586 356.188873,372.191833 
z"/>
<path fill="#000" opacity="1.000000" stroke="none"
	d="
M257.000000,128.999329 
	C272.828094,128.999634 288.156250,128.968414 303.484222,129.011337 
	C313.699768,129.039948 320.922729,135.643417 320.984711,144.884872 
	C321.046814,154.144333 313.822510,160.974457 303.711517,160.983551 
	C261.892548,161.021164 220.073486,161.021805 178.254501,160.982986 
	C168.167145,160.973618 160.931610,154.102539 161.013519,144.849289 
	C161.095505,135.586411 168.278198,129.026108 178.526794,129.012009 
	C204.517822,128.976242 230.508926,128.999634 257.000000,128.999329 
z"/>
<path fill="#000" opacity="1.000000" stroke="none"
	d="
M188.007172,225.001083 
	C184.010162,224.998474 180.508743,225.085541 177.013504,224.975739 
	C167.985977,224.692108 161.072235,217.792694 161.013107,209.109344 
	C160.953644,200.378174 167.776459,193.103302 176.765427,193.064667 
	C208.918716,192.926483 241.073303,192.927048 273.226593,193.064178 
	C282.176636,193.102356 289.056183,200.438690 288.985077,209.125900 
	C288.912384,218.006012 281.873077,224.936707 272.472198,224.966095 
	C244.483551,225.053604 216.494461,224.999725 188.007172,225.001083 
z"/>
<path fill="#000" opacity="1.000000" stroke="none"
	d="
M182.078964,256.996796 
	C191.062943,256.997406 199.559372,256.940216 208.054657,257.013824 
	C217.807785,257.098328 224.961273,263.886902 224.987259,272.947144 
	C225.013275,282.020813 217.877335,288.896332 208.157349,288.982117 
	C198.329483,289.068817 188.500153,289.032745 178.671677,288.994110 
	C168.194916,288.952942 160.885834,282.208191 161.010941,272.775208 
	C161.133530,263.532532 168.310760,257.090942 178.592392,256.998749 
	C179.591827,256.989807 180.591400,256.997070 182.078964,256.996796 
z"/>
<path fill="#000" opacity="1.000000" stroke="none"
	d="
M128.999237,208.999985 
	C128.999237,214.454025 128.999237,219.409866 128.999237,224.678070 
	C118.301643,224.678070 108.061768,224.678070 97.410019,224.678070 
	C97.410019,214.362335 97.410019,204.004913 97.410019,193.321594 
	C107.699043,193.321594 117.938606,193.321594 128.999237,193.321594 
	C128.999237,198.337723 128.999237,203.419754 128.999237,208.999985 
z"/>
<path fill="#000" opacity="1.000000" stroke="none"
	d="
M128.969055,323.302124 
	C128.988403,333.247833 128.988403,342.720642 128.988403,352.595184 
	C118.347946,352.595184 107.987465,352.595184 97.312004,352.595184 
	C97.312004,342.278137 97.312004,332.035889 97.312004,321.114441 
	C107.374420,321.114441 117.448204,321.090820 127.520836,321.187256 
	C128.002319,321.191864 128.473633,322.257660 128.969055,323.302124 
z"/>
<path fill="#000" opacity="1.000000" stroke="none"
	d="
M110.011154,257.000671 
	C116.462151,257.000671 122.414978,257.000671 128.680206,257.000671 
	C128.680206,267.702759 128.680206,277.942291 128.680206,288.592194 
	C118.357475,288.592194 107.999733,288.592194 97.319443,288.592194 
	C97.319443,278.296478 97.319443,268.056671 97.319443,257.000671 
	C101.355537,257.000671 105.434258,257.000671 110.011154,257.000671 
z"/>
<path fill="#000" opacity="1.000000" stroke="none"
	d="
M128.999237,137.072601 
	C128.999237,145.175720 128.999237,152.790161 128.999237,160.696854 
	C118.261642,160.696854 108.021179,160.696854 97.389557,160.696854 
	C97.389557,150.317596 97.389557,139.959457 97.389557,129.299423 
	C107.745949,129.299423 117.986168,129.299423 128.999237,129.299423 
	C128.999237,131.744370 128.999237,134.164139 128.999237,137.072601 
z"/>
</svg>