<svg version="1.1" id="Layer_1" xmlns="http://www.w3.org/2000/svg" xmlns:xlink="http://www.w3.org/1999/xlink" x="0px" y="0px"
	 width="100%" viewBox="0 0 512 512" enable-background="new 0 0 512 512" xml:space="preserve">
<path fill="#1565C0" opacity="1.000000" stroke="none"
	d="
M169.082550,480.947327 
	C155.189651,473.947052 141.457352,467.408661 128.248779,459.943573 
	C112.414360,450.994446 98.648277,439.154480 85.894707,426.282928 
	C71.146889,411.398712 58.686176,394.697296 48.150715,376.540375 
	C34.289169,352.651215 25.470528,326.929779 20.138834,299.972351 
	C16.027838,279.186890 16.026033,258.031158 17.255455,237.070892 
	C18.699419,212.452911 24.853064,188.550827 34.164860,165.728027 
	C42.291962,145.808884 52.832546,127.043839 66.401176,110.224098 
	C73.438095,101.501099 80.740807,92.909378 88.669838,85.007301 
	C103.154045,70.572327 119.592079,58.585239 137.278214,48.268097 
	C157.933853,36.218693 179.987961,27.574013 203.249298,22.594530 
	C217.313110,19.583929 231.816010,17.777414 246.186172,17.274548 
	C261.684204,16.732210 277.368835,17.408302 292.770538,19.243774 
	C313.128143,21.669855 332.638397,27.872150 351.627167,35.794479 
	C371.472015,44.073944 389.620453,55.193085 406.497650,68.248528 
	C420.722656,79.252312 433.494629,91.971451 444.616333,106.214767 
	C456.659851,121.638657 467.255981,137.977005 475.358917,155.831024 
	C483.288055,173.302063 489.068329,191.465942 493.051971,210.257278 
	C497.627960,231.842712 497.952698,253.724777 496.769043,275.496399 
	C495.356323,301.481354 488.748077,326.526581 478.745697,350.608643 
	C470.329620,370.871613 459.102264,389.551727 445.517273,406.663788 
	C435.263702,419.579468 423.769470,431.378815 410.871155,441.919891 
	C394.613556,455.206421 377.242188,466.505707 358.250580,475.284790 
	C338.720001,484.312958 318.276642,490.345856 297.039459,494.165314 
	C277.431183,497.691833 257.703613,497.788574 238.090652,496.729492 
	C214.479492,495.454437 191.502472,489.932068 169.082550,480.947327 
M297.500061,194.124481 
	C247.423660,194.124481 197.347275,194.124481 147.258621,194.124481 
	C147.258621,197.412567 147.121475,200.062927 147.279480,202.695557 
	C149.205170,234.778122 151.172287,266.858215 153.132553,298.938690 
	C155.113129,331.351685 157.074066,363.765900 159.095673,396.176331 
	C159.705429,405.951935 165.862030,411.961426 175.517868,411.971497 
	C229.821793,412.028137 284.125824,412.026123 338.429749,411.973358 
	C347.914886,411.964142 354.221771,406.155884 354.844574,396.720306 
	C356.336243,374.121704 357.606689,351.508484 358.986206,328.902405 
	C361.197479,292.666473 363.434296,256.432129 365.638336,220.195786 
	C366.159149,211.633820 366.592682,203.066559 367.087250,194.124481 
	C343.752167,194.124481 321.126099,194.124481 297.500061,194.124481 
M193.499954,178.126953 
	C254.499466,178.126709 315.498962,178.129608 376.498474,178.121964 
	C383.451111,178.121094 384.568542,176.992981 384.596619,169.977097 
	C384.624664,162.977280 384.690033,155.975845 384.579407,148.977631 
	C384.408264,138.152924 378.168762,132.030655 367.361298,132.007889 
	C351.861511,131.975250 336.361603,131.999344 320.861725,131.999237 
	C315.410950,131.999191 309.960175,131.999222 304.074188,131.999222 
	C304.074188,127.687538 304.121124,123.892517 304.065277,120.099007 
	C303.904755,109.196808 296.737854,102.055244 285.744202,102.018219 
	C266.577911,101.953667 247.411087,101.952072 228.244812,102.018623 
	C217.051865,102.057503 210.032440,109.258118 209.929337,120.603256 
	C209.895294,124.348953 209.923965,128.095215 209.923965,131.999588 
	C188.292496,131.999588 167.463379,131.978073 146.634323,132.008438 
	C135.806030,132.024216 129.576111,138.147324 129.419556,148.976486 
	C129.315964,156.141617 129.362061,163.309662 129.408844,170.475952 
	C129.450439,176.849197 130.703781,178.110260 137.000412,178.117874 
	C155.500229,178.140274 174.000092,178.126556 193.499954,178.126953 
z"/>
<path fill="#FEFEFF" opacity="1.000000" stroke="none" 
	d="
M298.000061,194.124481 
	C321.126099,194.124481 343.752167,194.124481 367.087250,194.124481 
	C366.592682,203.066559 366.159149,211.633820 365.638336,220.195786 
	C363.434296,256.432129 361.197479,292.666473 358.986206,328.902405 
	C357.606689,351.508484 356.336243,374.121704 354.844574,396.720306 
	C354.221771,406.155884 347.914886,411.964142 338.429749,411.973358 
	C284.125824,412.026123 229.821793,412.028137 175.517868,411.971497 
	C165.862030,411.961426 159.705429,405.951935 159.095673,396.176331 
	C157.074066,363.765900 155.113129,331.351685 153.132553,298.938690 
	C151.172287,266.858215 149.205170,234.778122 147.279480,202.695557 
	C147.121475,200.062927 147.258621,197.412567 147.258621,194.124481 
	C197.347275,194.124481 247.423660,194.124481 298.000061,194.124481 
M207.367874,235.523895 
	C201.037415,236.498978 198.975922,238.731873 198.970413,245.006134 
	C198.941574,277.826965 198.940994,310.647827 198.972031,343.468628 
	C198.977661,349.427765 201.984009,352.940918 206.858658,352.983582 
	C211.703415,353.025970 214.930496,349.430115 214.938019,343.592529 
	C214.980560,310.605164 214.959305,277.617706 214.956055,244.630264 
	C214.955582,239.895660 213.000107,236.636505 207.367874,235.523895 
M299.039337,333.489929 
	C299.042969,337.151398 298.938202,340.816986 299.076416,344.473389 
	C299.269623,349.584106 302.487671,352.941956 307.001343,352.983246 
	C311.554138,353.024902 314.749847,349.696198 315.023956,344.612793 
	C315.059753,343.948730 315.043365,343.281677 315.043396,342.615997 
	C315.043976,310.328186 315.044159,278.040375 315.041412,245.752548 
	C315.041321,244.754333 315.114136,243.741348 314.975281,242.760422 
	C314.354095,238.373398 311.771637,235.778137 307.383789,235.582520 
	C302.955231,235.385086 300.197235,237.889297 299.233948,242.139755 
	C298.873352,243.730728 299.046173,245.451935 299.045685,247.113785 
	C299.037048,275.573669 299.039368,304.033539 299.039337,333.489929 
M265.000244,284.500000 
	C265.000000,271.353058 264.949677,258.205780 265.029633,245.059326 
	C265.054108,241.038559 263.900787,237.772873 260.034485,236.129791 
	C254.329819,233.705460 249.039566,237.846436 249.021622,244.816238 
	C248.964691,266.949554 248.999588,289.083099 248.999893,311.216553 
	C249.000046,322.200073 248.922516,333.184418 249.034653,344.166809 
	C249.097168,350.290619 253.912811,354.328125 259.083008,352.686157 
	C263.520233,351.276978 265.047424,347.909729 265.030487,343.412994 
	C264.957764,324.108887 264.999939,304.804382 265.000244,284.500000 
z"/>
<path fill="#FEFFFF" opacity="1.000000" stroke="none" 
	d="
M192.999939,178.126953 
	C174.000092,178.126556 155.500229,178.140274 137.000412,178.117874 
	C130.703781,178.110260 129.450439,176.849197 129.408844,170.475952 
	C129.362061,163.309662 129.315964,156.141617 129.419556,148.976486 
	C129.576111,138.147324 135.806030,132.024216 146.634323,132.008438 
	C167.463379,131.978073 188.292496,131.999588 209.923965,131.999588 
	C209.923965,128.095215 209.895294,124.348953 209.929337,120.603256 
	C210.032440,109.258118 217.051865,102.057503 228.244812,102.018623 
	C247.411087,101.952072 266.577911,101.953667 285.744202,102.018219 
	C296.737854,102.055244 303.904755,109.196808 304.065277,120.099007 
	C304.121124,123.892517 304.074188,127.687538 304.074188,131.999222 
	C309.960175,131.999222 315.410950,131.999191 320.861725,131.999237 
	C336.361603,131.999344 351.861511,131.975250 367.361298,132.007889 
	C378.168762,132.030655 384.408264,138.152924 384.579407,148.977631 
	C384.690033,155.975845 384.624664,162.977280 384.596619,169.977097 
	C384.568542,176.992981 383.451111,178.121094 376.498474,178.121964 
	C315.498962,178.129608 254.499466,178.126709 192.999939,178.126953 
z"/>
<path fill="#1766C1" opacity="1.000000" stroke="none" 
	d="
M207.732025,235.578461 
	C213.000107,236.636505 214.955582,239.895660 214.956055,244.630264 
	C214.959305,277.617706 214.980560,310.605164 214.938019,343.592529 
	C214.930496,349.430115 211.703415,353.025970 206.858658,352.983582 
	C201.984009,352.940918 198.977661,349.427765 198.972031,343.468628 
	C198.940994,310.647827 198.941574,277.826965 198.970413,245.006134 
	C198.975922,238.731873 201.037415,236.498978 207.732025,235.578461 
z"/>
<path fill="#1766C1" opacity="1.000000" stroke="none" 
	d="
M299.039307,332.991669 
	C299.039368,304.033539 299.037048,275.573669 299.045685,247.113785 
	C299.046173,245.451935 298.873352,243.730728 299.233948,242.139755 
	C300.197235,237.889297 302.955231,235.385086 307.383789,235.582520 
	C311.771637,235.778137 314.354095,238.373398 314.975281,242.760422 
	C315.114136,243.741348 315.041321,244.754333 315.041412,245.752548 
	C315.044159,278.040375 315.043976,310.328186 315.043396,342.615997 
	C315.043365,343.281677 315.059753,343.948730 315.023956,344.612793 
	C314.749847,349.696198 311.554138,353.024902 307.001343,352.983246 
	C302.487671,352.941956 299.269623,349.584106 299.076416,344.473389 
	C298.938202,340.816986 299.042969,337.151398 299.039307,332.991669 
z"/>
<path fill="#1666C0" opacity="1.000000" stroke="none" 
	d="
M265.000244,285.000000 
	C264.999939,304.804382 264.957764,324.108887 265.030487,343.412994 
	C265.047424,347.909729 263.520233,351.276978 259.083008,352.686157 
	C253.912811,354.328125 249.097168,350.290619 249.034653,344.166809 
	C248.922516,333.184418 249.000046,322.200073 248.999893,311.216553 
	C248.999588,289.083099 248.964691,266.949554 249.021622,244.816238 
	C249.039566,237.846436 254.329819,233.705460 260.034485,236.129791 
	C263.900787,237.772873 265.054108,241.038559 265.029633,245.059326 
	C264.949677,258.205780 265.000000,271.353058 265.000244,285.000000 
z"/>
</svg>