<svg version="1.1" id="Layer_1" xmlns="http://www.w3.org/2000/svg" xmlns:xlink="http://www.w3.org/1999/xlink" x="0px" y="0px"
	 width="100%" viewBox="0 0 512 512" enable-background="new 0 0 512 512" xml:space="preserve">
<path fill="#159BEA" opacity="1.000000" stroke="none"
	d="
M382.867493,415.028107 
	C316.903015,415.019012 250.937744,415.182434 184.974564,414.883911 
	C167.707382,414.805786 152.430557,408.562378 138.829300,397.526459 
	C122.895546,384.598053 113.152206,367.856079 108.444145,348.511566 
	C100.677704,316.600677 106.422554,286.795715 126.942589,260.801483 
	C139.186447,245.291275 155.521729,235.572510 175.216339,232.064377 
	C176.671127,231.805267 178.208572,232.000732 179.707596,232.000687 
	C226.515808,231.999069 273.326385,231.725006 320.131165,232.124741 
	C340.982025,232.302811 351.145996,220.363983 355.903107,203.742783 
	C359.929932,189.673386 357.724396,176.082047 349.813721,164.007263 
	C344.274719,155.552567 336.417572,149.911407 325.302704,149.934021 
	C261.670532,150.063477 198.037933,149.983902 134.011871,149.565567 
	C134.498230,147.374161 135.357666,145.582001 136.261398,143.812469 
	C143.569153,129.503647 151.299210,115.355133 153.154175,98.991486 
	C211.977966,98.994026 270.803101,98.778320 329.624725,99.136635 
	C346.526001,99.239586 361.547058,105.466248 374.900513,116.226578 
	C390.872650,129.097046 400.661011,145.831757 405.426117,165.180405 
	C412.996429,195.919388 408.152252,224.825989 388.882782,250.564819 
	C377.755951,265.427246 363.481903,275.968048 345.173950,280.358856 
	C341.387726,281.266907 337.433838,281.923523 333.555542,281.932129 
	C286.063477,282.037598 238.571091,281.992950 191.078781,282.007111 
	C181.801483,282.009888 173.598190,284.944611 167.509872,292.090424 
	C161.370895,299.295654 158.246735,307.797211 156.841629,317.282471 
	C155.173660,328.542236 157.639832,338.729980 163.159912,348.166138 
	C168.722061,357.674164 176.700500,364.028809 188.539810,364.018738 
	C245.696976,363.970062 302.854187,363.989624 360.749115,364.216614 
	C364.996582,380.552948 372.979645,394.761444 380.418549,409.205414 
	C381.379730,411.071716 382.058105,413.083649 382.867493,415.028107 
M307.793823,384.103546 
	C306.968109,384.127716 306.133301,384.082245 305.318268,384.188354 
	C302.151825,384.600433 299.215790,385.652649 299.286163,389.428864 
	C299.354858,393.114349 302.228577,394.441711 305.414825,394.652679 
	C309.031250,394.892090 312.685516,394.907440 316.302612,394.684479 
	C319.444489,394.490845 322.491333,393.342804 322.515137,389.600525 
	C322.540009,385.684509 319.626465,384.329559 316.138641,384.163879 
	C313.664948,384.046356 311.182404,384.115784 307.793823,384.103546 
M259.203827,389.437988 
	C260.795715,391.098206 262.208313,393.910645 264.014771,394.191681 
	C268.523834,394.893188 273.280243,394.903839 277.794250,394.231018 
	C279.595032,393.962555 282.518341,390.872864 282.267761,389.585968 
	C281.878052,387.584473 279.428284,384.884308 277.468811,384.515747 
	C273.311493,383.733826 268.837158,383.808929 264.635284,384.456818 
	C262.662689,384.760986 261.019958,387.204895 259.203827,389.437988 
M227.793839,384.103546 
	C226.968140,384.127686 226.133316,384.081970 225.318359,384.188354 
	C222.153503,384.601379 219.212646,385.650818 219.283875,389.426453 
	C219.353302,393.107025 222.223221,394.442200 225.412003,394.652618 
	C229.028458,394.891266 232.682434,394.906921 236.299591,394.685120 
	C239.442566,394.492371 242.489059,393.342102 242.513306,389.602325 
	C242.538666,385.689941 239.628555,384.328278 236.138458,384.163666 
	C233.664764,384.046997 231.182312,384.115784 227.793839,384.103546 
M185.145615,384.187256 
	C181.998230,384.708923 179.058884,385.779144 179.304138,389.598206 
	C179.559662,393.577148 182.790421,394.571075 186.083786,394.735016 
	C189.704971,394.915314 193.361938,394.879242 196.974152,394.582520 
	C199.997864,394.334106 202.636200,392.880035 202.527435,389.414124 
	C202.413788,385.793396 199.744186,384.336090 196.436157,384.194244 
	C192.970520,384.045624 189.494308,384.143463 185.145615,384.187256 
M164.141632,129.812912 
	C167.805298,129.826355 171.473145,129.952850 175.131363,129.818222 
	C178.170609,129.706390 180.847733,128.764404 180.989929,125.056549 
	C181.135727,121.253906 178.645660,119.610786 175.368210,119.347153 
	C171.732162,119.054665 167.927353,118.722755 164.438004,119.497627 
	C162.121780,120.011993 159.102066,122.055664 158.407715,124.098198 
	C157.308838,127.330666 160.292191,128.968399 164.141632,129.812912 
M195.173096,120.517265 
	C191.783020,124.876419 192.231735,128.512161 196.745468,129.198029 
	C201.602570,129.936066 206.692749,129.843628 211.581604,129.267807 
	C213.179031,129.079681 215.520905,126.278030 215.580612,124.602440 
	C215.635071,123.074463 213.177612,120.243950 211.623138,120.093231 
	C206.424789,119.589218 201.134918,120.028999 195.173096,120.517265 
M247.985214,119.220848 
	C244.346634,119.359077 240.583160,118.994095 237.123459,119.852882 
	C235.453079,120.267532 233.669479,122.829315 233.243484,124.714134 
	C232.971634,125.917038 234.986572,128.853745 236.158371,128.957581 
	C241.546097,129.435089 247.028641,129.503220 252.404526,128.976578 
	C253.705582,128.849121 255.531372,125.945686 255.625702,124.236526 
	C255.699539,122.898552 253.625244,121.240799 252.204529,120.099709 
	C251.398117,119.451981 249.986298,119.557983 247.985214,119.220848 
M288.119080,129.885132 
	C289.879089,129.495560 291.962738,129.554642 293.305237,128.586273 
	C294.568451,127.675117 295.666107,125.687599 295.684479,124.159798 
	C295.699738,122.889725 294.134521,120.581490 293.109314,120.487953 
	C287.570496,119.982574 281.954590,119.685417 276.430908,120.130714 
	C275.159393,120.233215 273.276520,123.537628 273.293701,125.353233 
	C273.306915,126.751564 275.666138,128.951294 277.320312,129.334290 
	C280.491638,130.068558 283.903168,129.765137 288.119080,129.885132 
M319.947876,129.861206 
	C323.760162,129.757462 327.700134,130.189362 331.330750,129.323669 
	C333.142487,128.891663 335.293091,126.218338 335.571350,124.308365 
	C335.756073,123.040314 333.108978,120.412956 331.355560,120.006271 
	C327.699249,119.158226 323.793610,119.189163 319.993103,119.218140 
	C316.681183,119.243385 313.528107,120.146378 313.065369,124.182800 
	C312.562164,128.571854 315.760651,129.320633 319.947876,129.861206 
M337.658508,394.222198 
	C342.268188,394.331451 346.890717,394.693054 351.483002,394.459686 
	C354.453552,394.308685 357.616394,392.644653 356.636932,389.264526 
	C356.040466,387.206146 353.171021,384.904114 350.951447,384.422729 
	C347.317261,383.634491 343.313385,383.825531 339.599335,384.428497 
	C337.660614,384.743225 335.037354,386.514038 334.513489,388.187592 
	C334.041870,389.694183 336.013733,391.965698 337.658508,394.222198 
M130.974640,349.420319 
	C132.135223,352.924438 134.445465,354.948792 138.109085,353.494751 
	C141.689514,352.073669 141.247543,348.880249 140.352509,345.842377 
	C139.323776,342.350677 138.311951,338.853149 137.218887,335.381439 
	C136.241425,332.276917 134.109451,330.416656 130.865891,331.458832 
	C127.798317,332.444427 126.600479,334.922852 127.609421,338.208344 
	C128.677917,341.687805 129.690720,345.184387 130.974640,349.420319 
M384.797119,215.182663 
	C385.766541,211.848846 387.265015,208.551651 387.499207,205.166962 
	C387.631439,203.255539 386.176941,200.320724 384.558807,199.413422 
	C382.058777,198.011612 379.270660,199.195282 378.261047,202.285431 
	C376.824005,206.683914 375.295593,211.104721 374.516083,215.638062 
	C374.236023,217.266708 375.605499,219.738800 376.996063,220.895920 
	C377.906891,221.653854 380.579773,221.276459 381.784668,220.435242 
	C383.111145,219.509125 383.660187,217.469406 384.797119,215.182663 
M140.450699,295.358459 
	C136.383041,290.892242 132.977417,291.345551 130.982178,296.896820 
	C129.522980,300.956726 128.173233,305.153290 127.634636,309.398071 
	C127.423737,311.060120 129.231674,314.097382 130.717636,314.550964 
	C132.304001,315.035187 135.853180,313.671875 136.357010,312.307159 
	C138.288849,307.074310 139.342026,301.517029 140.450699,295.358459 
M163.066559,377.484772 
	C159.685013,374.546295 156.372070,371.523529 152.898636,368.697968 
	C150.435989,366.694672 147.671738,366.246765 145.361954,368.901337 
	C143.162903,371.428619 144.059601,373.874603 146.312119,375.884064 
	C149.530960,378.755524 152.624466,381.857239 156.209625,384.186157 
	C157.748077,385.185486 160.757858,385.230194 162.438614,384.388947 
	C164.880936,383.166504 165.445206,380.551727 163.066559,377.484772 
M387.106995,174.384750 
	C386.095581,170.891891 385.164093,167.373260 384.049286,163.913712 
	C383.024200,160.732513 380.476715,158.904541 377.620361,160.585403 
	C375.936340,161.576401 374.525482,164.775085 374.713287,166.823059 
	C375.053589,170.534058 376.694611,174.122986 377.766388,177.770584 
	C378.688263,180.908066 380.296509,183.545349 384.001862,182.636581 
	C387.917480,181.676254 388.408051,178.636581 387.106995,174.384750 
M356.880981,128.560852 
	C355.001404,129.490631 352.264130,129.981018 351.496063,131.480225 
	C350.801025,132.836945 351.662140,135.845840 352.880280,137.157120 
	C355.786285,140.285385 359.046326,143.285675 362.694672,145.436417 
	C364.444824,146.468140 368.150055,146.378693 369.642212,145.164886 
	C372.213806,143.072952 371.162048,139.992249 368.709290,137.904343 
	C365.063171,134.800552 361.284790,131.852112 356.880981,128.560852 
M163.795517,268.222717 
	C163.378433,266.171509 163.615997,263.197296 162.370560,262.313965 
	C160.966064,261.317780 157.789734,261.462524 156.159149,262.424652 
	C152.757339,264.431915 149.816406,267.245941 146.780121,269.838623 
	C144.449966,271.828308 142.815796,274.339355 145.113983,277.184052 
	C147.436584,280.058960 150.406860,279.592468 153.067947,277.459686 
	C156.570648,274.652344 159.959015,271.702332 163.795517,268.222717 
M352.575653,251.919174 
	C354.305450,252.131973 356.629852,253.164139 357.661835,252.415283 
	C362.056702,249.226135 366.288177,245.721848 370.055908,241.826324 
	C370.919769,240.933212 370.394440,237.157303 369.275085,236.277740 
	C367.899323,235.196701 364.706757,234.894485 363.224609,235.788803 
	C359.715759,237.906067 356.813171,241.005341 353.552521,243.563644 
	C350.717102,245.788254 350.169617,248.301147 352.575653,251.919174 
M335.442688,255.110352 
	C333.849091,254.097092 332.325378,252.374710 330.648254,252.209473 
	C326.378723,251.788818 321.967438,251.605942 317.764587,252.277451 
	C315.982758,252.562134 313.671814,255.000290 313.212555,256.858032 
	C312.463654,259.887329 314.691681,261.813049 317.846619,261.915924 
	C321.987457,262.050934 326.141479,262.085175 330.279510,261.913788 
	C333.997284,261.759766 336.179626,259.916595 335.442688,255.110352 
M293.978516,260.767242 
	C296.837952,256.387238 295.943359,252.758957 291.468262,252.282410 
	C286.718536,251.776627 281.827087,251.751617 277.102478,252.347855 
	C275.566986,252.541626 273.312378,255.344879 273.300690,256.968353 
	C273.289032,258.590271 275.585480,261.532043 277.022980,261.628998 
	C282.410950,261.992493 287.861481,261.428833 293.978516,260.767242 
M249.353790,259.741272 
	C250.750061,256.040924 250.246735,252.751099 245.876007,252.243164 
	C241.150177,251.693970 236.266464,251.813675 231.537399,252.370285 
	C229.962128,252.555679 227.664032,254.883911 227.496521,256.427887 
	C227.327332,257.987335 229.357727,261.220764 230.480560,261.246216 
	C236.592255,261.384583 242.721252,260.758514 249.353790,259.741272 
M201.992111,252.028275 
	C198.000473,252.049072 194.000122,251.916061 190.020035,252.141174 
	C187.040436,252.309708 184.446671,253.972824 185.242813,257.135162 
	C185.710724,258.993744 188.085724,261.336182 189.935684,261.682220 
	C193.796921,262.404480 197.958054,262.426117 201.838898,261.784943 
	C203.987152,261.429962 206.905838,259.529816 207.550461,257.661377 
	C208.662506,254.438171 206.116714,252.571152 201.992111,252.028275 
z"/>
<path fill="#E15757" opacity="1.000000" stroke="none" 
	d="
M153.255585,98.585922 
	C151.299210,115.355133 143.569153,129.503647 136.261398,143.812469 
	C135.357666,145.582001 134.498230,147.374161 133.507507,149.516174 
	C126.409058,162.593124 119.476784,175.340561 112.415718,188.016281 
	C107.037872,197.670349 101.492416,207.231018 96.032661,216.839554 
	C95.241676,218.231613 94.512978,219.659058 93.397797,221.736328 
	C89.738266,215.618027 86.327049,210.202286 83.196442,204.628922 
	C72.185883,185.027084 60.980816,165.525574 50.438385,145.673294 
	C44.797123,135.050339 38.744221,124.213852 35.714645,112.725441 
	C29.275629,88.308144 31.138664,64.832764 51.846973,46.827538 
	C61.662102,38.293583 73.478989,33.769756 86.656197,32.961605 
	C102.515724,31.988949 117.520157,34.459187 130.615234,43.969212 
	C143.531555,53.349426 151.520142,65.908791 152.945709,82.079758 
	C153.416245,87.417229 153.238388,92.811859 153.255585,98.585922 
M111.791359,70.659378 
	C110.709137,69.885941 109.668732,69.044495 108.538231,68.349594 
	C97.287361,61.433895 83.178490,62.776825 73.393364,71.668869 
	C63.814930,80.373077 61.087555,94.249603 66.661377,105.920212 
	C72.336327,117.802536 84.940392,124.449112 97.971901,122.159691 
	C109.679405,120.102882 117.632637,113.250664 121.057121,101.938332 
	C124.662926,90.027031 121.483826,79.628250 111.791359,70.659378 
z"/>
<path fill="#E15757" opacity="1.000000" stroke="none" 
	d="
M383.021301,415.350372 
	C382.058105,413.083649 381.379730,411.071716 380.418549,409.205414 
	C372.979645,394.761444 364.996582,380.552948 361.212341,364.176575 
	C360.955780,356.894440 360.451935,349.835999 361.090942,342.882538 
	C362.892700,323.277039 372.799042,308.705811 390.395020,300.017151 
	C413.104187,288.803650 435.813110,289.981476 457.234222,303.226105 
	C469.869324,311.038361 477.423523,323.167389 479.977234,337.983093 
	C483.024628,355.662811 480.915588,372.610565 472.167206,388.511200 
	C459.137512,412.193329 446.133575,435.889648 433.127441,459.584747 
	C429.216827,466.709259 425.335175,473.849670 420.915009,481.944733 
	C408.074768,459.396973 395.624939,437.534821 383.021301,415.350372 
M426.567230,382.227142 
	C443.036469,378.381226 453.072632,363.236481 449.590881,347.484009 
	C446.112091,331.745209 431.086914,321.688293 415.555817,324.703064 
	C399.294342,327.859619 389.185760,342.648315 392.035706,359.112701 
	C394.688293,374.437286 409.641052,384.770660 426.567230,382.227142 
z"/>
<path fill="#1568C2" opacity="1.000000" stroke="none" 
	d="
M308.248810,384.102661 
	C311.182404,384.115784 313.664948,384.046356 316.138641,384.163879 
	C319.626465,384.329559 322.540009,385.684509 322.515137,389.600525 
	C322.491333,393.342804 319.444489,394.490845 316.302612,394.684479 
	C312.685516,394.907440 309.031250,394.892090 305.414825,394.652679 
	C302.228577,394.441711 299.354858,393.114349 299.286163,389.428864 
	C299.215790,385.652649 302.151825,384.600433 305.318268,384.188354 
	C306.133301,384.082245 306.968109,384.127716 308.248810,384.102661 
z"/>
<path fill="#1568C2" opacity="1.000000" stroke="none" 
	d="
M259.215790,389.058533 
	C261.019958,387.204895 262.662689,384.760986 264.635284,384.456818 
	C268.837158,383.808929 273.311493,383.733826 277.468811,384.515747 
	C279.428284,384.884308 281.878052,387.584473 282.267761,389.585968 
	C282.518341,390.872864 279.595032,393.962555 277.794250,394.231018 
	C273.280243,394.903839 268.523834,394.893188 264.014771,394.191681 
	C262.208313,393.910645 260.795715,391.098206 259.215790,389.058533 
z"/>
<path fill="#1568C2" opacity="1.000000" stroke="none" 
	d="
M228.248810,384.102661 
	C231.182312,384.115784 233.664764,384.046997 236.138458,384.163666 
	C239.628555,384.328278 242.538666,385.689941 242.513306,389.602325 
	C242.489059,393.342102 239.442566,394.492371 236.299591,394.685120 
	C232.682434,394.906921 229.028458,394.891266 225.412003,394.652618 
	C222.223221,394.442200 219.353302,393.107025 219.283875,389.426453 
	C219.212646,385.650818 222.153503,384.601379 225.318359,384.188354 
	C226.133316,384.081970 226.968140,384.127686 228.248810,384.102661 
z"/>
<path fill="#1568C2" opacity="1.000000" stroke="none" 
	d="
M185.584167,384.160431 
	C189.494308,384.143463 192.970520,384.045624 196.436157,384.194244 
	C199.744186,384.336090 202.413788,385.793396 202.527435,389.414124 
	C202.636200,392.880035 199.997864,394.334106 196.974152,394.582520 
	C193.361938,394.879242 189.704971,394.915314 186.083786,394.735016 
	C182.790421,394.571075 179.559662,393.577148 179.304138,389.598206 
	C179.058884,385.779144 181.998230,384.708923 185.584167,384.160431 
z"/>
<path fill="#1567C2" opacity="1.000000" stroke="none" 
	d="
M163.718140,129.757416 
	C160.292191,128.968399 157.308838,127.330666 158.407715,124.098198 
	C159.102066,122.055664 162.121780,120.011993 164.438004,119.497627 
	C167.927353,118.722755 171.732162,119.054665 175.368210,119.347153 
	C178.645660,119.610786 181.135727,121.253906 180.989929,125.056549 
	C180.847733,128.764404 178.170609,129.706390 175.131363,129.818222 
	C171.473145,129.952850 167.805298,129.826355 163.718140,129.757416 
z"/>
<path fill="#1567C2" opacity="1.000000" stroke="none" 
	d="
M195.526611,120.312271 
	C201.134918,120.028999 206.424789,119.589218 211.623138,120.093231 
	C213.177612,120.243950 215.635071,123.074463 215.580612,124.602440 
	C215.520905,126.278030 213.179031,129.079681 211.581604,129.267807 
	C206.692749,129.843628 201.602570,129.936066 196.745468,129.198029 
	C192.231735,128.512161 191.783020,124.876419 195.526611,120.312271 
z"/>
<path fill="#1567C2" opacity="1.000000" stroke="none" 
	d="
M248.416168,119.272697 
	C249.986298,119.557983 251.398117,119.451981 252.204529,120.099709 
	C253.625244,121.240799 255.699539,122.898552 255.625702,124.236526 
	C255.531372,125.945686 253.705582,128.849121 252.404526,128.976578 
	C247.028641,129.503220 241.546097,129.435089 236.158371,128.957581 
	C234.986572,128.853745 232.971634,125.917038 233.243484,124.714134 
	C233.669479,122.829315 235.453079,120.267532 237.123459,119.852882 
	C240.583160,118.994095 244.346634,119.359077 248.416168,119.272697 
z"/>
<path fill="#1567C2" opacity="1.000000" stroke="none" 
	d="
M287.667053,129.888702 
	C283.903168,129.765137 280.491638,130.068558 277.320312,129.334290 
	C275.666138,128.951294 273.306915,126.751564 273.293701,125.353233 
	C273.276520,123.537628 275.159393,120.233215 276.430908,120.130714 
	C281.954590,119.685417 287.570496,119.982574 293.109314,120.487953 
	C294.134521,120.581490 295.699738,122.889725 295.684479,124.159798 
	C295.666107,125.687599 294.568451,127.675117 293.305237,128.586273 
	C291.962738,129.554642 289.879089,129.495560 287.667053,129.888702 
z"/>
<path fill="#1567C2" opacity="1.000000" stroke="none" 
	d="
M319.508728,129.833405 
	C315.760651,129.320633 312.562164,128.571854 313.065369,124.182800 
	C313.528107,120.146378 316.681183,119.243385 319.993103,119.218140 
	C323.793610,119.189163 327.699249,119.158226 331.355560,120.006271 
	C333.108978,120.412956 335.756073,123.040314 335.571350,124.308365 
	C335.293091,126.218338 333.142487,128.891663 331.330750,129.323669 
	C327.700134,130.189362 323.760162,129.757462 319.508728,129.833405 
z"/>
<path fill="#1567C2" opacity="1.000000" stroke="none" 
	d="
M337.283142,394.061005 
	C336.013733,391.965698 334.041870,389.694183 334.513489,388.187592 
	C335.037354,386.514038 337.660614,384.743225 339.599335,384.428497 
	C343.313385,383.825531 347.317261,383.634491 350.951447,384.422729 
	C353.171021,384.904114 356.040466,387.206146 356.636932,389.264526 
	C357.616394,392.644653 354.453552,394.308685 351.483002,394.459686 
	C346.890717,394.693054 342.268188,394.331451 337.283142,394.061005 
z"/>
<path fill="#1567C1" opacity="1.000000" stroke="none" 
	d="
M130.851227,349.046906 
	C129.690720,345.184387 128.677917,341.687805 127.609421,338.208344 
	C126.600479,334.922852 127.798317,332.444427 130.865891,331.458832 
	C134.109451,330.416656 136.241425,332.276917 137.218887,335.381439 
	C138.311951,338.853149 139.323776,342.350677 140.352509,345.842377 
	C141.247543,348.880249 141.689514,352.073669 138.109085,353.494751 
	C134.445465,354.948792 132.135223,352.924438 130.851227,349.046906 
z"/>
<path fill="#1567C1" opacity="1.000000" stroke="none" 
	d="
M384.672516,215.548752 
	C383.660187,217.469406 383.111145,219.509125 381.784668,220.435242 
	C380.579773,221.276459 377.906891,221.653854 376.996063,220.895920 
	C375.605499,219.738800 374.236023,217.266708 374.516083,215.638062 
	C375.295593,211.104721 376.824005,206.683914 378.261047,202.285431 
	C379.270660,199.195282 382.058777,198.011612 384.558807,199.413422 
	C386.176941,200.320724 387.631439,203.255539 387.499207,205.166962 
	C387.265015,208.551651 385.766541,211.848846 384.672516,215.548752 
z"/>
<path fill="#1567C1" opacity="1.000000" stroke="none" 
	d="
M140.586899,295.719666 
	C139.342026,301.517029 138.288849,307.074310 136.357010,312.307159 
	C135.853180,313.671875 132.304001,315.035187 130.717636,314.550964 
	C129.231674,314.097382 127.423737,311.060120 127.634636,309.398071 
	C128.173233,305.153290 129.522980,300.956726 130.982178,296.896820 
	C132.977417,291.345551 136.383041,290.892242 140.586899,295.719666 
z"/>
<path fill="#1567C1" opacity="1.000000" stroke="none" 
	d="
M163.302338,377.754669 
	C165.445206,380.551727 164.880936,383.166504 162.438614,384.388947 
	C160.757858,385.230194 157.748077,385.185486 156.209625,384.186157 
	C152.624466,381.857239 149.530960,378.755524 146.312119,375.884064 
	C144.059601,373.874603 143.162903,371.428619 145.361954,368.901337 
	C147.671738,366.246765 150.435989,366.694672 152.898636,368.697968 
	C156.372070,371.523529 159.685013,374.546295 163.302338,377.754669 
z"/>
<path fill="#1567C1" opacity="1.000000" stroke="none" 
	d="
M387.203430,174.773911 
	C388.408051,178.636581 387.917480,181.676254 384.001862,182.636581 
	C380.296509,183.545349 378.688263,180.908066 377.766388,177.770584 
	C376.694611,174.122986 375.053589,170.534058 374.713287,166.823059 
	C374.525482,164.775085 375.936340,161.576401 377.620361,160.585403 
	C380.476715,158.904541 383.024200,160.732513 384.049286,163.913712 
	C385.164093,167.373260 386.095581,170.891891 387.203430,174.773911 
z"/>
<path fill="#1567C1" opacity="1.000000" stroke="none" 
	d="
M357.221863,128.699203 
	C361.284790,131.852112 365.063171,134.800552 368.709290,137.904343 
	C371.162048,139.992249 372.213806,143.072952 369.642212,145.164886 
	C368.150055,146.378693 364.444824,146.468140 362.694672,145.436417 
	C359.046326,143.285675 355.786285,140.285385 352.880280,137.157120 
	C351.662140,135.845840 350.801025,132.836945 351.496063,131.480225 
	C352.264130,129.981018 355.001404,129.490631 357.221863,128.699203 
z"/>
<path fill="#1567C1" opacity="1.000000" stroke="none" 
	d="
M163.596039,268.518188 
	C159.959015,271.702332 156.570648,274.652344 153.067947,277.459686 
	C150.406860,279.592468 147.436584,280.058960 145.113983,277.184052 
	C142.815796,274.339355 144.449966,271.828308 146.780121,269.838623 
	C149.816406,267.245941 152.757339,264.431915 156.159149,262.424652 
	C157.789734,261.462524 160.966064,261.317780 162.370560,262.313965 
	C163.615997,263.197296 163.378433,266.171509 163.596039,268.518188 
z"/>
<path fill="#1566C1" opacity="1.000000" stroke="none" 
	d="
M352.299835,251.642181 
	C350.169617,248.301147 350.717102,245.788254 353.552521,243.563644 
	C356.813171,241.005341 359.715759,237.906067 363.224609,235.788803 
	C364.706757,234.894485 367.899323,235.196701 369.275085,236.277740 
	C370.394440,237.157303 370.919769,240.933212 370.055908,241.826324 
	C366.288177,245.721848 362.056702,249.226135 357.661835,252.415283 
	C356.629852,253.164139 354.305450,252.131973 352.299835,251.642181 
z"/>
<path fill="#1566C1" opacity="1.000000" stroke="none" 
	d="
M335.573395,255.481934 
	C336.179626,259.916595 333.997284,261.759766 330.279510,261.913788 
	C326.141479,262.085175 321.987457,262.050934 317.846619,261.915924 
	C314.691681,261.813049 312.463654,259.887329 313.212555,256.858032 
	C313.671814,255.000290 315.982758,252.562134 317.764587,252.277451 
	C321.967438,251.605942 326.378723,251.788818 330.648254,252.209473 
	C332.325378,252.374710 333.849091,254.097092 335.573395,255.481934 
z"/>
<path fill="#1566C1" opacity="1.000000" stroke="none" 
	d="
M293.633545,260.989990 
	C287.861481,261.428833 282.410950,261.992493 277.022980,261.628998 
	C275.585480,261.532043 273.289032,258.590271 273.300690,256.968353 
	C273.312378,255.344879 275.566986,252.541626 277.102478,252.347855 
	C281.827087,251.751617 286.718536,251.776627 291.468262,252.282410 
	C295.943359,252.758957 296.837952,256.387238 293.633545,260.989990 
z"/>
<path fill="#1566C1" opacity="1.000000" stroke="none" 
	d="
M249.099045,260.068390 
	C242.721252,260.758514 236.592255,261.384583 230.480560,261.246216 
	C229.357727,261.220764 227.327332,257.987335 227.496521,256.427887 
	C227.664032,254.883911 229.962128,252.555679 231.537399,252.370285 
	C236.266464,251.813675 241.150177,251.693970 245.876007,252.243164 
	C250.246735,252.751099 250.750061,256.040924 249.099045,260.068390 
z"/>
<path fill="#1566C1" opacity="1.000000" stroke="none" 
	d="
M202.429504,252.055405 
	C206.116714,252.571152 208.662506,254.438171 207.550461,257.661377 
	C206.905838,259.529816 203.987152,261.429962 201.838898,261.784943 
	C197.958054,262.426117 193.796921,262.404480 189.935684,261.682220 
	C188.085724,261.336182 185.710724,258.993744 185.242813,257.135162 
	C184.446671,253.972824 187.040436,252.309708 190.020035,252.141174 
	C194.000122,251.916061 198.000473,252.049072 202.429504,252.055405 
z"/>
<path fill="#ECF1F7" opacity="1.000000" stroke="none" 
	d="
M112.072021,70.884750 
	C121.483826,79.628250 124.662926,90.027031 121.057121,101.938332 
	C117.632637,113.250664 109.679405,120.102882 97.971901,122.159691 
	C84.940392,124.449112 72.336327,117.802536 66.661377,105.920212 
	C61.087555,94.249603 63.814930,80.373077 73.393364,71.668869 
	C83.178490,62.776825 97.287361,61.433895 108.538231,68.349594 
	C109.668732,69.044495 110.709137,69.885941 112.072021,70.884750 
z"/>
<path fill="#ECF1F7" opacity="1.000000" stroke="none" 
	d="
M426.150757,382.313934 
	C409.641052,384.770660 394.688293,374.437286 392.035706,359.112701 
	C389.185760,342.648315 399.294342,327.859619 415.555817,324.703064 
	C431.086914,321.688293 446.112091,331.745209 449.590881,347.484009 
	C453.072632,363.236481 443.036469,378.381226 426.150757,382.313934 
z"/>
</svg>