<svg version="1.1" id="Layer_1" xmlns="http://www.w3.org/2000/svg" xmlns:xlink="http://www.w3.org/1999/xlink" x="0px" y="0px"
	 width="100%" viewBox="0 0 512 512" enable-background="new 0 0 512 512" xml:space="preserve">

<path fill="#1565C0" opacity="1.000000" stroke="none" 
	d="
M1.000000,422.468658 
	C1.645494,421.560211 2.746545,421.222351 2.870977,420.666016 
	C8.370672,396.077026 23.138966,378.383698 45.836102,368.952545 
	C73.361916,357.514984 100.117340,360.481140 124.095131,379.587250 
	C140.166489,392.393341 148.446640,409.448517 151.427277,429.717529 
	C161.318848,429.717529 171.256485,429.717529 181.966034,429.717529 
	C185.197067,404.393982 198.227844,385.055939 220.254684,371.934784 
	C235.197525,363.033508 251.956024,360.841888 268.527069,363.319946 
	C304.068878,368.634979 328.376160,396.125793 332.257172,429.596466 
	C342.248230,429.596466 352.298401,429.596466 362.107056,429.596466 
	C364.371460,422.494385 366.120483,415.181122 368.991730,408.338837 
	C378.408356,385.898956 395.141327,371.167572 418.612152,365.181396 
	C441.725769,359.286377 463.775879,362.976349 483.267273,377.166412 
	C497.219025,387.323486 506.268372,401.245789 511.021301,417.894562 
	C511.272217,418.773468 511.847076,419.559875 512.635559,420.194672 
	C513.000000,423.030609 513.000000,426.061188 512.566040,429.545746 
	C507.277557,430.552094 502.423035,431.104523 497.567963,431.656982 
	C493.992920,402.847504 469.345062,378.858612 438.798035,378.723907 
	C415.876434,378.622803 392.169525,391.505676 382.337646,417.765442 
	C374.138947,439.663177 380.017395,463.451141 394.622192,477.463074 
	C398.008820,466.132263 405.096497,457.626312 414.905151,451.259247 
	C402.864258,433.332458 407.461487,415.947205 418.545471,407.142548 
	C430.401245,397.724884 445.717224,396.259979 459.782776,408.479431 
	C465.519867,413.463501 468.350983,420.989594 468.833099,428.646606 
	C469.347534,436.816956 466.488342,444.284760 460.984222,451.070374 
	C471.601807,456.919281 477.950317,466.013885 482.139832,477.482666 
	C491.255371,467.639069 495.824097,456.694336 497.411316,444.389801 
	C502.665131,444.932495 507.832581,445.466248 513.000000,446.000000 
	C513.000000,449.030609 513.000000,452.061188 512.635620,455.351074 
	C508.049164,466.914001 503.636475,477.983948 495.450745,487.332977 
	C484.942047,499.335144 472.276459,507.309143 456.843018,511.083160 
	C456.115936,511.260986 455.609283,512.340454 455.000000,513.000000 
	C443.979095,513.000000 432.958221,513.000000 421.663025,512.635254 
	C420.560486,511.846466 419.775757,511.266296 418.897552,511.021301 
	C395.352173,504.452240 378.428497,490.147400 368.950043,467.565125 
	C366.084564,460.738190 364.407959,453.412201 362.221222,446.424866 
	C352.248199,446.424866 342.217102,446.424866 332.283142,446.424866 
	C330.460907,463.890961 323.228149,478.537598 311.580261,490.738190 
	C301.942749,500.833099 290.053192,507.721710 276.328430,511.127960 
	C275.765411,511.267700 275.437469,512.354492 275.000000,513.000000 
	C263.645782,513.000000 252.291550,513.000000 240.663422,512.635376 
	C239.559708,511.846710 238.773468,511.265411 237.893692,511.021515 
	C214.219742,504.457642 197.356567,489.959808 187.824234,467.341705 
	C185.000198,460.640900 183.404984,453.422211 181.218475,446.349609 
	C171.384171,446.349609 161.305222,446.349609 151.267349,446.349609 
	C149.533737,463.782166 142.269989,478.443237 130.631546,490.687744 
	C120.995499,500.825531 109.075546,507.703979 95.333260,511.127319 
	C94.768394,511.268066 94.439064,512.354309 94.000000,513.000000 
	C82.645775,513.000000 71.291542,513.000000 59.663471,512.635376 
	C59.187984,512.010132 59.032242,511.582397 58.778183,511.512604 
	C29.210852,503.391327 10.070886,485.005829 2.810537,454.839905 
	C2.713791,454.437958 1.625501,454.274658 1.000004,454.000000 
	C1.000000,443.645782 1.000000,433.291534 1.000000,422.468658 
M314.008301,455.387726 
	C316.361969,446.961487 317.639832,438.597229 316.138977,429.692352 
	C313.841827,416.063049 308.243805,404.136688 298.193512,394.965851 
	C285.331055,383.228821 270.046204,377.287567 252.153488,378.919617 
	C239.295135,380.092438 227.954590,384.656403 218.463501,393.162659 
	C201.588516,408.286652 195.044159,427.245361 199.020569,449.653259 
	C200.929077,460.408173 206.125549,469.507416 212.809860,477.415253 
	C215.720047,472.241730 217.949448,466.924927 221.382507,462.553253 
	C224.867096,458.115906 229.539673,454.611389 233.715576,450.676086 
	C222.539001,435.104828 225.599869,416.780884 237.369354,407.295929 
	C249.797241,397.280334 266.026337,396.080414 278.828857,408.744324 
	C289.653137,419.451385 292.134155,435.139130 280.048035,451.015015 
	C290.583527,456.972900 297.222351,466.190735 301.166992,477.552887 
	C301.676636,477.645905 302.186279,477.738953 302.695923,477.831970 
	C306.434509,470.619934 310.173096,463.407867 314.008301,455.387726 
M121.646538,475.877502 
	C122.789696,474.482605 124.081520,473.183594 125.052620,471.677765 
	C133.106659,459.188629 137.238174,445.900452 135.146133,430.706726 
	C133.224701,416.751984 127.603340,404.692169 117.537216,395.323334 
	C104.806549,383.474518 89.576111,377.402985 71.631996,378.893890 
	C58.728474,379.966003 47.331871,384.427917 37.808826,392.850128 
	C20.703817,407.977936 13.959818,427.071594 18.025574,449.705902 
	C19.955269,460.448608 25.143494,469.555817 32.425873,478.131287 
	C35.970303,466.029755 43.280979,457.545471 53.075760,451.093353 
	C41.601635,435.373169 44.487377,416.771820 56.438354,407.236450 
	C69.309517,396.966858 85.628189,396.300201 97.888680,408.827179 
	C109.901764,421.101440 110.035767,436.076843 99.718803,450.306549 
	C103.920181,454.475464 108.405220,458.306702 112.092575,462.793488 
	C114.730835,466.003784 116.222900,470.138947 118.394730,473.760468 
	C119.018898,474.801270 120.228149,475.491211 121.646538,475.877502 
M427.107025,463.404999 
	C417.975159,467.458710 412.115082,474.269897 409.479553,483.947906 
	C408.423370,487.826202 408.823456,490.310211 413.154022,492.064514 
	C423.172150,496.122925 433.374329,498.005768 444.173615,497.043365 
	C452.782745,496.276154 460.534698,493.262360 467.951416,489.464661 
	C464.978516,464.658264 441.703979,456.726715 427.107025,463.404999 
M228.074631,488.988739 
	C230.561859,490.387054 232.922089,492.114746 235.556824,493.130432 
	C253.232742,499.944489 270.341248,498.503052 287.035461,489.442749 
	C285.395966,480.115051 282.194427,472.045959 274.142242,466.605103 
	C265.719727,460.913971 256.756165,459.066681 247.192200,463.001526 
	C235.991745,467.609619 229.111862,475.743042 228.074631,488.988739 
M89.303169,495.986969 
	C94.933937,493.973267 100.564713,491.959534 106.117775,489.973602 
	C104.450539,480.137604 101.069969,472.454315 93.403168,466.791229 
	C76.700287,454.453552 55.169857,463.380096 49.024139,479.797729 
	C45.428394,489.403351 45.621426,489.612976 54.813625,493.335449 
	C65.706070,497.746460 76.985542,498.218353 89.303169,495.986969 
M452.980927,429.686096 
	C452.571289,428.279999 452.267090,426.832428 451.733673,425.474945 
	C449.441193,419.641083 442.250549,415.187683 436.599548,416.030853 
	C430.048920,417.008270 424.397766,422.667358 424.003784,428.644287 
	C423.495972,436.348114 427.070160,441.810577 434.108856,444.088074 
	C443.230743,447.039551 450.489380,441.816345 452.980927,429.686096 
M268.524963,422.006195 
	C266.821136,420.586670 265.270782,418.905884 263.383972,417.797943 
	C258.263977,414.791443 252.333511,415.570801 247.945908,419.546509 
	C243.181976,423.863190 241.546661,430.316620 243.871872,435.623871 
	C247.410660,443.701111 255.709991,447.225739 262.773285,443.651031 
	C271.561951,439.203186 273.935883,431.223724 268.524963,422.006195 
M80.355705,416.795319 
	C76.759712,417.143097 72.847702,416.705750 69.632584,417.999786 
	C62.629528,420.818481 59.875706,430.015656 63.342884,436.813721 
	C67.156189,444.290436 75.177803,446.849854 82.406845,443.225616 
	C87.782166,440.530731 90.812622,436.057770 90.804893,430.480896 
	C90.796173,424.184540 86.965500,419.639221 80.355705,416.795319 
z"/>
<path fill="#1565C0" opacity="1.000000" stroke="none" 
	d="
M274.531342,1.000000 
	C275.438660,1.645694 275.764343,2.726821 276.332306,2.874249 
	C298.065216,8.515276 314.302002,21.618895 324.415588,41.201729 
	C331.185669,54.310486 334.088043,68.650383 332.261322,84.040970 
	C330.046387,102.702568 322.426361,118.351936 309.207214,131.035507 
	C297.119720,142.633270 282.240112,149.403595 264.999695,151.265747 
	C264.999695,162.819000 264.999725,174.119751 264.999725,185.420486 
	C264.999725,196.722839 264.999695,208.025208 264.999695,219.661453 
	C259.698639,219.661453 254.774857,219.661453 249.248047,219.661453 
	C249.248047,197.078262 249.248047,174.356873 249.248047,151.466049 
	C215.782532,145.854233 193.032257,127.719246 184.300125,95.229530 
	C177.863266,71.279877 182.367111,48.540039 198.528809,28.566235 
	C202.920761,32.114151 206.733200,35.193924 210.919571,38.575768 
	C200.820190,52.283764 195.987976,67.625389 198.409378,84.729362 
	C200.077560,96.512833 205.313904,106.713303 213.395340,116.084564 
	C217.016876,104.255402 223.958054,95.687912 234.136932,89.158615 
	C228.173996,81.187630 225.492737,72.174866 227.395935,62.335785 
	C228.798157,55.086613 232.189682,48.550842 238.461502,44.302277 
	C253.741562,33.951454 268.824036,36.033623 279.180878,47.107700 
	C290.188477,58.877586 291.564148,73.609680 280.117920,89.018623 
	C290.449097,95.050110 297.301117,103.970146 301.075470,115.828293 
	C309.777191,106.118553 314.420898,95.434494 316.122009,83.066856 
	C318.688721,64.405899 312.744629,48.391678 300.386047,35.264774 
	C288.473969,22.612165 273.305420,16.107052 255.226135,16.816578 
	C242.882462,17.301008 232.221634,21.327501 222.194992,28.075119 
	C221.297531,28.679094 218.664719,28.020220 217.771500,27.070107 
	C214.997055,24.118889 212.672638,20.744579 210.058578,17.386631 
	C218.072189,9.785436 227.756592,5.962621 237.889389,2.977499 
	C238.767578,2.718784 239.555450,2.153549 240.192642,1.365347 
	C251.354233,1.000000 262.708466,1.000000 274.531342,1.000000 
M284.008972,116.627167 
	C281.933533,113.514801 280.369263,109.848824 277.697662,107.382133 
	C263.058044,93.865234 241.566925,97.224716 231.286163,114.370522 
	C225.784134,123.546562 226.843597,128.087372 236.065323,131.466766 
	C253.568954,137.881134 270.585419,136.534012 287.367767,127.219414 
	C286.246826,123.829811 285.183929,120.615677 284.008972,116.627167 
M265.951233,57.561062 
	C260.307190,52.464828 254.748093,52.974777 248.867157,56.807312 
	C243.431290,60.349812 241.520645,67.857468 243.794586,73.444054 
	C246.298157,79.594749 250.898590,82.727180 257.417480,82.967033 
	C262.511993,83.154480 268.593933,78.751938 270.702850,73.652092 
	C273.129547,67.783859 271.953766,63.349506 265.951233,57.561062 
z"/>
<path fill="#1565C0" opacity="1.000000" stroke="none" 
	d="
M313.019257,324.004059 
	C289.146393,311.468994 276.640900,291.477814 272.426392,265.312317 
	C262.755005,265.312317 252.817978,265.312317 242.150970,265.312317 
	C239.319412,282.076935 233.132721,297.516327 220.577271,310.064056 
	C207.977066,322.656494 192.914337,329.707947 175.145081,332.149170 
	C175.145081,354.941803 175.145081,377.556946 175.145081,400.584595 
	C169.739563,400.584595 164.695999,400.584595 159.201782,400.584595 
	C159.201782,378.010071 159.201782,355.425446 159.201782,332.535309 
	C137.285721,329.219086 119.148422,319.870941 105.996368,302.021210 
	C95.294685,287.497101 89.868134,270.981903 91.201706,253.185684 
	C94.223343,212.862488 121.650040,187.052368 155.962769,182.308975 
	C176.485840,179.471878 196.048126,183.828354 213.068924,197.332275 
	C229.830276,210.630310 238.773148,227.926743 242.085281,248.721481 
	C252.413528,248.721481 262.502899,248.721481 272.557983,248.721481 
	C276.931793,211.522232 308.506531,177.818542 355.726105,182.022888 
	C387.914612,184.888901 418.211334,209.454102 422.739563,247.961212 
	C427.164917,285.593781 404.793579,324.407776 356.046082,332.541504 
	C356.046082,355.077179 356.046082,377.683868 356.046082,400.643127 
	C350.613220,400.643127 345.573486,400.643127 340.098450,400.643127 
	C340.098450,377.884552 340.098450,355.293091 340.098450,333.857361 
	C330.685913,330.416290 322.035583,327.253876 313.019257,324.004059 
M360.462708,221.867096 
	C368.727783,225.112183 373.921417,231.560974 376.591553,239.525909 
	C380.268280,250.493225 377.812866,260.894592 370.828979,270.123566 
	C380.989685,276.665497 387.980072,285.211792 391.431976,296.523682 
	C410.428345,277.233795 414.009918,243.596527 393.509216,219.278458 
	C370.012421,191.406342 331.793121,190.342270 306.691895,214.118790 
	C282.903259,236.651978 281.798706,273.115417 303.902863,296.253601 
	C307.725037,284.935699 314.642029,276.087891 324.594238,270.183777 
	C322.889557,267.085754 321.246826,264.476105 319.962036,261.700745 
	C314.199585,249.253036 317.880798,234.682556 328.422882,225.978516 
	C338.080566,218.004639 348.574158,217.460251 360.462708,221.867096 
M128.902954,284.393250 
	C133.634308,279.281189 138.365662,274.169159 143.195892,268.950287 
	C131.860550,254.007935 134.026871,239.448044 144.909821,228.106689 
	C156.760437,215.756851 172.721619,215.508591 185.996170,225.817963 
	C197.180832,234.504257 202.654312,251.307968 190.084473,270.263092 
	C199.962204,276.589539 206.976852,285.231110 210.509705,296.696472 
	C230.146957,275.583649 232.356918,242.567459 212.289490,219.036362 
	C188.615097,191.275757 150.628983,190.594376 125.806244,214.004898 
	C102.518272,235.967957 100.226303,271.889832 122.470612,296.006958 
	C124.436150,292.395233 126.450706,288.693420 128.902954,284.393250 
M352.667053,316.000305 
	C359.684479,314.025360 366.682617,311.977783 373.727600,310.106598 
	C377.175079,309.190918 377.544128,306.723450 376.877869,304.028015 
	C373.366058,289.820862 362.828949,281.079285 350.151031,280.181580 
	C334.842224,279.097656 324.101257,287.630829 319.435944,301.713257 
	C318.799683,303.633911 315.686096,307.204132 319.857178,309.380554 
	C329.864014,314.601929 340.424438,317.251282 352.667053,316.000305 
M139.602692,309.901917 
	C157.483124,318.304962 175.402405,318.974548 193.198288,309.816589 
	C194.593109,309.098785 196.077087,306.444275 195.829849,304.973999 
	C193.519363,291.233002 182.362991,280.810028 168.566559,280.147827 
	C151.936249,279.349609 140.350037,290.086731 137.252090,306.530701 
	C137.094254,307.368591 138.354645,308.473663 139.602692,309.901917 
M169.012665,263.927521 
	C169.768127,263.624237 170.511017,263.283783 171.281021,263.023499 
	C178.210526,260.681183 182.035934,254.275375 180.978195,246.759781 
	C180.098160,240.506805 173.352539,234.951767 166.527161,235.019699 
	C159.464935,235.089981 152.222168,241.316498 152.143936,249.599121 
	C152.064774,257.980194 161.135391,265.264160 169.012665,263.927521 
M333.865662,252.517624 
	C336.084473,260.262024 343.600647,265.427429 350.317535,263.823975 
	C358.417419,261.890381 363.401520,254.446045 361.960876,246.433197 
	C360.741699,239.652115 352.699188,234.008636 345.701508,235.023926 
	C338.278870,236.100845 332.509521,243.992722 333.865662,252.517624 
z"/>

</svg>