<svg version="1.1" id="Layer_1" xmlns="http://www.w3.org/2000/svg" xmlns:xlink="http://www.w3.org/1999/xlink" x="0px" y="0px"
	 width="100%" viewBox="0 0 512 512" enable-background="new 0 0 512 512" xml:space="preserve">
<path fill="#FFC125" opacity="1.000000" stroke="none"
	d="
M352.586029,306.155396 
	C363.080475,303.331268 372.514679,305.355286 379.066833,315.822510 
	C395.726532,342.436951 412.820221,368.779633 429.713989,395.247772 
	C433.104218,400.559418 436.678284,405.784760 439.643738,411.330048 
	C445.778778,422.802338 441.130341,440.475861 424.817139,441.995148 
	C420.408356,442.405731 415.986511,442.946533 411.569611,442.956512 
	C376.590851,443.035400 341.611725,443.035828 306.632965,442.955994 
	C302.215637,442.945923 297.768341,442.554443 293.390656,441.941620 
	C287.358490,441.097198 279.479034,431.240173 278.924927,424.971710 
	C278.379883,418.806244 280.017853,413.414886 283.267181,408.340942 
	C297.578064,385.994049 311.922089,363.668304 326.177643,341.286194 
	C331.558228,332.838318 336.426239,324.046021 342.138214,315.835327 
	C344.724335,312.117889 348.799530,309.436432 352.586029,306.155396 
M349.999908,358.498718 
	C350.334198,365.244995 350.513397,372.004333 351.079987,378.731049 
	C351.303375,381.383545 351.837982,384.310089 353.210388,386.497131 
	C355.427155,390.029724 359.044617,392.141357 363.368866,390.762451 
	C367.899933,389.317596 369.703613,385.626404 370.029510,380.985565 
	C370.579895,373.148438 371.393250,365.329865 371.953003,357.493256 
	C372.410187,351.092407 372.738770,344.679718 372.977966,338.266785 
	C373.232422,331.445312 366.669373,325.205902 359.812012,325.878723 
	C353.105896,326.536682 348.874603,330.696564 349.039948,338.322021 
	C349.178955,344.732910 349.666565,351.136261 349.999908,358.498718 
M348.556335,416.991364 
	C348.702789,417.451233 348.903809,417.901428 348.987244,418.372467 
	C349.831055,423.137726 354.477356,427.315674 359.712372,427.994019 
	C364.314758,428.590424 369.389130,425.434235 371.832733,420.455322 
	C374.119781,415.795502 373.054382,410.400635 369.093384,406.583832 
	C365.218201,402.849640 360.591858,402.323273 355.758057,404.714233 
	C350.859802,407.136993 348.736237,411.220428 348.556335,416.991364 
z"/>
<path fill="#1565C0" opacity="1.000000" stroke="none" 
	d="
M162.941528,250.745209 
	C161.835236,251.482162 160.765015,251.964142 159.694138,251.965607 
	C131.361008,252.004257 103.027809,251.994568 74.694618,251.982941 
	C74.043533,251.982681 73.392494,251.864807 71.826157,251.713196 
	C72.679619,213.484314 84.681526,179.224518 106.168465,148.698944 
	C129.152969,153.139008 151.748413,157.503922 174.684265,161.934586 
	C167.422913,190.554489 162.460983,220.057098 162.941528,250.745209 
z"/>
<path fill="#1565C0" opacity="1.000000" stroke="none" 
	d="
M339.319763,162.630859 
	C344.245636,161.172974 349.336731,160.016693 354.458679,159.019226 
	C372.055573,155.592377 389.663269,152.221146 407.842590,148.717758 
	C418.400757,162.997849 426.917877,179.383408 432.807129,196.949341 
	C438.699493,214.524460 442.363342,232.669174 442.253998,251.666122 
	C412.715790,251.666122 382.693085,251.666122 351.754608,251.666122 
	C350.764343,221.724945 347.693878,191.984390 339.319763,162.630859 
z"/>
<path fill="#1565C0" opacity="1.000000" stroke="none" 
	d="
M88.992287,335.967102 
	C78.666443,315.518250 70.245880,279.030365 72.472519,262.306549 
	C101.988693,262.306549 131.548523,262.306549 162.266617,262.306549 
	C163.026138,292.730682 166.629211,323.009399 174.626846,352.059998 
	C151.733994,356.487579 129.149643,360.855530 105.501167,365.429260 
	C100.316490,356.243256 94.699043,346.290497 88.992287,335.967102 
z"/>
<path fill="#1565C0" opacity="1.000000" stroke="none" 
	d="
M249.717834,346.977539 
	C234.214355,347.666992 219.176987,348.194641 204.160782,349.080902 
	C197.310104,349.485229 190.501205,350.597198 183.722061,351.382507 
	C175.355469,321.966919 172.086105,292.568909 171.576370,262.417053 
	C197.889908,262.417053 224.581635,262.417053 251.633865,262.417053 
	C251.747025,263.555359 251.981888,264.822784 251.982971,266.090393 
	C252.004608,291.580200 252.029251,317.070099 251.922287,342.559448 
	C251.916107,344.029419 250.794876,345.494751 249.717834,346.977539 
z"/>
<path fill="#1565C0" opacity="1.000000" stroke="none" 
	d="
M231.441467,166.706070 
	C238.343369,166.896515 244.811066,166.896515 251.637756,166.896515 
	C251.637756,195.333267 251.637756,223.345718 251.637756,251.679855 
	C225.245178,251.679855 198.897949,251.679855 172.070755,251.679855 
	C171.238693,221.565201 175.900558,192.361343 183.441071,163.031204 
	C199.246078,164.188995 215.126648,165.352310 231.441467,166.706070 
z"/>
<path fill="#1565C0" opacity="1.000000" stroke="none" 
	d="
M262.000000,215.000000 
	C262.000000,198.885300 262.000000,183.270599 262.000000,167.266983 
	C263.967621,167.165604 265.572662,167.090454 267.176758,166.999084 
	C284.805603,165.994827 302.474091,165.425262 320.049103,163.827728 
	C331.702881,162.768417 330.127594,160.676315 332.968842,174.039948 
	C335.513489,186.008575 338.341827,197.979004 339.807831,210.098282 
	C341.450439,223.677750 341.702576,237.425415 342.589447,251.574081 
	C315.458252,251.574081 289.107025,251.574081 262.000000,251.574081 
	C262.000000,239.646729 262.000000,227.573364 262.000000,215.000000 
z"/>
<path fill="#1565C0" opacity="1.000000" stroke="none" 
	d="
M293.000000,262.000000 
	C309.450348,262.000000 325.400665,262.000000 341.256744,262.000000 
	C341.256744,270.440247 341.347992,278.483124 341.215332,286.522369 
	C341.155762,290.133179 340.130920,293.783569 340.452850,297.333557 
	C341.107452,304.551910 336.194794,309.103577 332.973511,314.429657 
	C327.049072,324.225098 320.828705,333.841095 314.779694,343.561768 
	C311.510590,348.815155 307.878235,350.221619 300.930603,348.921356 
	C298.520782,348.470398 296.066101,348.144775 293.619141,348.026794 
	C283.250580,347.526978 272.877197,347.126831 262.259521,346.679901 
	C262.259521,318.570099 262.259521,290.667877 262.259521,262.000000 
	C272.343506,262.000000 282.421753,262.000000 293.000000,262.000000 
z"/>
<path fill="#1565C0" opacity="1.000000" stroke="none" 
	d="
M350.000244,292.809021 
	C350.476746,282.461273 350.953308,272.572723 351.446320,262.342743 
	C381.455261,262.342743 411.460052,262.342743 442.155945,262.342743 
	C441.766296,295.952148 432.127777,326.490204 414.507141,355.381653 
	C407.497467,344.354187 400.789307,333.768219 394.045227,323.205200 
	C390.617371,317.836182 387.614899,312.099030 383.560699,307.246338 
	C374.829010,296.795044 363.651947,293.401978 350.000305,297.950165 
	C350.000305,296.189362 350.000305,294.728790 350.000244,292.809021 
z"/>
<path fill="#1565C0" opacity="1.000000" stroke="none" 
	d="
M230.779297,433.344025 
	C215.208221,420.963257 205.126572,404.910248 196.968033,387.574371 
	C192.902588,378.935822 189.799683,369.844269 185.783844,359.758301 
	C208.521667,358.213409 229.839584,356.765015 251.611084,355.285797 
	C251.611084,384.797913 251.611084,413.330109 251.611084,442.589111 
	C248.084579,441.396057 244.425385,440.417389 240.990448,438.923187 
	C237.547287,437.425446 234.327927,435.413269 230.779297,433.344025 
z"/>
<path fill="#1565C0" opacity="1.000000" stroke="none" 
	d="
M322.005280,138.024963 
	C323.899506,143.350433 325.701935,148.294907 327.886597,154.288010 
	C305.253998,155.810165 283.946686,157.243195 262.282043,158.700256 
	C262.282043,128.947815 262.282043,100.379677 262.282043,71.653221 
	C275.984314,74.213326 287.012054,81.741196 295.417511,92.192665 
	C303.032562,101.661385 309.048340,112.459740 315.338135,122.930809 
	C318.084106,127.502296 319.754578,132.719818 322.005280,138.024963 
z"/>
<path fill="#1565C0" opacity="1.000000" stroke="none" 
	d="
M251.999954,84.022537 
	C251.999954,108.803642 251.999954,133.088760 251.999954,158.645096 
	C230.192230,157.203644 208.882294,155.795105 186.247253,154.298965 
	C188.044006,149.154770 189.421341,144.952118 190.972382,140.814590 
	C198.523621,120.671135 208.596390,102.039986 223.902191,86.613632 
	C231.382690,79.074234 241.701019,73.596062 251.999954,71.618889 
	C251.999954,75.632698 251.999954,79.579628 251.999954,84.022537 
z"/>
<path fill="#1565C0" opacity="1.000000" stroke="none" 
	d="
M130.391068,144.722687 
	C124.427460,143.279388 118.851173,142.026672 112.332214,140.562164 
	C141.143997,105.199509 177.904068,84.339371 220.917267,74.469925 
	C212.436890,86.394691 202.737534,98.061211 195.312088,111.029716 
	C187.889267,123.993629 182.741058,138.259933 176.244644,152.737747 
	C163.063950,150.440887 149.108673,148.006180 135.151703,145.581238 
	C133.699097,145.328842 132.236404,145.134521 130.391068,144.722687 
z"/>
<path fill="#1565C0" opacity="1.000000" stroke="none" 
	d="
M321.715973,116.318085 
	C314.017151,100.591347 303.243011,87.484131 291.142334,74.142021 
	C335.991486,83.993095 372.539337,105.231895 401.905670,140.909637 
	C379.525940,145.139648 358.112183,149.187088 337.393555,153.103119 
	C332.102905,140.635361 327.010773,128.635483 321.715973,116.318085 
z"/>
<path fill="#1565C0" opacity="1.000000" stroke="none" 
	d="
M179.292770,366.636353 
	C188.155411,394.253265 202.206818,418.361084 222.005768,439.200195 
	C178.168457,429.889893 141.552414,408.857117 112.155106,373.172577 
	C134.424652,368.935516 155.910355,364.847595 177.533585,360.733490 
	C178.137573,362.871643 178.618881,364.575500 179.292770,366.636353 
z"/>
<path fill="#1565C0" opacity="1.000000" stroke="none" 
	d="
M262.533356,356.519318 
	C269.797638,356.447357 276.721100,356.805969 283.648834,356.936188 
	C290.519592,357.065369 297.394684,356.964478 304.267853,356.964478 
	C304.429810,357.529816 304.591766,358.095184 304.753723,358.660522 
	C299.524658,366.917328 294.206207,375.119232 289.090088,383.445435 
	C283.281830,392.898102 277.313751,402.278534 272.060852,412.037964 
	C268.141266,419.320251 269.526428,426.998962 272.738251,434.360016 
	C273.251556,435.536377 273.657806,436.759521 274.340363,438.559052 
	C270.179901,439.981934 266.284271,441.314209 262.194397,442.712952 
	C262.194397,413.732513 262.194397,385.291168 262.533356,356.519318 
z"/>
<path fill="#000000" opacity="1.000000" stroke="none" 
	d="
M349.999878,358.020813 
	C349.666565,351.136261 349.178955,344.732910 349.039948,338.322021 
	C348.874603,330.696564 353.105896,326.536682 359.812012,325.878723 
	C366.669373,325.205902 373.232422,331.445312 372.977966,338.266785 
	C372.738770,344.679718 372.410187,351.092407 371.953003,357.493256 
	C371.393250,365.329865 370.579895,373.148438 370.029510,380.985565 
	C369.703613,385.626404 367.899933,389.317596 363.368866,390.762451 
	C359.044617,392.141357 355.427155,390.029724 353.210388,386.497131 
	C351.837982,384.310089 351.303375,381.383545 351.079987,378.731049 
	C350.513397,372.004333 350.334198,365.244995 349.999878,358.020813 
z"/>
<path fill="#000000" opacity="1.000000" stroke="none" 
	d="
M348.314484,416.671753 
	C348.736237,411.220428 350.859802,407.136993 355.758057,404.714233 
	C360.591858,402.323273 365.218201,402.849640 369.093384,406.583832 
	C373.054382,410.400635 374.119781,415.795502 371.832733,420.455322 
	C369.389130,425.434235 364.314758,428.590424 359.712372,427.994019 
	C354.477356,427.315674 349.831055,423.137726 348.987244,418.372467 
	C348.903809,417.901428 348.702789,417.451233 348.314484,416.671753 
z"/>
</svg>