<svg version="1.1" id="Layer_1" xmlns="http://www.w3.org/2000/svg" xmlns:xlink="http://www.w3.org/1999/xlink" x="0px" y="0px"
	 width="100%" viewBox="0 0 192 192" enable-background="new 0 0 192 192" xml:space="preserve">
<path fill="#0081C5" opacity="1.000000" stroke="none"
	d="
M129.000000,181.005966 
	C97.689568,181.005844 66.878593,180.917725 36.069328,181.107422 
	C31.805256,181.133682 30.707615,179.872391 30.924431,175.792084 
	C31.550737,164.005295 29.795073,152.104935 31.913130,140.403336 
	C36.383598,115.705391 58.337795,97.342430 83.351822,96.983650 
	C89.943245,96.889107 92.133835,99.776634 90.459496,106.608147 
	C87.291855,119.532471 84.157654,132.467529 80.730942,145.323853 
	C79.965408,148.195969 80.551918,149.928146 82.587074,151.844147 
	C86.829231,155.837936 90.925232,159.992584 94.963593,164.194275 
	C96.437325,165.727600 97.431686,165.876785 98.982994,164.261169 
	C103.365242,159.697266 107.841698,155.219025 112.406700,150.837967 
	C114.020554,149.289139 113.844780,147.824326 113.354691,145.903198 
	C110.065315,133.008865 106.883636,120.086937 103.695198,107.167000 
	C101.784813,99.425873 103.749077,96.919754 111.582664,97.002571 
	C138.532822,97.287476 162.734634,121.416565 162.958420,148.273376 
	C163.034760,157.432587 162.698639,166.606644 163.128067,175.746796 
	C163.348282,180.433548 161.639008,181.227997 157.476517,181.097336 
	C148.159225,180.804871 138.826462,181.005905 129.000000,181.005966 
z"/>
<path fill="#0081C5" opacity="1.000000" stroke="none" 
	d="
M132.819016,54.433472 
	C129.815048,69.562012 121.329033,79.720367 106.937500,83.731560 
	C93.084030,87.592766 80.516945,84.223961 70.413086,73.589096 
	C59.418125,62.016296 57.740650,44.041767 66.160324,30.104509 
	C74.504257,16.292627 91.231537,9.713059 106.857201,14.096658 
	C122.293968,18.427261 132.947739,32.440353 132.997375,48.502735 
	C133.003036,50.333477 132.920990,52.164486 132.819016,54.433472 
z"/>
</svg>