<svg version="1.1" id="Layer_1" xmlns="http://www.w3.org/2000/svg" xmlns:xlink="http://www.w3.org/1999/xlink" x="0px" y="0px"
	 width="100%" viewBox="0 0 512 512" enable-background="new 0 0 512 512" xml:space="preserve">
<path fill="#1565C0" opacity="1.000000" stroke="none" 
	d="
M284.000000,513.000000 
	C266.645782,513.000000 249.291550,513.000000 231.619827,512.601929 
	C230.630569,511.812378 229.992722,511.159485 229.282089,511.067200 
	C205.552643,507.985687 183.829147,499.382996 163.628616,486.852295 
	C146.968246,476.517609 132.392654,463.651550 120.021385,448.447937 
	C109.863914,435.965088 101.622864,422.191376 95.227936,407.436310 
	C86.749550,387.873962 81.441887,367.373474 81.127914,346.024872 
	C80.643036,313.055695 80.855644,280.073120 81.083656,247.098373 
	C81.156555,236.556976 85.785606,228.012650 95.398384,223.012177 
	C98.923721,221.178329 100.093658,219.102783 100.111526,215.120544 
	C100.218094,191.363373 100.428085,167.601364 101.069962,143.853577 
	C101.605751,124.030861 107.617012,105.429001 116.234825,87.824669 
	C125.710526,68.467865 138.882065,51.860291 155.488754,37.849640 
	C177.309235,19.440248 201.996933,7.625066 230.134293,2.911178 
	C230.843018,2.792443 231.381897,1.659779 232.000000,0.999998 
	C248.354233,1.000000 264.708466,1.000000 281.384949,1.396025 
	C282.212555,2.168609 282.665161,2.739396 283.230957,2.892883 
	C293.298462,5.623771 303.626709,7.615703 313.410767,11.126701 
	C340.611176,20.887529 362.916901,37.924751 380.678528,60.420021 
	C395.732086,79.485458 405.599274,101.313911 410.682678,125.230339 
	C412.943512,135.867355 412.866272,145.889771 405.056580,154.379639 
	C397.567169,162.521317 388.183289,164.607971 377.593140,162.199371 
	C364.747223,159.277725 359.278168,150.052505 357.020569,138.114929 
	C352.501190,114.217812 340.789642,94.229355 322.173523,78.992401 
	C301.442993,62.024792 277.448395,53.887722 250.155441,55.824024 
	C236.629028,56.783653 224.055054,60.347553 212.070801,66.090240 
	C198.414108,72.634338 186.925629,82.081795 177.432541,94.004913 
	C163.815445,111.107742 156.097305,130.606918 155.185379,152.271851 
	C154.324173,172.732208 154.995148,193.257309 155.013443,213.753906 
	C155.014587,215.033401 155.200912,216.312714 155.332962,217.999420 
	C157.745346,217.999420 159.879349,217.999435 162.013336,217.999435 
	C237.834167,217.999451 313.655029,217.977417 389.475800,218.043320 
	C395.243805,218.048325 401.117645,218.096176 406.758026,219.129730 
	C420.844910,221.710999 433.071106,231.812180 433.025299,248.719025 
	C432.937683,281.046783 433.231873,313.377686 432.853729,345.701263 
	C432.744843,355.009247 431.674194,364.472015 429.671936,373.561493 
	C422.968262,403.993713 409.446228,431.246948 388.758911,454.600220 
	C374.230164,471.001282 356.970123,484.154388 337.430481,494.226349 
	C321.295135,502.543488 304.233551,507.987549 286.372284,511.071625 
	C285.496674,511.222839 284.786987,512.335205 284.000000,513.000000 
M223.001724,334.562805 
	C222.454407,343.962433 225.732971,351.879578 232.096146,358.716339 
	C233.092194,359.786499 234.061066,361.687714 233.821884,362.978455 
	C231.144608,377.425781 228.309143,391.845490 225.338303,406.235901 
	C224.010132,412.669342 225.564087,414.924286 232.046341,414.993683 
	C235.211533,415.027588 238.377380,415.000061 241.542938,414.999969 
	C255.538025,414.999573 269.533234,415.031464 283.528137,414.980469 
	C288.180481,414.963501 290.613251,412.619446 289.882629,408.905914 
	C287.328064,395.922424 284.505554,382.987854 282.206299,369.960297 
	C281.532776,366.144043 280.604248,360.541565 282.613556,358.379517 
	C295.904877,344.077942 293.277954,318.301697 277.033112,307.481506 
	C266.076874,300.183929 254.641388,298.506317 242.605957,304.210876 
	C230.277359,310.054352 223.778580,319.985474 223.001724,334.562805 
z"/>

</svg>