<svg version="1.1" id="Layer_1" xmlns="http://www.w3.org/2000/svg" xmlns:xlink="http://www.w3.org/1999/xlink" x="0px" y="0px"
	 width="100%" viewBox="0 0 512 512" enable-background="new 0 0 512 512" xml:space="preserve">
<path fill="#1565C0" opacity="1.000000" stroke="none" 
	d="
M224.704742,1.242221 
	C246.020889,1.000000 267.041779,1.000000 288.531342,1.000000 
	C293.689575,2.951581 298.712982,2.110813 303.566223,2.697949 
	C320.900696,4.795046 337.287842,10.251245 353.421722,16.570757 
	C391.178192,31.359671 423.152374,54.581051 450.159515,84.535156 
	C480.299316,117.963783 500.032623,156.951050 509.961731,200.876633 
	C511.713623,208.626678 511.159729,216.619690 512.757690,224.704315 
	C513.000000,246.020889 513.000000,267.041779 513.000000,288.531342 
	C511.049042,293.688354 511.890015,298.710388 511.302673,303.562286 
	C509.204803,320.892059 503.725006,337.265198 497.440216,353.408600 
	C486.703186,380.988220 471.297546,405.843811 451.675354,427.845978 
	C414.150696,469.921936 367.952759,497.741333 312.704559,510.042542 
	C305.101410,511.735413 297.263031,511.382263 289.295471,512.757751 
	C267.979095,513.000000 246.958206,513.000000 225.468658,513.000000 
	C220.766907,511.183472 216.218338,511.800049 211.819656,511.400940 
	C195.890778,509.955566 180.855453,505.025330 166.014679,499.568298 
	C136.465012,488.702698 109.806328,472.701202 86.328827,451.817932 
	C64.563324,432.457550 46.016991,410.302032 31.612808,384.768738 
	C19.151333,362.679077 10.282459,339.296051 4.407616,314.681885 
	C2.432873,306.408173 2.748723,297.918793 1.242262,289.295471 
	C1.000000,267.645782 1.000000,246.291550 1.000000,224.468658 
	C2.897917,219.654922 2.141437,214.974991 2.680670,210.459900 
	C4.712671,193.445572 10.054214,177.337585 16.183487,161.476242 
	C26.985661,133.522369 42.519871,108.296608 62.419743,86.027512 
	C99.791306,44.206600 145.737915,16.433210 200.695572,4.096142 
	C208.493195,2.345708 216.540909,2.688733 224.704742,1.242221 
z"/>
<path fill="#FEFFFF" opacity="1.000000" stroke="none" 
	d="
M255.161240,188.161240 
	C261.173798,182.132919 267.000519,176.416458 272.663239,170.541901 
	C274.545654,168.589066 275.619110,167.819702 278.029694,170.256989 
	C299.812531,192.281128 321.736298,214.166321 343.708649,236.001785 
	C345.680145,237.960968 345.793762,238.987061 343.758728,241.017380 
	C302.611267,282.069122 261.569397,323.226685 220.431763,364.288269 
	C213.219879,371.486816 204.353638,376.031464 194.619934,378.871765 
	C175.158463,384.550568 155.688507,390.200684 136.205078,395.803558 
	C132.693359,396.813477 129.146255,397.715332 125.448555,396.293152 
	C119.213951,393.895264 115.531219,387.691956 117.421944,380.993774 
	C123.967415,357.805573 130.169815,334.504730 138.167450,311.755768 
	C140.394135,305.422028 144.185547,299.947388 148.962357,295.141388 
	C184.300995,259.586884 219.599976,223.992950 255.161240,188.161240 
z"/>
<path fill="#FEFFFF" opacity="1.000000" stroke="none" 
	d="
M348.577667,118.169922 
	C355.162201,120.161461 360.314911,123.625725 364.825592,128.251953 
	C372.027557,135.638351 379.440765,142.818329 386.675659,150.173141 
	C400.449432,164.175247 400.553131,183.809006 386.852020,197.907440 
	C378.966675,206.021439 370.824951,213.885986 362.911499,221.973236 
	C360.976654,223.950546 359.791809,224.702103 357.395630,222.282715 
	C335.615692,200.291962 313.719086,178.416351 291.773590,156.590576 
	C289.790680,154.618500 289.629822,153.478928 291.715607,151.452255 
	C300.307556,143.103897 308.569855,134.412720 317.251709,126.161446 
	C325.974457,117.871262 336.450714,115.343788 348.577667,118.169922 
z"/>
</svg>