<svg version="1.1" id="Layer_1" xmlns="http://www.w3.org/2000/svg" xmlns:xlink="http://www.w3.org/1999/xlink" x="0px" y="0px"
	 width="100%" viewBox="0 0 512 512" enable-background="new 0 0 512 512" xml:space="preserve">

<path fill="#DBE9EE" opacity="1.000000" stroke="none" 
	d="
M104.842316,105.001770 
	C106.516106,120.462502 115.845757,128.985809 131.217056,128.992996 
	C172.630356,129.012344 214.043655,129.024216 255.456924,128.986038 
	C269.958099,128.972672 279.501495,120.231979 281.529419,105.403137 
	C286.966675,105.004494 291.862946,105.007210 296.850708,105.379456 
	C297.661957,111.005730 300.916809,113.069679 305.955475,113.013931 
	C310.894562,112.959282 315.834686,113.002029 321.028687,113.002029 
	C321.028687,136.844894 321.023621,160.142227 321.031708,183.439545 
	C321.034180,190.500854 322.128723,191.926193 329.003418,194.451172 
	C329.001373,199.556732 328.999298,204.195984 328.997223,208.835236 
	C318.876068,208.890350 308.754761,208.926849 298.633820,209.007217 
	C292.071075,209.059326 289.068634,211.898972 289.020905,218.276306 
	C288.947571,228.069046 288.950592,237.863098 289.020111,247.655884 
	C289.064087,253.847656 292.006958,256.818390 298.136932,256.944122 
	C302.782715,257.039459 307.431824,256.973328 312.544067,257.516510 
	C313.012512,263.010681 313.016388,267.967407 313.020233,272.924133 
	C306.324707,275.329498 304.950531,277.449921 305.856110,284.368591 
	C308.316132,303.163696 316.180603,319.438446 328.946564,334.217621 
	C329.055328,347.250122 329.089569,359.507141 329.123779,371.764191 
	C317.486359,384.993805 309.058594,399.959442 306.503937,417.520203 
	C305.028717,427.660919 305.059998,438.020813 304.374481,448.896851 
	C298.923340,449.660492 290.845703,446.748260 288.479492,456.636505 
	C283.030182,456.993042 278.128082,456.989014 273.135376,456.616638 
	C271.356934,450.191315 269.673676,449.005341 262.517914,449.004517 
	C198.550690,448.997253 134.583450,449.000183 70.616226,449.000183 
	C68.845078,449.000183 67.073929,449.000214 65.249397,449.000214 
	C65.249397,336.762726 65.249397,225.069748 65.249397,112.999046 
	C70.260475,112.999046 75.053925,113.041672 79.846306,112.988312 
	C85.914207,112.920753 87.923775,111.186836 89.734756,105.023186 
	C95.069519,105.022415 99.955917,105.012093 104.842316,105.001770 
M99.515228,160.998718 
	C96.687279,160.998734 93.859200,160.980621 91.031418,161.002319 
	C83.886932,161.057144 81.045631,163.832932 81.027725,170.947723 
	C80.990463,185.752747 80.982018,200.558060 81.032196,215.363007 
	C81.055161,222.140869 83.963333,224.975601 90.819107,224.990997 
	C105.624153,225.024231 120.429382,225.025208 135.234421,224.990463 
	C142.085236,224.974396 144.962601,222.143799 144.984482,215.331161 
	C145.032013,200.526199 145.026779,185.720886 144.987350,170.915878 
	C144.968475,163.824005 142.120544,161.030380 134.944443,161.008240 
	C123.466423,160.972839 111.988220,160.998734 99.515228,160.998718 
M89.046387,416.987762 
	C104.525497,416.992126 120.004715,417.031464 135.483673,416.984222 
	C141.997223,416.964355 144.955841,414.033356 144.980667,407.552795 
	C145.038071,392.573181 145.032791,377.593079 144.983551,362.613434 
	C144.961868,356.016602 142.081100,353.040802 135.658157,353.017120 
	C120.512085,352.961212 105.365517,352.957794 90.219498,353.019440 
	C84.045792,353.044556 81.066139,356.032104 81.038826,362.251190 
	C80.972313,377.397186 81.041763,392.543701 81.003227,407.689880 
	C80.990494,412.696533 83.101913,415.935486 89.046387,416.987762 
M121.498810,256.962097 
	C111.015640,256.962677 100.532005,256.903717 90.049500,256.987610 
	C84.336433,257.033295 81.111168,259.938263 81.069420,265.386353 
	C80.948280,281.193298 80.945740,297.002533 81.078011,312.809326 
	C81.119507,317.769348 84.315308,320.907623 89.303146,320.945312 
	C105.110138,321.064850 120.919197,321.066071 136.726151,320.944031 
	C141.711334,320.905548 144.894409,317.762238 144.935898,312.792694 
	C145.067902,296.985870 145.061920,281.176758 144.947281,265.369720 
	C144.908829,260.070129 141.793182,257.132660 136.474731,256.994293 
	C131.818649,256.873108 127.157028,256.964569 121.498810,256.962097 
M184.501129,352.999817 
	C179.340393,353.001251 174.173141,352.839905 169.020599,353.046082 
	C162.831360,353.293762 159.204407,358.722107 161.449646,364.157715 
	C163.093903,368.138397 166.398300,369.044006 170.393799,369.034210 
	C197.196213,368.968384 223.998886,369.000244 250.801468,369.000031 
	C265.950745,368.999908 281.100342,369.055725 296.249176,368.972626 
	C303.081421,368.935150 306.945831,363.461273 304.423889,357.661407 
	C302.682983,353.657776 299.309875,352.964447 295.374603,352.969910 
	C258.750000,353.020752 222.125336,352.999908 184.501129,352.999817 
M210.500000,160.999222 
	C197.002380,160.999390 183.504425,160.944290 170.007263,161.023148 
	C163.308182,161.062286 159.260590,166.039322 161.265656,171.721924 
	C162.767288,175.977783 166.194229,177.048737 170.429977,177.038681 
	C200.591141,176.967163 230.752548,177.000793 260.913879,177.000732 
	C272.578491,177.000702 284.243164,176.979660 295.907684,177.010864 
	C299.986328,177.021790 303.025787,175.577438 304.367340,171.467453 
	C306.254028,165.687561 302.381897,161.026169 295.485107,161.016266 
	C267.490112,160.976074 239.495041,160.999344 210.500000,160.999222 
M265.865204,257.022308 
	C234.075516,257.002533 202.285828,256.966278 170.496140,256.977325 
	C164.414017,256.979462 161.125519,259.791718 161.035049,264.806671 
	C160.941025,270.018921 164.335815,272.981567 170.681107,272.987579 
	C201.638916,273.016937 232.596832,272.975647 263.554596,273.027008 
	C268.284454,273.034851 271.884094,271.435852 272.764893,266.529938 
	C273.613312,261.804382 271.501587,258.475861 265.865204,257.022308 
M172.687683,304.996979 
	C172.189026,304.996979 171.690323,304.993042 171.191696,304.997589 
	C164.352203,305.060120 160.950653,307.775757 161.033386,313.106018 
	C161.115524,318.397797 164.501602,320.990326 171.441956,320.998108 
	C185.902664,321.014282 200.363419,321.018433 214.824097,320.996185 
	C221.589615,320.985748 225.057388,318.159241 224.965363,312.833710 
	C224.876328,307.679382 221.532654,305.012665 215.028946,305.003174 
	C201.233109,304.983093 187.437241,304.997009 172.687683,304.996979 
M199.499695,417.001251 
	C205.151978,416.999573 210.805649,417.075073 216.456177,416.974365 
	C222.032700,416.875031 225.125229,413.867188 225.052780,408.856567 
	C224.983841,404.088287 221.937302,401.067169 216.677811,401.037415 
	C201.051361,400.949036 185.423843,400.950897 169.797302,401.027588 
	C164.193100,401.055084 160.977982,404.080658 160.921936,408.954773 
	C160.862167,414.152313 163.995560,416.959900 170.072128,416.989014 
	C179.547836,417.034424 189.023895,417.001160 199.499695,417.001251 
M194.500000,225.003052 
	C201.664612,225.002777 208.829971,225.066101 215.993591,224.981628 
	C221.517258,224.916504 224.868790,221.787964 224.838562,216.966019 
	C224.808487,212.168777 221.442627,209.045486 215.903809,209.021225 
	C200.575165,208.954117 185.245804,208.949005 169.917206,209.022476 
	C164.080444,209.050461 160.767975,212.257141 160.919830,217.358200 
	C161.065857,222.263779 164.204788,224.954330 170.006805,224.990616 
	C177.837585,225.039597 185.668915,225.002945 194.500000,225.003052 
M272.323151,214.362976 
	C271.106079,210.748474 268.460175,209.073166 264.776794,209.025208 
	C259.462067,208.956009 254.139557,208.850281 248.831848,209.056107 
	C243.807327,209.250946 240.756287,212.661179 240.917923,217.400482 
	C241.073196,221.952774 244.053909,224.849808 249.011200,224.977707 
	C253.825424,225.101898 258.645782,225.047150 263.462677,224.996338 
	C270.301086,224.924210 272.913544,222.064590 272.323151,214.362976 
M256.516846,417.003021 
	C259.671509,416.986603 262.841766,417.162354 265.977051,416.907654 
	C270.404419,416.547913 273.171295,413.289734 273.051727,408.860229 
	C272.931488,404.406830 270.611084,401.439575 266.200745,401.156250 
	C260.247894,400.773804 254.242416,400.829285 248.279129,401.111328 
	C243.592972,401.333008 240.739029,404.893127 240.924698,409.453918 
	C241.101990,413.808411 243.980209,416.701691 248.575714,416.968231 
	C250.892822,417.102661 253.223724,416.998993 256.516846,417.003021 
M262.252960,304.993439 
	C257.931488,304.994263 253.607635,304.905090 249.289154,305.019165 
	C244.129593,305.155426 241.006531,308.236237 241.000122,312.967224 
	C240.993713,317.695038 244.093582,320.808411 249.262543,320.966187 
	C253.912201,321.108185 258.569611,321.033203 263.223206,320.999146 
	C269.635834,320.952148 272.993408,318.159637 272.978882,312.957184 
	C272.964417,307.778320 269.782074,305.193115 262.252960,304.993439 
z"/>
<path fill="#33B8ED" opacity="1.000000" stroke="none" 
	d="
M313.380981,273.009155 
	C313.016388,267.967407 313.012512,263.010681 313.006287,257.596436 
	C341.151794,257.079834 369.299622,257.002899 397.447510,256.967316 
	C419.749847,256.939117 442.052277,256.961609 464.319397,256.961609 
	C469.954376,298.226898 448.487366,331.577087 411.137909,343.994873 
	C409.405151,344.571014 407.147400,344.609436 406.028961,345.764648 
	C404.001678,347.858551 401.345428,350.625122 401.381683,353.074890 
	C401.417999,355.525879 404.160126,358.203674 406.238220,360.252502 
	C407.395782,361.393738 409.637970,361.398132 411.356354,362.012817 
	C440.519257,372.444611 459.012573,392.131805 464.130219,423.240295 
	C465.005920,428.563385 466.871490,432.543304 472.859558,432.815765 
	C472.921631,434.091400 472.994263,434.918060 472.996643,435.744965 
	C473.008575,439.907257 473.002106,444.069641 473.002106,448.617249 
	C422.509003,448.617249 372.131134,448.617249 321.404755,448.617249 
	C319.219116,425.734924 322.789337,404.232269 338.494141,385.952728 
	C348.870575,373.875061 361.785736,365.795197 376.983490,361.165649 
	C379.265381,360.470551 381.827850,359.351074 383.302917,357.614471 
	C387.169037,353.062866 384.651306,346.936218 378.149994,345.018890 
	C367.985687,342.021271 358.557648,337.655579 350.215271,331.077240 
	C334.517059,318.698547 324.629242,302.873383 321.832245,282.899506 
	C321.135254,277.921936 319.554688,273.793243 313.380981,273.009155 
M379.500000,272.963409 
	C369.005127,272.963562 358.510162,272.936035 348.015411,272.972626 
	C339.569855,273.002045 336.561401,276.854279 338.430298,285.127045 
	C344.200348,310.668243 366.747925,328.859985 392.758972,328.960205 
	C418.989716,329.061279 441.767883,310.842987 447.580322,285.113342 
	C449.445709,276.855927 446.428772,272.989166 437.971985,272.974365 
	C418.814697,272.940826 399.657349,272.963531 379.500000,272.963409 
M374.018982,391.449524 
	C362.965607,400.236359 351.890808,408.996460 340.872070,417.826569 
	C337.633240,420.422058 335.878387,423.704132 337.611755,427.910889 
	C339.326172,432.071655 342.803467,433.009033 346.975037,433.000427 
	C377.614868,432.937073 408.254913,432.936890 438.894745,433.000885 
	C443.051422,433.009583 446.523529,432.124969 448.301849,427.977661 
	C450.114075,423.751343 448.334564,420.447388 445.148163,417.858246 
	C434.699768,409.368408 424.360870,400.722382 413.592682,392.653107 
	C401.156036,383.333649 388.009277,382.272278 374.018982,391.449524 
z"/>
<path fill="#33B8EE" opacity="1.000000" stroke="none"
	d="
M273.225952,456.984955 
	C278.128082,456.989014 283.030182,456.993042 288.388123,456.997070 
	C288.843903,467.463562 288.843903,477.930054 288.843903,488.698303 
	C283.633301,488.698303 278.543793,488.698303 273.034668,488.698303 
	C272.119354,481.767334 267.175354,480.887695 261.048706,480.896851 
	C188.914948,481.004700 116.780968,480.966919 44.647057,480.965088 
	C35.077862,480.964844 33.003605,478.868408 33.003513,469.202698 
	C33.002338,343.759674 33.002319,218.316635 33.003540,92.873604 
	C33.003635,82.982506 35.015102,80.999908 45.023663,80.998993 
	C56.018669,80.997978 67.013687,81.008057 78.008682,80.995575 
	C85.865166,80.986664 87.470482,79.766319 89.630981,72.001900 
	C90.855194,72.001900 92.170830,72.001900 93.486458,72.001900 
	C97.125954,72.001900 100.765457,72.001900 104.982819,72.001900 
	C104.982819,82.881775 104.982819,93.478737 104.912567,104.538734 
	C99.955917,105.012093 95.069519,105.022415 89.640640,104.653625 
	C88.390900,99.023148 85.186440,96.925156 80.111908,96.984497 
	C73.946564,97.056595 67.779747,97.000648 61.613564,97.001282 
	C50.974648,97.002380 49.004204,98.936882 49.004154,109.391632 
	C49.003643,223.715958 49.003830,338.040283 49.003891,452.364594 
	C49.003895,453.531158 48.976292,454.698578 49.010002,455.864166 
	C49.187943,462.016388 52.107754,465.009003 58.343098,465.011932 
	C126.837677,465.043976 195.332275,465.041870 263.826874,465.014832 
	C269.918182,465.012421 271.862915,463.235779 273.225952,456.984955 
z"/>
<path fill="#33B9EE" opacity="1.000000" stroke="none" 
	d="
M183.000000,113.000542 
	C165.333694,113.000496 148.167374,113.018761 131.001114,112.991791 
	C123.692291,112.980301 121.038162,110.346382 121.010307,103.103111 
	C120.973778,93.603462 120.959183,84.103302 121.015961,74.603844 
	C121.057091,67.721260 123.824562,65.033447 130.804504,65.008057 
	C140.137512,64.974098 149.470856,65.027199 158.803848,64.990196 
	C165.896957,64.962074 168.504990,62.546532 169.029114,55.672722 
	C170.033981,42.493526 180.144394,32.927914 192.990463,33.002480 
	C205.954773,33.077736 215.938278,42.536613 216.954910,55.707581 
	C217.470627,62.389088 220.082428,64.942818 226.703751,64.983604 
	C236.369843,65.043152 246.036819,64.958099 255.702942,65.014793 
	C262.046814,65.052002 264.921143,67.833565 264.975800,74.104187 
	C265.061462,83.936562 265.042908,93.770500 264.983734,103.603264 
	C264.944061,110.198784 262.155579,112.974495 255.498489,112.985054 
	C231.499039,113.023132 207.499512,113.000343 183.000000,113.000542 
z"/>
<path fill="#33B9EE" opacity="1.000000" stroke="none" 
	d="
M296.759186,105.009926 
	C291.862946,105.007210 286.966675,105.004494 281.614868,105.001823 
	C281.159302,94.210815 281.159302,83.419769 281.159302,72.316116 
	C286.333954,72.316116 291.408142,72.316116 296.503418,72.316116 
	C298.618439,79.866043 300.146423,80.992050 308.434143,80.997551 
	C319.916931,81.005165 331.399719,80.982803 342.882477,81.005569 
	C350.405670,81.020485 352.985931,83.619011 352.990845,91.265533 
	C353.010162,121.387024 352.996429,151.508545 353.000366,181.630051 
	C353.001465,189.903839 354.036469,191.302734 361.832520,193.582611 
	C361.832520,198.511200 361.832520,203.462662 361.832520,208.979828 
	C351.098511,208.979828 340.510651,208.979828 329.460022,208.907532 
	C328.999298,204.195984 329.001373,199.556732 329.342712,194.327545 
	C335.020996,192.780533 337.058624,189.531708 337.035065,184.196320 
	C336.920898,158.365326 337.009033,132.533524 336.968506,106.702095 
	C336.957794,99.870117 334.057343,97.053421 327.179840,97.007019 
	C320.180634,96.959793 313.180573,96.953896 306.181488,97.010330 
	C300.109253,97.059280 298.120209,98.800827 296.759186,105.009926 
z"/>
<path fill="#33B8EE" opacity="1.000000" stroke="none"
	d="
M459.999847,480.966400 
	C408.205933,480.966400 356.912018,480.966400 305.316040,480.966400 
	C305.316040,475.595367 305.316040,470.541412 305.316040,465.240784 
	C363.698761,465.240784 421.965027,465.240784 480.617004,465.240784 
	C480.617004,470.160736 480.617004,475.221954 480.617004,480.966400 
	C474.021057,480.966400 467.260437,480.966400 459.999847,480.966400 
z"/>
<path fill="#33B8EE" opacity="1.000000" stroke="none"
	d="
M429.000000,224.998535 
	C446.470154,224.998535 463.440308,224.998535 480.703125,224.998535 
	C480.703125,230.358948 480.703125,235.414230 480.703125,240.719818 
	C422.302521,240.719818 364.036255,240.719818 305.384155,240.719818 
	C305.384155,235.774109 305.384155,230.712982 305.384155,224.998535 
	C346.325989,224.998535 387.412994,224.998535 429.000000,224.998535 
z"/>
<path fill="#32B6EB" opacity="1.000000" stroke="none"
	d="
M329.409302,371.638550 
	C329.089569,359.507141 329.055328,347.250122 329.079102,334.535980 
	C337.188782,340.563934 345.240448,347.048981 352.658112,353.023376 
	C345.471283,358.810028 337.583038,365.161469 329.409302,371.638550 
z"/>
<path fill="#000000" opacity="1.000000" stroke="none"
	d="
M273.135376,456.616638 
	C271.862915,463.235779 269.918182,465.012421 263.826874,465.014832 
	C195.332275,465.041870 126.837677,465.043976 58.343098,465.011932 
	C52.107754,465.009003 49.187943,462.016388 49.010002,455.864166 
	C48.976292,454.698578 49.003895,453.531158 49.003891,452.364594 
	C49.003830,338.040283 49.003643,223.715958 49.004154,109.391632 
	C49.004204,98.936882 50.974648,97.002380 61.613564,97.001282 
	C67.779747,97.000648 73.946564,97.056595 80.111908,96.984497 
	C85.186440,96.925156 88.390900,99.023148 89.192276,104.644073 
	C87.923775,111.186836 85.914207,112.920753 79.846306,112.988312 
	C75.053925,113.041672 70.260475,112.999046 65.249397,112.999046 
	C65.249397,225.069748 65.249397,336.762726 65.249397,449.000214 
	C67.073929,449.000214 68.845078,449.000183 70.616226,449.000183 
	C134.583450,449.000183 198.550690,448.997253 262.517914,449.004517 
	C269.673676,449.005341 271.356934,450.191315 273.135376,456.616638 
z"/>
<path fill="#010101" opacity="1.000000" stroke="none"
	d="
M100.012665,160.998718 
	C111.988220,160.998734 123.466423,160.972839 134.944443,161.008240 
	C142.120544,161.030380 144.968475,163.824005 144.987350,170.915878 
	C145.026779,185.720886 145.032013,200.526199 144.984482,215.331161 
	C144.962601,222.143799 142.085236,224.974396 135.234421,224.990463 
	C120.429382,225.025208 105.624153,225.024231 90.819107,224.990997 
	C83.963333,224.975601 81.055161,222.140869 81.032196,215.363007 
	C80.982018,200.558060 80.990463,185.752747 81.027725,170.947723 
	C81.045631,163.832932 83.886932,161.057144 91.031418,161.002319 
	C93.859200,160.980621 96.687279,160.998734 100.012665,160.998718 
M128.996307,196.488251 
	C128.996307,190.079086 128.996307,183.669922 128.996307,177.316254 
	C117.998581,177.316254 107.632614,177.316254 97.310074,177.316254 
	C97.310074,187.998062 97.310074,198.363144 97.310074,208.683014 
	C107.995293,208.683014 118.360939,208.683014 128.996307,208.683014 
	C128.996307,204.741119 128.996307,201.111160 128.996307,196.488251 
z"/>
<path fill="#010101" opacity="1.000000" stroke="none"
	d="
M88.608536,416.967255 
	C83.101913,415.935486 80.990494,412.696533 81.003227,407.689880 
	C81.041763,392.543701 80.972313,377.397186 81.038826,362.251190 
	C81.066139,356.032104 84.045792,353.044556 90.219498,353.019440 
	C105.365517,352.957794 120.512085,352.961212 135.658157,353.017120 
	C142.081100,353.040802 144.961868,356.016602 144.983551,362.613434 
	C145.032791,377.593079 145.038071,392.573181 144.980667,407.552795 
	C144.955841,414.033356 141.997223,416.964355 135.483673,416.984222 
	C120.004715,417.031464 104.525497,416.992126 88.608536,416.967255 
M96.993378,385.498413 
	C96.993378,390.576843 96.993378,395.655273 96.993378,400.683411 
	C107.994987,400.683411 118.360390,400.683411 128.681442,400.683411 
	C128.681442,390.001373 128.681442,379.636414 128.681442,369.316284 
	C117.997978,369.316284 107.632240,369.316284 96.993378,369.316284 
	C96.993378,374.584656 96.993378,379.543121 96.993378,385.498413 
z"/>
<path fill="#010101" opacity="1.000000" stroke="none" 
	d="
M121.998337,256.962097 
	C127.157028,256.964569 131.818649,256.873108 136.474731,256.994293 
	C141.793182,257.132660 144.908829,260.070129 144.947281,265.369720 
	C145.061920,281.176758 145.067902,296.985870 144.935898,312.792694 
	C144.894409,317.762238 141.711334,320.905548 136.726151,320.944031 
	C120.919197,321.066071 105.110138,321.064850 89.303146,320.945312 
	C84.315308,320.907623 81.119507,317.769348 81.078011,312.809326 
	C80.945740,297.002533 80.948280,281.193298 81.069420,265.386353 
	C81.111168,259.938263 84.336433,257.033295 90.049500,256.987610 
	C100.532005,256.903717 111.015640,256.962677 121.998337,256.962097 
M105.547394,273.002380 
	C102.786743,273.002380 100.026093,273.002380 97.302704,273.002380 
	C97.302704,283.982910 97.302704,294.347839 97.302704,304.690125 
	C107.980560,304.690125 118.346100,304.690125 128.687561,304.690125 
	C128.687561,294.014557 128.687561,283.649475 128.687561,273.002380 
	C121.100151,273.002380 113.818863,273.002380 105.547394,273.002380 
z"/>
<path fill="#000000" opacity="1.000000" stroke="none"
	d="
M185.000916,352.999817 
	C222.125336,352.999908 258.750000,353.020752 295.374603,352.969910 
	C299.309875,352.964447 302.682983,353.657776 304.423889,357.661407 
	C306.945831,363.461273 303.081421,368.935150 296.249176,368.972626 
	C281.100342,369.055725 265.950745,368.999908 250.801468,369.000031 
	C223.998886,369.000244 197.196213,368.968384 170.393799,369.034210 
	C166.398300,369.044006 163.093903,368.138397 161.449646,364.157715 
	C159.204407,358.722107 162.831360,353.293762 169.020599,353.046082 
	C174.173141,352.839905 179.340393,353.001251 185.000916,352.999817 
z"/>
<path fill="#010101" opacity="1.000000" stroke="none"
	d="
M211.000000,160.999222 
	C239.495041,160.999344 267.490112,160.976074 295.485107,161.016266 
	C302.381897,161.026169 306.254028,165.687561 304.367340,171.467453 
	C303.025787,175.577438 299.986328,177.021790 295.907684,177.010864 
	C284.243164,176.979660 272.578491,177.000702 260.913879,177.000732 
	C230.752548,177.000793 200.591141,176.967163 170.429977,177.038681 
	C166.194229,177.048737 162.767288,175.977783 161.265656,171.721924 
	C159.260590,166.039322 163.308182,161.062286 170.007263,161.023148 
	C183.504425,160.944290 197.002380,160.999390 211.000000,160.999222 
z"/>
<path fill="#010202" opacity="1.000000" stroke="none"
	d="
M296.850708,105.379456 
	C298.120209,98.800827 300.109253,97.059280 306.181488,97.010330 
	C313.180573,96.953896 320.180634,96.959793 327.179840,97.007019 
	C334.057343,97.053421 336.957794,99.870117 336.968506,106.702095 
	C337.009033,132.533524 336.920898,158.365326 337.035065,184.196320 
	C337.058624,189.531708 335.020996,192.780533 329.342682,193.861237 
	C322.128723,191.926193 321.034180,190.500854 321.031708,183.439545 
	C321.023621,160.142227 321.028687,136.844894 321.028687,113.002029 
	C315.834686,113.002029 310.894562,112.959282 305.955475,113.013931 
	C300.916809,113.069679 297.661957,111.005730 296.850708,105.379456 
z"/>
<path fill="#010101" opacity="1.000000" stroke="none"
	d="
M266.294373,257.063477 
	C271.501587,258.475861 273.613312,261.804382 272.764893,266.529938 
	C271.884094,271.435852 268.284454,273.034851 263.554596,273.027008 
	C232.596832,272.975647 201.638916,273.016937 170.681107,272.987579 
	C164.335815,272.981567 160.941025,270.018921 161.035049,264.806671 
	C161.125519,259.791718 164.414017,256.979462 170.496140,256.977325 
	C202.285828,256.966278 234.075516,257.002533 266.294373,257.063477 
z"/>
<path fill="#020202" opacity="1.000000" stroke="none"
	d="
M173.164520,304.996979 
	C187.437241,304.997009 201.233109,304.983093 215.028946,305.003174 
	C221.532654,305.012665 224.876328,307.679382 224.965363,312.833710 
	C225.057388,318.159241 221.589615,320.985748 214.824097,320.996185 
	C200.363419,321.018433 185.902664,321.014282 171.441956,320.998108 
	C164.501602,320.990326 161.115524,318.397797 161.033386,313.106018 
	C160.950653,307.775757 164.352203,305.060120 171.191696,304.997589 
	C171.690323,304.993042 172.189026,304.996979 173.164520,304.996979 
z"/>
<path fill="#010101" opacity="1.000000" stroke="none"
	d="
M198.999756,417.001251 
	C189.023895,417.001160 179.547836,417.034424 170.072128,416.989014 
	C163.995560,416.959900 160.862167,414.152313 160.921936,408.954773 
	C160.977982,404.080658 164.193100,401.055084 169.797302,401.027588 
	C185.423843,400.950897 201.051361,400.949036 216.677811,401.037415 
	C221.937302,401.067169 224.983841,404.088287 225.052780,408.856567 
	C225.125229,413.867188 222.032700,416.875031 216.456177,416.974365 
	C210.805649,417.075073 205.151978,416.999573 198.999756,417.001251 
z"/>
<path fill="#020202" opacity="1.000000" stroke="none"
	d="
M194.000000,225.003052 
	C185.668915,225.002945 177.837585,225.039597 170.006805,224.990616 
	C164.204788,224.954330 161.065857,222.263779 160.919830,217.358200 
	C160.767975,212.257141 164.080444,209.050461 169.917206,209.022476 
	C185.245804,208.949005 200.575165,208.954117 215.903809,209.021225 
	C221.442627,209.045486 224.808487,212.168777 224.838562,216.966019 
	C224.868790,221.787964 221.517258,224.916504 215.993591,224.981628 
	C208.829971,225.066101 201.664612,225.002777 194.000000,225.003052 
z"/>
<path fill="#030304" opacity="1.000000" stroke="none"
	d="
M272.468079,214.728424 
	C272.913544,222.064590 270.301086,224.924210 263.462677,224.996338 
	C258.645782,225.047150 253.825424,225.101898 249.011200,224.977707 
	C244.053909,224.849808 241.073196,221.952774 240.917923,217.400482 
	C240.756287,212.661179 243.807327,209.250946 248.831848,209.056107 
	C254.139557,208.850281 259.462067,208.956009 264.776794,209.025208 
	C268.460175,209.073166 271.106079,210.748474 272.468079,214.728424 
z"/>
<path fill="#020202" opacity="1.000000" stroke="none"
	d="
M256.032623,417.003021 
	C253.223724,416.998993 250.892822,417.102661 248.575714,416.968231 
	C243.980209,416.701691 241.101990,413.808411 240.924698,409.453918 
	C240.739029,404.893127 243.592972,401.333008 248.279129,401.111328 
	C254.242416,400.829285 260.247894,400.773804 266.200745,401.156250 
	C270.611084,401.439575 272.931488,404.406830 273.051727,408.860229 
	C273.171295,413.289734 270.404419,416.547913 265.977051,416.907654 
	C262.841766,417.162354 259.671509,416.986603 256.032623,417.003021 
z"/>
<path fill="#030304" opacity="1.000000" stroke="none"
	d="
M262.714294,304.993469 
	C269.782074,305.193115 272.964417,307.778320 272.978882,312.957184 
	C272.993408,318.159637 269.635834,320.952148 263.223206,320.999146 
	C258.569611,321.033203 253.912201,321.108185 249.262543,320.966187 
	C244.093582,320.808411 240.993713,317.695038 241.000122,312.967224 
	C241.006531,308.236237 244.129593,305.155426 249.289154,305.019165 
	C253.607635,304.905090 257.931488,304.994263 262.714294,304.993469 
z"/>
<path fill="#000202" opacity="1.000000" stroke="none"
	d="
M380.000000,272.963409 
	C399.657349,272.963531 418.814697,272.940826 437.971985,272.974365 
	C446.428772,272.989166 449.445709,276.855927 447.580322,285.113342 
	C441.767883,310.842987 418.989716,329.061279 392.758972,328.960205 
	C366.747925,328.859985 344.200348,310.668243 338.430298,285.127045 
	C336.561401,276.854279 339.569855,273.002045 348.015411,272.972626 
	C358.510162,272.936035 369.005127,272.963562 380.000000,272.963409 
M363.075012,299.401031 
	C373.991333,311.076416 387.337311,315.487579 402.844208,311.678711 
	C415.074310,308.674683 423.591858,300.794342 429.340424,289.269348 
	C404.839996,289.269348 381.028320,289.269348 356.184387,289.269348 
	C358.620453,292.914917 360.608948,295.890717 363.075012,299.401031 
z"/>
<path fill="#010203" opacity="1.000000" stroke="none"
	d="
M374.334229,391.259033 
	C388.009277,382.272278 401.156036,383.333649 413.592682,392.653107 
	C424.360870,400.722382 434.699768,409.368408 445.148163,417.858246 
	C448.334564,420.447388 450.114075,423.751343 448.301849,427.977661 
	C446.523529,432.124969 443.051422,433.009583 438.894745,433.000885 
	C408.254913,432.936890 377.614868,432.937073 346.975037,433.000427 
	C342.803467,433.009033 339.326172,432.071655 337.611755,427.910889 
	C335.878387,423.704132 337.633240,420.422058 340.872070,417.826569 
	C351.890808,408.996460 362.965607,400.236359 374.334229,391.259033 
M400.151428,403.196899 
	C397.277039,402.554779 394.149567,400.847931 391.573303,401.460205 
	C381.920380,403.754395 374.485687,409.978821 366.620056,416.573853 
	C384.565277,416.573853 401.633942,416.573853 418.702606,416.573853 
	C418.820618,416.248871 418.938629,415.923889 419.056641,415.598938 
	C412.970947,411.596039 406.885284,407.593170 400.151428,403.196899 
z"/>
<path fill="#fff" opacity="1.000000" stroke="none"
	d="
M128.996307,196.984726 
	C128.996307,201.111160 128.996307,204.741119 128.996307,208.683014 
	C118.360939,208.683014 107.995293,208.683014 97.310074,208.683014 
	C97.310074,198.363144 97.310074,187.998062 97.310074,177.316254 
	C107.632614,177.316254 117.998581,177.316254 128.996307,177.316254 
	C128.996307,183.669922 128.996307,190.079086 128.996307,196.984726 
z"/>
<path fill="#fff" opacity="1.000000" stroke="none"
	d="
M96.993378,385.000000 
	C96.993378,379.543121 96.993378,374.584656 96.993378,369.316284 
	C107.632240,369.316284 117.997978,369.316284 128.681442,369.316284 
	C128.681442,379.636414 128.681442,390.001373 128.681442,400.683411 
	C118.360390,400.683411 107.994987,400.683411 96.993378,400.683411 
	C96.993378,395.655273 96.993378,390.576843 96.993378,385.000000 
z"/>
<path fill="#fff" opacity="1.000000" stroke="none"
	d="
M106.042480,273.002380 
	C113.818863,273.002380 121.100151,273.002380 128.687561,273.002380 
	C128.687561,283.649475 128.687561,294.014557 128.687561,304.690125 
	C118.346100,304.690125 107.980560,304.690125 97.302704,304.690125 
	C97.302704,294.347839 97.302704,283.982910 97.302704,273.002380 
	C100.026093,273.002380 102.786743,273.002380 106.042480,273.002380 
z"/>
<path fill="#33B8ED" opacity="1.000000" stroke="none"
	d="
M362.836243,299.133789 
	C360.608948,295.890717 358.620453,292.914917 356.184387,289.269348 
	C381.028320,289.269348 404.839996,289.269348 429.340424,289.269348 
	C423.591858,300.794342 415.074310,308.674683 402.844208,311.678711 
	C387.337311,315.487579 373.991333,311.076416 362.836243,299.133789 
z"/>
<path fill="#32B6EB" opacity="1.000000" stroke="none" 
	d="
M400.475525,403.393585 
	C406.885284,407.593170 412.970947,411.596039 419.056641,415.598938 
	C418.938629,415.923889 418.820618,416.248871 418.702606,416.573853 
	C401.633942,416.573853 384.565277,416.573853 366.620056,416.573853 
	C374.485687,409.978821 381.920380,403.754395 391.573303,401.460205 
	C394.149567,400.847931 397.277039,402.554779 400.475525,403.393585 
z"/>
</svg>