<svg version="1.1" id="Layer_1" xmlns="http://www.w3.org/2000/svg" xmlns:xlink="http://www.w3.org/1999/xlink" x="0px" y="0px"
	 width="100%" viewBox="0 0 512 512" enable-background="new 0 0 512 512" xml:space="preserve">

<path fill="#1565C0" opacity="1.000000" stroke="none" 
	d="
M34.468662,513.000000 
	C32.215481,509.735840 30.244482,506.555176 28.729286,503.170441 
	C28.027786,501.603394 28.029501,499.638947 28.026615,497.854156 
	C27.985676,472.533020 27.810057,447.210022 28.051054,421.891113 
	C28.298517,395.892914 37.051811,373.386658 56.748688,355.774780 
	C66.189812,347.333069 77.684158,342.585876 89.287613,337.995453 
	C116.800690,327.111023 144.247849,316.059937 171.715607,305.061157 
	C175.501175,303.545349 179.129364,301.427673 183.046204,300.493561 
	C190.378967,298.744812 196.491898,300.548615 200.020950,310.468048 
	C207.782333,332.283600 215.671341,354.053741 223.555634,375.974091 
	C228.635559,370.067352 228.957672,364.514709 225.744400,357.206299 
	C223.407715,351.891602 220.938202,346.337067 220.231644,340.676758 
	C219.273010,332.997192 224.531372,328.083191 232.399460,328.033142 
	C248.890869,327.928253 265.391327,327.692535 281.872650,328.113708 
	C292.351562,328.381470 296.245575,336.762207 293.030182,345.721771 
	C290.995758,351.390564 287.506226,356.709198 286.469299,362.506805 
	C285.707977,366.763336 287.867065,371.542267 288.724670,376.088379 
	C289.281097,376.025330 289.837555,375.962311 290.393982,375.899261 
	C293.920135,366.164734 297.470459,356.438904 300.966339,346.693542 
	C305.429810,334.250854 309.714203,321.742004 314.332977,309.357605 
	C317.670868,300.407806 324.100342,298.008698 333.301422,301.657135 
	C367.326813,315.149048 401.626556,327.990295 435.323364,342.256714 
	C461.667297,353.410126 477.966217,374.002930 483.826324,402.117340 
	C485.558838,410.429382 485.812988,419.144653 485.909088,427.684540 
	C486.175232,451.336853 485.989197,474.994141 486.009491,498.649445 
	C486.014374,504.335327 484.277588,509.132568 479.688049,512.716187 
	C331.645782,513.000000 183.291550,513.000000 34.468662,513.000000 
M338.550903,474.999451 
	C362.513031,474.999420 386.475128,475.008850 410.437256,474.993591 
	C417.910248,474.988831 421.985382,470.845062 421.996521,463.276672 
	C422.012909,452.127686 422.003632,440.978607 422.000244,429.829590 
	C421.997620,421.258026 417.381500,416.103424 408.925018,416.054260 
	C383.965363,415.909180 359.003845,415.917542 334.044067,416.051544 
	C326.053131,416.094421 321.019043,421.612976 321.004700,429.664276 
	C320.985443,440.480469 320.995026,451.296753 321.002319,462.112976 
	C321.005890,467.423218 322.772980,472.073364 327.883698,474.071808 
	C330.789948,475.208282 334.322449,474.743286 338.550903,474.999451 
z"/>
<path fill="#1565C0" opacity="1.000000" stroke="none" 
	d="
M284.531342,0.999998 
	C285.731506,1.668796 286.367523,2.751130 287.208649,2.945417 
	C304.525696,6.945354 320.204041,14.370775 334.485168,24.934458 
	C350.071320,36.463421 358.461212,52.360134 363.004028,70.733513 
	C365.945862,82.631920 367.039062,94.672020 367.125092,106.933365 
	C367.203735,118.139420 368.295746,129.340897 369.067322,140.535706 
	C369.145996,141.677414 369.792053,143.193878 370.678589,143.801895 
	C379.414398,149.793228 383.168335,158.931641 383.720520,168.593369 
	C384.811462,187.682068 380.005798,205.378525 366.596191,219.830322 
	C361.716003,225.089752 355.420349,228.075272 348.536713,230.113571 
	C346.392059,230.748642 343.975769,232.587524 342.948975,234.540497 
	C334.761627,250.112900 326.117340,265.432068 314.016998,278.307495 
	C303.425873,289.576996 289.441223,295.212250 274.565125,297.794647 
	C258.840851,300.524323 243.000687,299.920593 227.653168,294.814178 
	C211.875931,289.564819 199.000519,280.295105 190.088150,266.115173 
	C183.557175,255.724167 177.521301,245.022949 171.138489,234.536850 
	C170.108109,232.844101 168.616455,230.549240 167.002716,230.230530 
	C150.156296,226.903458 140.637711,215.450760 135.482864,200.436523 
	C132.340012,191.282440 130.569290,181.285751 130.312653,171.611038 
	C130.024765,160.758499 133.661255,150.598679 143.367157,143.834641 
	C145.605988,142.274414 146.566666,132.383316 144.789185,129.568451 
	C138.415527,119.474953 136.666367,108.560555 137.894348,96.766525 
	C139.317993,83.093246 143.114883,70.574081 151.705688,59.549229 
	C159.443390,49.619183 169.730499,44.594711 181.788544,43.204784 
	C185.399475,42.788551 186.993179,41.564415 188.906448,38.771244 
	C202.027786,19.615549 219.779099,7.235046 242.825272,2.883069 
	C243.380890,2.778150 243.837662,2.149859 244.170273,1.382838 
	C257.354218,1.000000 270.708466,1.000000 284.531342,0.999998 
z"/>

</svg>