<svg version="1.1" id="Layer_1" xmlns="http://www.w3.org/2000/svg" xmlns:xlink="http://www.w3.org/1999/xlink" x="0px" y="0px"
	 width="100%" viewBox="0 0 512 512" enable-background="new 0 0 512 512" xml:space="preserve">
<path fill="#ECF4FF" opacity="1.000000" stroke="none" 
	d="
M76.000000,513.000000 
	C75.555557,513.000000 75.111107,513.000000 74.630524,512.695496 
	C69.966743,509.446228 68.974091,504.953186 68.975052,499.857025 
	C69.004608,342.291870 68.985115,184.726730 69.036369,27.161585 
	C69.039261,18.281414 67.275467,9.049034 73.000000,1.000000 
	C195.022644,1.000000 317.045288,1.000000 439.236938,1.302788 
	C443.643860,4.504785 445.082123,8.469748 445.076385,13.618713 
	C444.972565,106.917122 445.001678,200.215668 444.994202,293.514191 
	C444.994049,295.343048 444.895721,297.171936 444.521118,299.066101 
	C431.833130,311.754333 419.467255,324.377258 407.044434,336.534149 
	C406.973297,324.249146 406.997986,312.429932 406.927246,300.611298 
	C406.894989,295.217896 404.636810,292.319946 399.816925,292.244568 
	C387.834595,292.057159 375.844543,292.051575 363.863312,292.276306 
	C359.779999,292.352875 356.954651,294.543488 356.967682,299.171478 
	C357.043610,326.134186 357.110443,353.096924 357.102600,380.376953 
	C356.914948,381.114899 356.805084,381.535522 356.367676,382.020477 
	C354.050629,383.529327 352.071228,384.987915 350.069977,386.415833 
	C341.373444,392.620880 332.670563,398.817078 323.891296,404.551483 
	C323.796753,383.630737 323.809937,363.174866 323.748169,342.719269 
	C323.728424,336.188751 321.516296,334.022919 315.081238,334.005981 
	C304.104919,333.977051 293.128418,333.978180 282.152100,334.005463 
	C275.626892,334.021667 273.818176,335.776520 273.809265,342.243805 
	C273.778595,364.529144 273.771332,386.814636 273.809357,409.099976 
	C273.824646,418.072418 273.980194,427.044617 273.964508,436.269836 
	C273.620758,437.017242 273.384430,437.511749 272.814148,438.126404 
	C261.826508,443.833649 251.172775,449.420746 240.411713,454.549652 
	C240.276764,437.800934 240.261154,421.510345 240.215897,405.219879 
	C240.196350,398.181152 238.436905,396.366302 231.412735,396.328400 
	C220.773834,396.270996 210.134323,396.288116 199.495224,396.320862 
	C192.289902,396.343048 190.271713,398.335510 190.262863,405.503113 
	C190.236191,427.113953 190.198090,448.725220 190.325790,470.335327 
	C190.340897,472.893616 191.356598,475.445953 191.548462,478.046936 
	C184.399185,480.754150 177.751984,483.884216 170.795105,485.992493 
	C145.936310,493.525879 120.989067,500.770142 96.037071,507.991699 
	C89.428444,509.904388 82.682762,511.343475 76.000000,513.000000 
M206.956421,153.168350 
	C206.781372,124.937134 182.498703,101.114204 154.087875,102.032776 
	C121.711288,102.576111 98.217812,131.626389 104.004471,163.962173 
	C108.581024,189.535797 133.895309,208.537048 159.787399,205.833618 
	C186.818054,203.011307 207.597534,180.145432 206.956421,153.168350 
M175.318924,39.211006 
	C174.825821,43.951035 173.992798,48.684975 173.907745,53.432316 
	C173.708084,64.579750 176.978790,67.742409 188.053406,67.743607 
	C234.035233,67.748566 280.017059,67.746094 325.998871,67.743645 
	C327.331299,67.743576 328.673553,67.812111 329.994446,67.680267 
	C336.277344,67.053116 339.952240,63.164165 340.130371,56.870544 
	C340.234039,53.208202 340.202423,49.539921 340.146545,45.875607 
	C340.028564,38.135201 336.199738,34.233364 328.338104,34.225529 
	C280.856934,34.178192 233.375153,34.112755 185.895538,34.389599 
	C182.522034,34.409271 179.164230,37.117420 175.318924,39.211006 
M374.500000,109.940277 
	C385.994934,109.939880 397.490021,109.973053 408.984741,109.924347 
	C414.392639,109.901428 418.810516,106.330727 418.891296,102.092827 
	C418.972015,97.857368 414.538177,94.165901 409.201660,94.037392 
	C408.202698,94.013336 407.202637,94.032257 406.203094,94.032249 
	C358.057709,94.032173 309.912354,94.032104 261.766968,94.032593 
	C260.434235,94.032608 259.097198,93.970222 257.769592,94.054306 
	C253.150116,94.346878 249.014313,98.229683 249.111282,102.126244 
	C249.204437,105.869316 253.188858,109.578369 257.552551,109.911758 
	C258.877838,110.013016 260.216797,109.939682 261.549500,109.939705 
	C298.866333,109.940369 336.183167,109.940178 374.500000,109.940277 
M364.500000,179.005386 
	C379.494110,179.004791 394.490662,179.140152 409.479950,178.870529 
	C411.993469,178.825317 415.298492,177.676041 416.738708,175.852783 
	C418.155823,174.058685 418.472382,170.539581 417.827454,168.170624 
	C416.831390,164.511978 413.415436,163.864777 409.751312,163.871109 
	C365.102325,163.948425 320.453094,163.919937 275.803955,163.920074 
	C269.473114,163.920090 263.099213,163.503906 256.833191,164.142899 
	C254.412994,164.389709 251.269608,166.531128 250.141083,168.690277 
	C247.311676,174.103561 251.496872,178.985291 258.541168,178.990982 
	C293.527435,179.019287 328.513733,179.004807 364.500000,179.005386 
M252.227661,142.558807 
	C254.284683,143.061020 256.341003,143.998428 258.398804,144.001740 
	C308.876923,144.083069 359.355164,144.074844 409.833405,144.051224 
	C415.312897,144.048660 418.624481,141.264374 418.806061,136.761734 
	C418.992981,132.127121 415.477081,129.012451 409.794830,129.009872 
	C359.316589,128.986938 308.838074,128.936829 258.360870,129.164749 
	C255.717957,129.176682 252.490585,131.072021 250.592865,133.086700 
	C247.945770,135.896942 249.221451,139.269836 252.227661,142.558807 
M225.500000,249.044968 
	C190.521332,249.044998 155.542648,249.032028 120.564041,249.076889 
	C118.433342,249.079620 116.254662,249.337601 114.183601,249.833206 
	C110.595261,250.691895 109.052589,253.364059 109.008636,256.858429 
	C108.961868,260.576416 110.582489,263.291718 114.386467,264.251434 
	C115.819695,264.613007 117.315315,264.923645 118.782745,264.924774 
	C164.254974,264.959656 209.727234,264.966858 255.199463,264.935028 
	C260.535217,264.931305 264.970978,261.123962 264.887421,256.890961 
	C264.803741,252.651718 260.389191,249.090073 254.982544,249.060623 
	C245.488617,249.008881 235.994202,249.045486 225.500000,249.044968 
M112.203949,285.424652 
	C108.992180,288.087708 108.059494,291.392761 109.709991,295.229431 
	C111.322327,298.977417 114.697258,299.096771 118.147247,299.093719 
	C146.291458,299.068756 174.435730,299.080414 202.579971,299.080231 
	C220.399109,299.080139 238.218552,299.024231 256.037140,299.122711 
	C259.735718,299.143158 262.536316,298.216400 264.012848,294.560760 
	C266.394928,288.663208 262.539917,284.007507 255.116501,284.004639 
	C209.652725,283.987183 164.188919,283.983307 118.725212,284.039124 
	C116.787712,284.041473 114.850983,284.677124 112.203949,285.424652 
M157.059341,471.188171 
	C157.058884,465.531555 157.102203,459.874542 157.045624,454.218475 
	C156.988785,448.536804 154.950684,446.348297 149.222763,446.291473 
	C137.744339,446.177551 126.263092,446.173279 114.784836,446.295502 
	C109.423927,446.352570 107.171310,448.698120 107.089783,453.946838 
	C106.996780,459.934753 107.007233,465.925964 107.085106,471.914276 
	C107.157211,477.459747 109.405014,479.732025 115.062943,479.774567 
	C126.375496,479.859589 137.689377,479.842529 149.002243,479.781494 
	C154.816818,479.750092 156.526123,478.033020 157.059341,471.188171 
M284.500000,198.045013 
	C276.338867,198.045151 268.177704,198.032455 260.016602,198.049561 
	C253.775848,198.062637 249.201462,201.370071 249.110916,205.890518 
	C249.020233,210.417877 253.647430,213.945587 259.795349,213.948547 
	C288.276031,213.962265 316.756775,213.966995 345.237396,213.925598 
	C347.038300,213.922989 348.878418,213.665833 350.631073,213.241409 
	C354.435455,212.320190 356.059448,209.588409 356.012665,205.861725 
	C355.968689,202.359848 354.416748,199.719009 350.841370,198.830200 
	C348.933655,198.355957 346.924164,198.083145 344.959595,198.077850 
	C325.139862,198.024414 305.319885,198.045197 284.500000,198.045013 
M151.500000,334.024323 
	C165.660614,334.021210 179.821869,334.093567 193.981506,333.974304 
	C198.991547,333.932129 202.057648,330.810303 202.034607,326.380798 
	C202.008896,321.436584 199.531631,318.972839 194.088303,318.961182 
	C168.432693,318.906281 142.776871,318.915924 117.121361,318.985596 
	C115.546173,318.989868 113.764511,319.362579 112.440063,320.162140 
	C109.199142,322.118591 107.638885,325.702667 109.405190,328.706665 
	C110.829918,331.129761 114.328865,333.642334 117.026299,333.779419 
	C128.159592,334.345154 139.338104,334.021301 151.500000,334.024323 
z"/>
<path fill="#CBE2FF" opacity="1.000000" stroke="none"
	d="
M444.045898,506.142548 
	C442.501892,508.233093 440.957886,510.323639 439.706970,512.707092 
	C318.979095,513.000000 197.958206,513.000000 76.468658,513.000000 
	C82.682762,511.343475 89.428444,509.904388 96.037071,507.991699 
	C120.989067,500.770142 145.936310,493.525879 170.795105,485.992493 
	C177.751984,483.884216 184.399185,480.754150 191.776794,478.118713 
	C192.365128,478.144592 192.828934,478.260925 193.085175,478.555176 
	C194.921249,479.211395 196.498703,479.874573 198.081253,479.886993 
	C209.504333,479.976685 220.928619,479.972748 232.352142,479.918549 
	C238.143784,479.891083 240.520554,477.667511 240.610184,471.814178 
	C240.691071,466.532745 240.331100,461.244507 240.258362,455.723083 
	C240.407135,455.327209 240.463104,455.167542 240.519043,455.007874 
	C251.172775,449.420746 261.826508,443.833649 272.881714,438.591064 
	C273.296783,449.749268 273.233307,460.563843 273.354645,471.376343 
	C273.420502,477.240479 275.664093,479.834625 280.795410,479.885834 
	C292.772644,480.005310 304.752228,479.975250 316.730133,479.898041 
	C321.084137,479.869995 323.804657,477.372406 323.806488,473.126465 
	C323.816071,451.010010 323.590454,428.893494 323.591034,406.588745 
	C323.813599,405.939178 323.891785,405.477844 323.970001,405.016479 
	C332.670563,398.817078 341.373444,392.620880 350.069977,386.415833 
	C352.071228,384.987915 354.050629,383.529327 356.450806,382.487610 
	C356.881165,412.371094 356.888062,441.851837 356.930206,471.332489 
	C356.939697,477.965485 358.904938,479.892426 365.581879,479.910675 
	C376.408173,479.940247 387.234680,479.936493 398.061035,479.912628 
	C404.926483,479.897491 406.967133,477.865143 406.973083,471.019623 
	C406.990326,451.199005 407.003448,431.378357 406.973572,411.557770 
	C406.936676,387.077209 406.854980,362.596741 406.868958,337.836975 
	C406.997253,337.371887 407.049286,337.186035 407.101349,337.000183 
	C419.467255,324.377258 431.833130,311.754333 444.521118,299.066101 
	C444.895081,299.452515 444.946960,299.904266 444.664886,301.013306 
	C444.220673,302.653229 444.013947,303.635834 444.013947,304.618469 
	C444.014008,371.793152 444.030670,438.967865 444.045898,506.142548 
z"/>
<path fill="#E49543" opacity="1.000000" stroke="none" 
	d="
M206.849335,154.046295 
	C207.597534,180.145432 186.818054,203.011307 159.787399,205.833618 
	C133.895309,208.537048 108.581024,189.535797 104.004471,163.962173 
	C98.217812,131.626389 121.711288,102.576111 154.536224,102.548752 
	C154.990189,116.169540 154.980759,129.274384 155.007095,142.379150 
	C155.022797,150.197250 158.772186,153.972183 166.540146,153.992874 
	C179.976501,154.028656 193.412933,154.030319 206.849335,154.046295 
z"/>
<path fill="#B7E446" opacity="1.000000" stroke="none" 
	d="
M406.792664,338.116211 
	C406.854980,362.596741 406.936676,387.077209 406.973572,411.557770 
	C407.003448,431.378357 406.990326,451.199005 406.973083,471.019623 
	C406.967133,477.865143 404.926483,479.897491 398.061035,479.912628 
	C387.234680,479.936493 376.408173,479.940247 365.581879,479.910675 
	C358.904938,479.892426 356.939697,477.965485 356.930206,471.332489 
	C356.888062,441.851837 356.881165,412.371094 356.778381,382.423279 
	C356.805084,381.535522 356.914948,381.114899 357.434143,380.315308 
	C362.233673,376.454071 366.754700,373.123047 370.989288,369.460815 
	C382.986481,359.085144 394.866486,348.573975 406.792664,338.116211 
z"/>
<path fill="#4476C9" opacity="1.000000" stroke="none" 
	d="
M175.559021,38.893242 
	C179.164230,37.117420 182.522034,34.409271 185.895538,34.389599 
	C233.375153,34.112755 280.856934,34.178192 328.338104,34.225529 
	C336.199738,34.233364 340.028564,38.135201 340.146545,45.875607 
	C340.202423,49.539921 340.234039,53.208202 340.130371,56.870544 
	C339.952240,63.164165 336.277344,67.053116 329.994446,67.680267 
	C328.673553,67.812111 327.331299,67.743576 325.998871,67.743645 
	C280.017059,67.746094 234.035233,67.748566 188.053406,67.743607 
	C176.978790,67.742409 173.708084,64.579750 173.907745,53.432316 
	C173.992798,48.684975 174.825821,43.951035 175.559021,38.893242 
z"/>
<path fill="#DD5891" opacity="1.000000" stroke="none" 
	d="
M323.891296,404.551483 
	C323.891785,405.477844 323.813599,405.939178 323.195984,406.671539 
	C321.064697,407.788086 319.401245,408.522827 317.892792,409.497528 
	C309.308044,415.044586 300.869049,420.826050 292.161896,426.171722 
	C286.319305,429.758728 280.114594,432.755859 274.071899,436.016907 
	C273.980194,427.044617 273.824646,418.072418 273.809357,409.099976 
	C273.771332,386.814636 273.778595,364.529144 273.809265,342.243805 
	C273.818176,335.776520 275.626892,334.021667 282.152100,334.005463 
	C293.128418,333.978180 304.104919,333.977051 315.081238,334.005981 
	C321.516296,334.022919 323.728424,336.188751 323.748169,342.719269 
	C323.809937,363.174866 323.796753,383.630737 323.891296,404.551483 
z"/>
<path fill="#E49645" opacity="1.000000" stroke="none" 
	d="
M192.828934,478.260925 
	C192.828934,478.260925 192.365128,478.144592 192.136795,478.072815 
	C191.356598,475.445953 190.340897,472.893616 190.325790,470.335327 
	C190.198090,448.725220 190.236191,427.113953 190.262863,405.503113 
	C190.271713,398.335510 192.289902,396.343048 199.495224,396.320862 
	C210.134323,396.288116 220.773834,396.270996 231.412735,396.328400 
	C238.436905,396.366302 240.196350,398.181152 240.215897,405.219879 
	C240.261154,421.510345 240.276764,437.800934 240.411728,454.549683 
	C240.463104,455.167542 240.407135,455.327209 239.884644,455.766998 
	C230.116379,460.441467 220.804993,464.815552 211.516251,469.237213 
	C205.270554,472.210266 199.056915,475.250671 192.828934,478.260925 
z"/>
<path fill="#C8EA74" opacity="1.000000" stroke="none" 
	d="
M406.868958,337.836945 
	C394.866486,348.573975 382.986481,359.085144 370.989288,369.460815 
	C366.754700,373.123047 362.233673,376.454071 357.511902,379.997986 
	C357.110443,353.096924 357.043610,326.134186 356.967682,299.171478 
	C356.954651,294.543488 359.779999,292.352875 363.863312,292.276306 
	C375.844543,292.051575 387.834595,292.057159 399.816925,292.244568 
	C404.636810,292.319946 406.894989,295.217896 406.927246,300.611298 
	C406.997986,312.429932 406.973297,324.249146 407.044434,336.534149 
	C407.049286,337.186035 406.997253,337.371887 406.868958,337.836945 
z"/>
<path fill="#DA397E" opacity="1.000000" stroke="none" 
	d="
M273.964508,436.269806 
	C280.114594,432.755859 286.319305,429.758728 292.161896,426.171722 
	C300.869049,420.826050 309.308044,415.044586 317.892792,409.497528 
	C319.401245,408.522827 321.064697,407.788086 323.051636,406.859741 
	C323.590454,428.893494 323.816071,451.010010 323.806488,473.126465 
	C323.804657,477.372406 321.084137,479.869995 316.730133,479.898041 
	C304.752228,479.975250 292.772644,480.005310 280.795410,479.885834 
	C275.664093,479.834625 273.420502,477.240479 273.354645,471.376343 
	C273.233307,460.563843 273.296783,449.749268 273.215668,438.470886 
	C273.384430,437.511749 273.620758,437.017242 273.964508,436.269806 
z"/>
<path fill="#A0C8FB" opacity="1.000000" stroke="none" 
	d="
M374.000000,109.940201 
	C336.183167,109.940178 298.866333,109.940369 261.549500,109.939705 
	C260.216797,109.939682 258.877838,110.013016 257.552551,109.911758 
	C253.188858,109.578369 249.204437,105.869316 249.111282,102.126244 
	C249.014313,98.229683 253.150116,94.346878 257.769592,94.054306 
	C259.097198,93.970222 260.434235,94.032608 261.766968,94.032593 
	C309.912354,94.032104 358.057709,94.032173 406.203094,94.032249 
	C407.202637,94.032257 408.202698,94.013336 409.201660,94.037392 
	C414.538177,94.165901 418.972015,97.857368 418.891296,102.092827 
	C418.810516,106.330727 414.392639,109.901428 408.984741,109.924347 
	C397.490021,109.973053 385.994934,109.939880 374.000000,109.940201 
z"/>
<path fill="#9DC6FB" opacity="1.000000" stroke="none" 
	d="
M364.000000,179.005386 
	C328.513733,179.004807 293.527435,179.019287 258.541168,178.990982 
	C251.496872,178.985291 247.311676,174.103561 250.141083,168.690277 
	C251.269608,166.531128 254.412994,164.389709 256.833191,164.142899 
	C263.099213,163.503906 269.473114,163.920090 275.803955,163.920074 
	C320.453094,163.919937 365.102325,163.948425 409.751312,163.871109 
	C413.415436,163.864777 416.831390,164.511978 417.827454,168.170624 
	C418.472382,170.539581 418.155823,174.058685 416.738708,175.852783 
	C415.298492,177.676041 411.993469,178.825317 409.479950,178.870529 
	C394.490662,179.140152 379.494110,179.004791 364.000000,179.005386 
z"/>
<path fill="#9DC6FB" opacity="1.000000" stroke="none" 
	d="
M251.924194,142.299774 
	C249.221451,139.269836 247.945770,135.896942 250.592865,133.086700 
	C252.490585,131.072021 255.717957,129.176682 258.360870,129.164749 
	C308.838074,128.936829 359.316589,128.986938 409.794830,129.009872 
	C415.477081,129.012451 418.992981,132.127121 418.806061,136.761734 
	C418.624481,141.264374 415.312897,144.048660 409.833405,144.051224 
	C359.355164,144.074844 308.876923,144.083069 258.398804,144.001740 
	C256.341003,143.998428 254.284683,143.061020 251.924194,142.299774 
z"/>
<path fill="#A0C8FB" opacity="1.000000" stroke="none" 
	d="
M226.000000,249.045029 
	C235.994202,249.045486 245.488617,249.008881 254.982544,249.060623 
	C260.389191,249.090073 264.803741,252.651718 264.887421,256.890961 
	C264.970978,261.123962 260.535217,264.931305 255.199463,264.935028 
	C209.727234,264.966858 164.254974,264.959656 118.782745,264.924774 
	C117.315315,264.923645 115.819695,264.613007 114.386467,264.251434 
	C110.582489,263.291718 108.961868,260.576416 109.008636,256.858429 
	C109.052589,253.364059 110.595261,250.691895 114.183601,249.833206 
	C116.254662,249.337601 118.433342,249.079620 120.564041,249.076889 
	C155.542648,249.032028 190.521332,249.044998 226.000000,249.045029 
z"/>
<path fill="#9DC6FB" opacity="1.000000" stroke="none" 
	d="
M112.558922,285.221222 
	C114.850983,284.677124 116.787712,284.041473 118.725212,284.039124 
	C164.188919,283.983307 209.652725,283.987183 255.116501,284.004639 
	C262.539917,284.007507 266.394928,288.663208 264.012848,294.560760 
	C262.536316,298.216400 259.735718,299.143158 256.037140,299.122711 
	C238.218552,299.024231 220.399109,299.080139 202.579971,299.080231 
	C174.435730,299.080414 146.291458,299.068756 118.147247,299.093719 
	C114.697258,299.096771 111.322327,298.977417 109.709991,295.229431 
	C108.059494,291.392761 108.992180,288.087708 112.558922,285.221222 
z"/>
<path fill="#C8EA74" opacity="1.000000" stroke="none" 
	d="
M206.902878,153.607330 
	C193.412933,154.030319 179.976501,154.028656 166.540146,153.992874 
	C158.772186,153.972183 155.022797,150.197250 155.007095,142.379150 
	C154.980759,129.274384 154.990189,116.169540 154.969437,102.607742 
	C182.498703,101.114204 206.781372,124.937134 206.902878,153.607330 
z"/>
<path fill="#4476C9" opacity="1.000000" stroke="none" 
	d="
M157.058563,471.646149 
	C156.526123,478.033020 154.816818,479.750092 149.002243,479.781494 
	C137.689377,479.842529 126.375496,479.859589 115.062943,479.774567 
	C109.405014,479.732025 107.157211,477.459747 107.085106,471.914276 
	C107.007233,465.925964 106.996780,459.934753 107.089783,453.946838 
	C107.171310,448.698120 109.423927,446.352570 114.784836,446.295502 
	C126.263092,446.173279 137.744339,446.177551 149.222763,446.291473 
	C154.950684,446.348297 156.988785,448.536804 157.045624,454.218475 
	C157.102203,459.874542 157.058884,465.531555 157.058563,471.646149 
z"/>
<path fill="#A0C8FB" opacity="1.000000" stroke="none" 
	d="
M285.000000,198.045074 
	C305.319885,198.045197 325.139862,198.024414 344.959595,198.077850 
	C346.924164,198.083145 348.933655,198.355957 350.841370,198.830200 
	C354.416748,199.719009 355.968689,202.359848 356.012665,205.861725 
	C356.059448,209.588409 354.435455,212.320190 350.631073,213.241409 
	C348.878418,213.665833 347.038300,213.922989 345.237396,213.925598 
	C316.756775,213.966995 288.276031,213.962265 259.795349,213.948547 
	C253.647430,213.945587 249.020233,210.417877 249.110916,205.890518 
	C249.201462,201.370071 253.775848,198.062637 260.016602,198.049561 
	C268.177704,198.032455 276.338867,198.045151 285.000000,198.045074 
z"/>
<path fill="#9DC6FB" opacity="1.000000" stroke="none" 
	d="
M151.000000,334.024353 
	C139.338104,334.021301 128.159592,334.345154 117.026299,333.779419 
	C114.328865,333.642334 110.829918,331.129761 109.405190,328.706665 
	C107.638885,325.702667 109.199142,322.118591 112.440063,320.162140 
	C113.764511,319.362579 115.546173,318.989868 117.121361,318.985596 
	C142.776871,318.915924 168.432693,318.906281 194.088303,318.961182 
	C199.531631,318.972839 202.008896,321.436584 202.034607,326.380798 
	C202.057648,330.810303 198.991547,333.932129 193.981506,333.974304 
	C179.821869,334.093567 165.660614,334.021210 151.000000,334.024353 
z"/>
<path fill="#D8EAFF" opacity="1.000000" stroke="none" 
	d="
M444.436035,505.927124 
	C444.030670,438.967865 444.014008,371.793152 444.013947,304.618469 
	C444.013947,303.635834 444.220673,302.653229 444.587067,301.347778 
	C444.895386,314.335968 444.988281,327.647034 444.992645,340.958069 
	C445.010040,394.217194 445.001526,447.476318 444.992737,500.735443 
	C444.992462,502.394196 444.884155,504.052979 444.436035,505.927124 
z"/>
<path fill="#E28629" opacity="1.000000" stroke="none" 
	d="
M193.085175,478.555176 
	C199.056915,475.250671 205.270554,472.210266 211.516251,469.237213 
	C220.804993,464.815552 230.116379,460.441467 239.791840,456.003204 
	C240.331100,461.244507 240.691071,466.532745 240.610184,471.814178 
	C240.520554,477.667511 238.143784,479.891083 232.352142,479.918549 
	C220.928619,479.972748 209.504333,479.976685 198.081253,479.886993 
	C196.498703,479.874573 194.921249,479.211395 193.085175,478.555176 
z"/>
</svg>