<svg version="1.1" id="Layer_1" xmlns="http://www.w3.org/2000/svg" xmlns:xlink="http://www.w3.org/1999/xlink" x="0px" y="0px"
	 width="100%" viewBox="0 0 512 512" enable-background="new 0 0 512 512" xml:space="preserve">
<path fill="#B6C4CF" opacity="1.000000" stroke="none" 
	d="
M39.000000,1.000000 
	C160.355972,1.000000 281.711945,1.000000 403.224976,1.284557 
	C406.790741,5.216782 408.187775,9.387464 408.099945,14.514677 
	C407.852081,28.984009 408.072662,43.461365 407.719055,58.105225 
	C405.032562,58.500763 402.735657,58.923424 400.438660,58.924187 
	C301.503510,58.957108 202.568344,58.952129 103.633179,58.953224 
	C92.562302,58.953346 90.000687,61.568546 89.999641,72.863983 
	C89.997757,93.183998 90.002258,113.504021 89.998550,133.824036 
	C89.980225,234.257950 89.960098,334.691864 89.593025,435.066742 
	C85.266159,431.606018 80.989021,428.492035 77.368614,424.743713 
	C69.451805,416.547058 61.332989,408.450287 54.298923,399.523010 
	C47.210999,390.527374 41.335953,380.576080 35.026161,370.580261 
	C35.144981,288.852173 35.169575,207.587387 35.163940,126.322586 
	C35.163864,125.203613 34.783157,124.084679 34.616760,122.558777 
	C34.769047,120.337944 34.984169,118.524109 34.985455,116.710136 
	C35.006390,87.136520 34.836430,57.561436 35.098202,27.990126 
	C35.178711,18.895937 32.550518,9.238204 39.000000,1.000000 
z"/>
<path fill="#465A61" opacity="1.000000" stroke="none"
	d="
M35.026169,370.580261 
	C23.119160,352.180389 14.580213,331.877197 9.134756,310.357971 
	C6.480858,299.870361 4.963280,289.095856 2.880527,278.461151 
	C2.771997,277.906982 2.186078,277.446289 1.411209,276.971039 
	C1.000000,256.645782 1.000000,236.291550 1.414188,215.494659 
	C2.556149,211.448807 3.372448,207.860901 3.997586,204.239960 
	C8.683228,177.099716 17.735481,151.488892 30.946817,127.346291 
	C31.840818,125.712578 33.354576,124.418015 34.580101,122.965721 
	C34.783157,124.084679 35.163864,125.203613 35.163940,126.322586 
	C35.169575,207.587387 35.144981,288.852173 35.026169,370.580261 
z"/>
<path fill="#FF9999" opacity="1.000000" stroke="none"
	d="
M488.953339,210.828064 
	C496.797485,218.426529 504.641602,226.024979 512.742859,233.311707 
	C513.000000,237.024551 513.000000,241.049088 513.000000,245.536804 
	C511.796143,246.707260 510.391571,247.208755 509.421082,248.155289 
	C503.280853,254.144104 497.236725,260.231476 490.760162,266.671997 
	C490.197113,267.340210 490.034760,267.622650 489.872406,267.905090 
	C489.872406,267.905090 489.981445,267.956360 489.667236,267.906311 
	C489.033386,268.031464 488.713684,268.206665 488.209290,268.052002 
	C478.473083,258.073151 468.900696,248.444626 459.393616,238.752045 
	C458.035095,237.366959 456.992737,235.671783 456.003876,233.829468 
	C461.452545,228.222900 466.892395,223.079346 471.893097,217.539444 
	C476.325287,212.629318 481.310638,209.820816 488.291138,210.986145 
	C488.520477,210.980301 488.953339,210.828079 488.953339,210.828064 
z"/>
<path fill="#FF4543" opacity="1.000000" stroke="none" 
	d="
M194.454102,513.000000 
	C191.943207,507.831116 193.753418,503.224304 196.056686,498.675873 
	C197.729828,495.371796 199.357056,492.044434 201.381119,488.239044 
	C203.921936,483.595062 206.086395,479.439453 208.569763,475.547241 
	C212.851135,479.593048 216.813568,483.375397 220.947037,487.447144 
	C224.437454,491.182068 227.756836,494.627594 231.076202,498.073120 
	C223.185394,502.011932 215.284256,505.930328 207.413376,509.908539 
	C206.007919,510.618896 204.727829,511.577209 203.694931,512.710571 
	C200.969406,513.000000 197.938812,513.000000 194.454102,513.000000 
z"/>
<path fill="#D9E7EC" opacity="1.000000" stroke="none" 
	d="
M208.250854,475.283844 
	C206.086395,479.439453 203.921936,483.595062 201.436951,487.870117 
	C192.208389,485.657440 183.227036,483.571747 174.406403,480.946106 
	C149.817459,473.626770 127.107468,462.281189 105.888885,447.962402 
	C100.410591,444.265533 95.424324,439.839508 90.076324,435.437103 
	C89.960098,334.691864 89.980225,234.257950 89.998550,133.824036 
	C90.002258,113.504021 89.997757,93.183998 89.999641,72.863983 
	C90.000687,61.568546 92.562302,58.953346 103.633179,58.953224 
	C202.568344,58.952129 301.503510,58.957108 400.438660,58.924187 
	C402.735657,58.923424 405.032562,58.500763 407.719055,58.105225 
	C416.084656,57.956909 424.060852,57.956699 432.036774,58.005798 
	C439.689758,58.052914 442.982544,61.396973 443.003113,69.022644 
	C443.030914,79.323883 443.077240,89.625069 443.091461,100.828629 
	C443.093506,138.394592 443.119720,175.058197 442.971649,212.016296 
	C441.523956,213.841141 440.250549,215.371490 438.655731,217.006348 
	C437.926544,217.392624 437.463470,217.619171 437.118744,217.964020 
	C370.494904,284.619202 303.877472,351.280792 237.275558,417.957916 
	C235.763199,419.471954 234.429779,421.164764 232.742218,423.007080 
	C224.397995,440.587952 216.324417,457.935913 208.250854,475.283844 
M156.000946,376.946381 
	C155.994751,387.111420 155.920349,397.277069 156.006729,407.441315 
	C156.062836,414.043884 159.987823,418.173920 165.915726,418.183502 
	C171.862625,418.193115 175.868515,414.088501 175.940796,407.510651 
	C176.041458,398.347900 175.913696,389.182648 176.402313,379.482178 
	C202.115555,371.878998 216.260361,349.396820 210.938843,324.588776 
	C206.273102,302.837860 184.751648,286.521027 163.384003,288.534271 
	C138.781097,290.852295 120.315468,309.593719 119.965218,332.601501 
	C119.858353,339.621246 123.368034,344.072845 129.306351,344.449554 
	C135.344040,344.832581 139.488419,340.485260 139.981491,333.251648 
	C140.965607,318.814850 152.056732,308.403992 166.239059,308.604553 
	C180.401855,308.804901 191.714920,319.899200 191.991043,333.858612 
	C192.276245,348.278046 181.951431,359.226257 167.078598,360.275330 
	C159.465424,360.812286 156.031906,364.437042 155.976562,372.033142 
	C155.966888,373.360535 156.061768,374.688721 156.000946,376.946381 
M197.500000,180.018631 
	C252.154297,180.018600 306.808594,180.018845 361.462891,180.017258 
	C363.129059,180.017212 364.805756,180.115601 366.459625,179.967834 
	C373.808136,179.311279 377.766052,171.661057 374.182831,165.293472 
	C371.584839,160.676727 367.363434,159.997467 362.649719,159.999359 
	C294.498474,160.026596 226.347214,160.017807 158.195969,160.017914 
	C151.030930,160.017914 143.864777,159.942078 136.701157,160.043457 
	C130.117889,160.136627 125.093178,164.465668 125.013451,169.891129 
	C124.920097,176.242981 129.161163,180.005356 136.513565,180.011383 
	C156.509033,180.027802 176.504517,180.018066 197.500000,180.018631 
M223.500000,200.017792 
	C199.505447,200.017792 175.510880,200.016495 151.516327,200.018738 
	C146.184280,200.019241 140.836502,199.773743 135.523712,200.097275 
	C126.582481,200.641769 122.019684,209.145813 127.265022,215.989426 
	C128.952713,218.191406 132.820023,219.843201 135.695343,219.851013 
	C211.844223,220.057922 287.993805,220.016464 364.143250,220.013916 
	C365.142334,220.013885 366.156921,220.074310 367.137970,219.929001 
	C373.946167,218.920685 377.539429,211.604996 374.335083,205.574341 
	C371.852936,200.902893 367.727570,199.997421 362.968689,200.000458 
	C316.812469,200.029938 270.656219,200.017975 223.500000,200.017792 
M177.500000,240.017838 
	C163.836288,240.019241 150.172592,240.019699 136.508881,240.022537 
	C131.760300,240.023529 127.531395,241.876221 126.143684,246.315674 
	C125.238930,249.210052 126.039139,253.104462 127.245140,256.076263 
	C128.842270,260.011902 132.897263,260.045288 136.705826,260.042969 
	C197.192505,260.006470 257.679199,260.018005 318.165894,260.014557 
	C319.498169,260.014496 320.849457,260.102295 322.159241,259.917603 
	C326.528259,259.301483 329.918671,255.437302 330.044922,251.067505 
	C330.259613,243.636703 326.365997,240.028625 317.969299,240.025757 
	C271.479523,240.009933 224.989761,240.018005 177.500000,240.017838 
M165.500000,140.071823 
	C191.495605,140.070831 217.491211,140.086975 243.486786,140.057495 
	C250.493118,140.049545 254.829071,136.289871 254.962479,130.286835 
	C255.087036,124.682350 250.279129,120.238678 243.686417,120.097214 
	C237.856705,119.972115 232.022278,120.065895 226.189926,120.065987 
	C196.361633,120.066422 166.533264,120.035530 136.705078,120.092857 
	C129.741638,120.106239 124.846649,124.553368 125.013298,130.360016 
	C125.187019,136.412918 129.419647,140.028305 136.504776,140.059097 
	C145.836365,140.099640 155.168243,140.070938 165.500000,140.071823 
M164.059616,454.650726 
	C168.853531,455.298645 172.651321,453.608215 175.001251,449.413147 
	C177.123291,445.624969 176.894730,441.670197 174.339966,438.113831 
	C171.887253,434.699524 168.369583,433.460022 164.241852,434.028870 
	C159.709854,434.653473 156.202652,438.372894 155.600830,443.095428 
	C154.959183,448.130524 157.516693,451.881927 164.059616,454.650726 
z"/>
<path fill="#D9E6EB" opacity="1.000000" stroke="none" 
	d="
M443.146027,392.069733 
	C433.543671,405.594910 422.820374,418.119446 409.878815,428.579956 
	C400.665039,436.027344 391.596222,443.721222 381.881744,450.468658 
	C358.271332,466.867798 332.031342,477.756409 304.277588,484.720825 
	C293.182739,487.504913 281.621552,488.579895 270.211273,489.903870 
	C262.861206,490.756714 255.399475,490.647156 247.747467,490.650391 
	C259.409424,484.565033 271.311707,478.798218 283.519958,472.929321 
	C285.278625,471.458252 286.767700,470.125580 288.178772,468.714844 
	C338.387634,418.518555 388.587830,368.313568 438.799591,318.120178 
	C440.087158,316.833069 441.490936,315.662201 442.896545,314.875183 
	C443.017059,340.898743 443.081543,366.484222 443.146027,392.069733 
z"/>
<path fill="#485A61" opacity="1.000000" stroke="none" 
	d="
M443.433960,391.894562 
	C443.081543,366.484222 443.017059,340.898743 443.087677,314.565186 
	C458.279846,298.672058 473.336945,283.526978 488.394012,268.381866 
	C488.713684,268.206665 489.033386,268.031464 489.626770,267.861694 
	C487.446198,282.550232 485.852295,297.442596 482.344727,311.869659 
	C476.435150,336.176575 465.806488,358.606293 451.997986,379.488098 
	C449.282867,383.593994 446.482819,387.643738 443.433960,391.894562 
z"/>
<path fill="#FFC143" opacity="1.000000" stroke="none" 
	d="
M283.213989,473.031433 
	C271.311707,478.798218 259.409424,484.565033 247.287598,490.582153 
	C241.990051,493.224304 236.912079,495.616089 231.455154,498.040497 
	C227.756836,494.627594 224.437454,491.182068 221.044403,487.084961 
	C221.850800,484.838867 222.650940,483.193787 223.623413,481.657837 
	C232.430405,467.747192 241.267517,453.855621 250.389053,440.111115 
	C261.526184,451.186340 272.370087,462.108887 283.213989,473.031433 
z"/>
<path fill="#485A61" opacity="1.000000" stroke="none" 
	d="
M490.146606,267.865967 
	C490.034760,267.622650 490.197113,267.340210 490.605408,266.969482 
	C490.707794,267.196442 490.564270,267.511627 490.146606,267.865967 
z"/>
<path fill="#475A61" opacity="1.000000" stroke="none" 
	d="
M443.145935,211.721802 
	C443.119720,175.058197 443.093506,138.394592 443.218079,101.269936 
	C448.208740,107.759239 453.472900,114.456017 457.807526,121.708336 
	C469.972656,142.061966 478.610199,163.949982 484.479706,186.890793 
	C486.423615,194.488480 487.519257,202.303177 488.978027,210.423370 
	C488.953339,210.828079 488.520477,210.980301 488.128265,210.692810 
	C483.182129,205.837204 478.704651,201.189499 474.053894,196.722183 
	C468.811798,191.686813 463.664032,191.783417 458.401215,196.857071 
	C453.289856,201.784744 448.228973,206.764771 443.145935,211.721802 
z"/>
<path fill="#FF5757" opacity="1.000000" stroke="none" 
	d="
M283.519958,472.929352 
	C272.370087,462.108887 261.526184,451.186340 250.343872,439.887085 
	C250.005447,439.510406 249.933090,439.059601 250.233444,438.900391 
	C251.159424,438.195160 251.819839,437.683929 252.405716,437.098175 
	C318.668304,370.847107 384.929474,304.594604 451.151093,238.302582 
	C452.387878,237.064468 453.151428,235.353622 454.416260,233.896759 
	C455.065826,233.993469 455.434937,234.056793 455.804047,234.120117 
	C456.992737,235.671783 458.035095,237.366959 459.393616,238.752045 
	C468.900696,248.444626 478.473083,258.073151 488.209290,268.052002 
	C473.336945,283.526978 458.279846,298.672058 443.031647,314.127136 
	C441.490936,315.662201 440.087158,316.833069 438.799591,318.120178 
	C388.587830,368.313568 338.387634,418.518555 288.178772,468.714844 
	C286.767700,470.125580 285.278625,471.458252 283.519958,472.929352 
M295.756775,439.587463 
	C298.043549,438.019440 300.641449,436.763275 302.571564,434.837738 
	C351.254333,386.271088 399.867035,337.634216 448.491486,289.009094 
	C450.139771,287.360809 452.409485,285.980164 453.277100,283.989838 
	C454.510620,281.160095 455.907959,277.532227 455.130066,274.857635 
	C452.758667,266.704315 444.196991,265.337372 437.791962,271.728333 
	C413.040283,296.425537 388.331726,321.165924 363.607269,345.890411 
	C338.294159,371.203552 312.971039,396.506744 287.680328,421.842255 
	C284.396881,425.131561 281.599915,428.796967 284.128357,433.745300 
	C286.340363,438.074402 289.760284,440.694366 295.756775,439.587463 
z"/>
<path fill="#FE7A7A" opacity="1.000000" stroke="none" 
	d="
M456.003876,233.829468 
	C455.434937,234.056793 455.065826,233.993469 454.228455,233.624847 
	C452.026703,231.542801 450.222351,229.829102 448.574829,227.975937 
	C445.329590,224.325485 442.171387,220.597656 438.977142,216.901825 
	C440.250549,215.371490 441.523956,213.841141 442.971619,212.016296 
	C448.228973,206.764771 453.289856,201.784744 458.401215,196.857071 
	C463.664032,191.783417 468.811798,191.686813 474.053894,196.722183 
	C478.704651,201.189499 483.182129,205.837204 487.898926,210.698639 
	C481.310638,209.820816 476.325287,212.629318 471.893097,217.539444 
	C466.892395,223.079346 461.452545,228.222900 456.003876,233.829468 
z"/>
<path fill="#FFB50B" opacity="1.000000" stroke="none" 
	d="
M249.933090,439.059601 
	C249.933090,439.059601 250.005447,439.510406 250.050629,439.734436 
	C241.267517,453.855621 232.430405,467.747192 223.623413,481.657837 
	C222.650940,483.193787 221.850800,484.838867 220.873367,486.795532 
	C216.813568,483.375397 212.851135,479.593048 208.569763,475.547241 
	C216.324417,457.935913 224.397995,440.587952 233.033630,423.189636 
	C239.041504,428.446014 244.487305,433.752808 249.933090,439.059601 
z"/>
<path fill="#FF4343" opacity="1.000000" stroke="none" 
	d="
M250.233444,438.900391 
	C244.487305,433.752808 239.041504,428.446014 233.304291,422.956696 
	C234.429779,421.164764 235.763199,419.471954 237.275558,417.957916 
	C303.877472,351.280792 370.494904,284.619202 437.118744,217.964020 
	C437.463470,217.619171 437.926544,217.392624 438.655731,217.006332 
	C442.171387,220.597656 445.329590,224.325485 448.574829,227.975937 
	C450.222351,229.829102 452.026703,231.542801 453.947968,233.591461 
	C453.151428,235.353622 452.387878,237.064468 451.151093,238.302582 
	C384.929474,304.594604 318.668304,370.847107 252.405716,437.098175 
	C251.819839,437.683929 251.159424,438.195160 250.233444,438.900391 
z"/>
<path fill="#B6C4CF" opacity="1.000000" stroke="none" 
	d="
M197.000000,180.018661 
	C176.504517,180.018066 156.509033,180.027802 136.513565,180.011383 
	C129.161163,180.005356 124.920097,176.242981 125.013451,169.891129 
	C125.093178,164.465668 130.117889,160.136627 136.701157,160.043457 
	C143.864777,159.942078 151.030930,160.017914 158.195969,160.017914 
	C226.347214,160.017807 294.498474,160.026596 362.649719,159.999359 
	C367.363434,159.997467 371.584839,160.676727 374.182831,165.293472 
	C377.766052,171.661057 373.808136,179.311279 366.459625,179.967834 
	C364.805756,180.115601 363.129059,180.017212 361.462891,180.017258 
	C306.808594,180.018845 252.154297,180.018600 197.000000,180.018661 
z"/>
<path fill="#B6C4CF" opacity="1.000000" stroke="none" 
	d="
M224.000000,200.017822 
	C270.656219,200.017975 316.812469,200.029938 362.968689,200.000458 
	C367.727570,199.997421 371.852936,200.902893 374.335083,205.574341 
	C377.539429,211.604996 373.946167,218.920685 367.137970,219.929001 
	C366.156921,220.074310 365.142334,220.013885 364.143250,220.013916 
	C287.993805,220.016464 211.844223,220.057922 135.695343,219.851013 
	C132.820023,219.843201 128.952713,218.191406 127.265022,215.989426 
	C122.019684,209.145813 126.582481,200.641769 135.523712,200.097275 
	C140.836502,199.773743 146.184280,200.019241 151.516327,200.018738 
	C175.510880,200.016495 199.505447,200.017792 224.000000,200.017822 
z"/>
<path fill="#B6C4CF" opacity="1.000000" stroke="none" 
	d="
M178.000000,240.017853 
	C224.989761,240.018005 271.479523,240.009933 317.969299,240.025757 
	C326.365997,240.028625 330.259613,243.636703 330.044922,251.067505 
	C329.918671,255.437302 326.528259,259.301483 322.159241,259.917603 
	C320.849457,260.102295 319.498169,260.014496 318.165894,260.014557 
	C257.679199,260.018005 197.192505,260.006470 136.705826,260.042969 
	C132.897263,260.045288 128.842270,260.011902 127.245140,256.076263 
	C126.039139,253.104462 125.238930,249.210052 126.143684,246.315674 
	C127.531395,241.876221 131.760300,240.023529 136.508881,240.022537 
	C150.172592,240.019699 163.836288,240.019241 178.000000,240.017853 
z"/>
<path fill="#FF5959" opacity="1.000000" stroke="none" 
	d="
M156.108368,376.016541 
	C156.061768,374.688721 155.966888,373.360535 155.976562,372.033142 
	C156.031906,364.437042 159.465424,360.812286 167.078598,360.275330 
	C181.951431,359.226257 192.276245,348.278046 191.991043,333.858612 
	C191.714920,319.899200 180.401855,308.804901 166.239059,308.604553 
	C152.056732,308.403992 140.965607,318.814850 139.981491,333.251648 
	C139.488419,340.485260 135.344040,344.832581 129.306351,344.449554 
	C123.368034,344.072845 119.858353,339.621246 119.965218,332.601501 
	C120.315468,309.593719 138.781097,290.852295 163.384003,288.534271 
	C184.751648,286.521027 206.273102,302.837860 210.938843,324.588776 
	C216.260361,349.396820 202.115555,371.878998 175.685211,379.744324 
	C168.428787,379.871185 161.576111,381.217041 156.108368,376.016541 
z"/>
<path fill="#8E9DA9" opacity="1.000000" stroke="none" 
	d="
M165.000000,140.071915 
	C155.168243,140.070938 145.836365,140.099640 136.504776,140.059097 
	C129.419647,140.028305 125.187019,136.412918 125.013298,130.360016 
	C124.846649,124.553368 129.741638,120.106239 136.705078,120.092857 
	C166.533264,120.035530 196.361633,120.066422 226.189926,120.065987 
	C232.022278,120.065895 237.856705,119.972115 243.686417,120.097214 
	C250.279129,120.238678 255.087036,124.682350 254.962479,130.286835 
	C254.829071,136.289871 250.493118,140.049545 243.486786,140.057495 
	C217.491211,140.086975 191.495605,140.070831 165.000000,140.071915 
z"/>
<path fill="#FF4444" opacity="1.000000" stroke="none" 
	d="
M156.054657,376.481445 
	C161.576111,381.217041 168.428787,379.871185 175.425903,380.012451 
	C175.913696,389.182648 176.041458,398.347900 175.940796,407.510651 
	C175.868515,414.088501 171.862625,418.193115 165.915726,418.183502 
	C159.987823,418.173920 156.062836,414.043884 156.006729,407.441315 
	C155.920349,397.277069 155.994751,387.111420 156.054657,376.481445 
z"/>
<path fill="#FE4747" opacity="1.000000" stroke="none" 
	d="
M163.689758,454.534271 
	C157.516693,451.881927 154.959183,448.130524 155.600830,443.095428 
	C156.202652,438.372894 159.709854,434.653473 164.241852,434.028870 
	C168.369583,433.460022 171.887253,434.699524 174.339966,438.113831 
	C176.894730,441.670197 177.123291,445.624969 175.001251,449.413147 
	C172.651321,453.608215 168.853531,455.298645 163.689758,454.534271 
z"/>
<path fill="#FF4343" opacity="1.000000" stroke="none" 
	d="
M295.379395,439.706909 
	C289.760284,440.694366 286.340363,438.074402 284.128357,433.745300 
	C281.599915,428.796967 284.396881,425.131561 287.680328,421.842255 
	C312.971039,396.506744 338.294159,371.203552 363.607269,345.890411 
	C388.331726,321.165924 413.040283,296.425537 437.791962,271.728333 
	C444.196991,265.337372 452.758667,266.704315 455.130066,274.857635 
	C455.907959,277.532227 454.510620,281.160095 453.277100,283.989838 
	C452.409485,285.980164 450.139771,287.360809 448.491486,289.009094 
	C399.867035,337.634216 351.254333,386.271088 302.571564,434.837738 
	C300.641449,436.763275 298.043549,438.019440 295.379395,439.706909 
z"/>
</svg>