<svg version="1.1" id="Layer_1" xmlns="http://www.w3.org/2000/svg" xmlns:xlink="http://www.w3.org/1999/xlink" x="0px" y="0px"
	 width="100%" viewBox="0 0 512 512" enable-background="new 0 0 512 512" xml:space="preserve">
	
 <path fill="#1565C0" opacity="1.000000" stroke="none" 
	d="
M84.808807,334.757874 
	C93.974045,327.696381 102.618477,320.504181 111.837265,314.144623 
	C124.819366,305.188965 139.466934,299.619110 154.490158,295.083374 
	C159.040680,293.709503 163.707458,292.720703 168.966705,291.392456 
	C167.676102,280.758636 171.647766,271.503815 179.301529,264.415314 
	C186.713608,257.550629 196.346039,255.743423 206.238358,257.087463 
	C218.313843,258.728149 233.273544,267.355774 233.333725,290.914795 
	C314.580963,312.253052 359.682159,364.789429 370.029205,449.003418 
	C371.893005,449.003418 374.463379,448.965790 377.032288,449.010956 
	C383.031372,449.116455 385.644836,451.203857 384.827972,457.190338 
	C383.696747,465.480347 381.583160,473.658142 379.547943,481.798431 
	C375.251984,498.981262 376.625000,496.984894 359.909241,496.988373 
	C251.789612,497.011017 143.669983,497.000427 35.550350,496.998901 
	C27.054152,496.998779 25.955309,496.120239 23.999367,488.038361 
	C21.982977,479.706696 19.912176,471.388245 17.888235,463.058411 
	C15.220937,452.080688 17.375866,449.238983 28.477909,448.984863 
	C29.772226,448.955231 31.063007,448.771027 32.780762,448.621490 
	C35.627930,404.087097 53.149872,366.348480 84.808807,334.757874 
M248.500000,449.000000 
	C282.887085,449.000000 317.274139,449.000000 352.320343,449.000000 
	C347.388214,394.669281 323.150024,352.467377 276.593018,326.362610 
	C216.359268,292.589111 157.152328,298.500793 103.494919,341.705536 
	C70.105164,368.590851 52.930794,405.235535 49.938709,449.000000 
	C116.310043,449.000000 181.905014,449.000000 248.500000,449.000000 
M346.494080,481.000000 
	C350.658173,480.995422 354.834717,481.170349 358.979218,480.883057 
	C360.321472,480.790009 362.388092,479.748779 362.733978,478.688171 
	C364.099182,474.502045 364.912231,470.135864 366.019531,465.458832 
	C255.844086,465.458832 146.102997,465.458832 35.915207,465.458832 
	C36.666031,468.355377 37.299328,470.717255 37.889420,473.089813 
	C39.855881,480.996307 39.849934,480.999664 47.676617,480.999695 
	C146.949905,481.000122 246.223206,481.000000 346.494080,481.000000 
M207.072067,275.013550 
	C195.998779,271.218903 185.236908,278.207397 186.536423,288.672241 
	C196.188950,288.672241 205.878128,288.672241 215.839264,288.672241 
	C216.114227,282.132874 212.808746,278.237671 207.072067,275.013550 
z"/>
<path fill="#1565C0" opacity="1.000000" stroke="none" 
	d="
M393.222534,495.542786 
	C393.107758,490.635742 393.107758,486.180634 393.107758,481.071716 
	C422.479706,481.071716 451.372223,481.071716 480.628113,481.071716 
	C480.628113,344.866547 480.628113,209.323990 480.628113,73.390579 
	C390.233398,73.390579 300.019928,73.390579 209.146240,73.390579 
	C209.146240,129.076187 209.146240,184.629669 209.146240,240.589493 
	C203.606033,240.589493 198.717407,240.589493 193.309753,240.589493 
	C193.204361,238.757141 193.014297,236.989258 193.013809,235.221313 
	C192.998108,178.895370 192.997803,122.569435 193.004639,66.243492 
	C193.005447,59.507256 194.908600,57.063374 201.302917,56.084625 
	C221.510223,52.991592 241.747772,50.093922 261.944458,46.934296 
	C284.406555,43.420269 306.821289,39.603500 329.284546,36.097324 
	C355.831909,31.953693 382.416443,28.048761 408.970398,23.946827 
	C422.979828,21.782721 436.952637,19.382507 450.957275,17.186274 
	C453.076752,16.853893 455.281555,16.970913 457.443481,17.022221 
	C462.783997,17.148960 464.923950,19.262466 464.973755,24.673399 
	C465.053528,33.338211 464.998627,42.004257 465.000488,50.669785 
	C465.000885,52.479992 465.000549,54.290199 465.000549,57.000221 
	C472.491943,57.000221 479.579346,56.996250 486.666748,57.001221 
	C495.600098,57.007484 496.998505,58.407475 496.998627,67.382111 
	C497.000336,207.197098 497.000488,347.012085 496.998138,486.827087 
	C496.997986,495.615021 495.642853,496.995850 487.012787,496.997498 
	C457.849945,497.003082 428.687073,497.019928 399.524353,496.956329 
	C397.461304,496.951843 395.399658,496.329681 393.222534,495.542786 
M321.431610,54.998234 
	C318.582092,55.412334 315.732605,55.826435 312.883087,56.240536 
	C312.909912,56.338173 312.936707,56.435806 312.963531,56.533443 
	C358.176453,56.533443 403.389343,56.533443 448.575989,56.533443 
	C448.575989,49.162182 448.575989,42.264442 448.575989,35.145798 
	C447.171814,35.256454 446.195251,35.261639 445.244049,35.419521 
	C436.149200,36.929050 427.069153,38.530666 417.964264,39.976238 
	C405.443573,41.964138 392.904236,43.834698 380.374329,45.764801 
	C371.257477,47.169151 362.138397,48.559853 353.028595,50.008747 
	C342.783539,51.638195 332.547852,53.326157 321.431610,54.998234 
z"/>
<path fill="#1565C0" opacity="1.000000" stroke="none" 
	d="
M395.112976,101.997940 
	C417.463806,97.285378 440.576294,115.050652 442.154358,137.354507 
	C443.162384,151.601456 438.741028,163.251343 428.597412,172.852661 
	C422.714172,178.421387 416.993774,184.498154 410.174896,188.671066 
	C396.811096,196.849258 382.851746,195.480011 368.648163,188.213913 
	C365.540405,191.706314 362.159943,195.505157 358.427307,199.699753 
	C359.245880,200.573898 360.533844,202.029404 361.905060,203.401703 
	C383.574066,225.088135 405.198975,246.819229 426.993591,268.378754 
	C430.050140,271.402313 430.365051,273.239288 427.129395,276.380005 
	C418.266937,284.982361 418.403473,285.123138 409.704559,276.424194 
	C389.558502,256.277954 369.405426,236.138779 349.283142,215.968826 
	C347.997528,214.680145 346.950897,213.153015 345.468018,211.339203 
	C343.442200,213.233170 341.991333,214.513184 340.625397,215.878113 
	C318.824097,237.662964 296.972046,259.397766 275.312866,281.323151 
	C272.360565,284.311737 270.660828,284.420563 267.720367,281.437592 
	C258.956390,272.546936 258.844025,272.657745 267.562195,263.939514 
	C287.590515,243.911179 307.608459,223.872452 327.669189,203.876663 
	C329.079437,202.470993 330.805847,201.382523 332.842133,199.789078 
	C325.116455,192.004715 318.172729,184.918564 311.058624,178.007843 
	C310.480225,177.446014 308.585175,177.749344 307.556519,178.214096 
	C289.300507,186.462173 272.101227,183.494232 257.994873,169.525665 
	C250.919281,162.519150 243.889038,155.466873 236.610611,148.208237 
	C241.005966,144.138046 245.002151,140.437485 249.558762,136.217972 
	C254.950012,141.601532 260.662872,147.575470 266.682739,153.222076 
	C270.638824,156.932877 274.606293,161.024231 279.340393,163.420532 
	C286.364136,166.975754 289.917267,166.803314 297.753204,163.016891 
	C284.961761,150.388229 272.341553,137.928650 258.896088,124.654297 
	C262.753571,121.159737 266.098267,118.197441 269.363159,115.149651 
	C271.772217,112.900742 273.219116,114.730667 274.765900,116.276680 
	C285.018188,126.523888 295.261871,136.779755 305.521606,147.019501 
	C306.782227,148.277634 308.121643,149.456833 309.519714,150.761414 
	C314.051361,141.905548 312.070404,132.758881 303.879700,124.421738 
	C296.766937,117.181870 289.482208,110.110962 282.063843,102.757599 
	C286.255676,98.838882 290.109070,95.236557 294.260712,91.355408 
	C294.689575,91.670311 295.696228,92.213974 296.455841,92.997192 
	C304.901947,101.705780 314.125336,109.817795 321.526550,119.343590 
	C331.309998,131.935486 331.197906,146.338089 324.617615,160.550430 
	C323.228851,163.549973 323.443848,165.128311 325.712891,167.317947 
	C332.056549,173.439636 338.171814,179.798096 345.860352,187.560516 
	C348.948730,183.777039 351.938446,180.450409 354.458771,176.799728 
	C355.121063,175.840363 354.718597,173.706360 354.144897,172.402161 
	C349.117706,160.973541 348.186890,149.418915 353.028320,137.747742 
	C354.272858,134.747467 355.821167,131.641998 357.998566,129.299179 
	C368.528198,117.969727 377.760468,104.777725 395.112976,101.997940 
M423.884308,149.008179 
	C425.940338,138.008591 422.396149,128.268097 414.516571,123.262672 
	C405.015381,117.227150 395.156158,117.171890 386.472198,124.452187 
	C380.433014,129.515228 374.999542,135.515259 370.205505,141.791779 
	C364.892090,148.748276 365.718140,160.614197 370.907623,167.362701 
	C377.350677,175.741440 387.263733,179.701981 396.342255,176.083496 
	C408.823578,171.108780 416.901672,161.007248 423.884308,149.008179 
z"/>
<path fill="#1565C0" opacity="1.000000" stroke="none" 
	d="
M177.000000,191.000000 
	C177.000000,202.435669 177.000000,213.371338 177.000000,224.648178 
	C171.488800,224.648178 166.605652,224.648178 161.360413,224.648178 
	C161.360413,176.886887 161.360413,129.384445 161.360413,81.440643 
	C166.323318,81.440643 171.208496,81.440643 177.000000,81.440643 
	C177.000000,117.784668 177.000000,154.142334 177.000000,191.000000 
z"/>
<path fill="#1565C0" opacity="1.000000" stroke="none" 
	d="
M330.068787,305.000000 
	C361.787781,305.000000 393.015625,305.000000 424.619965,305.000000 
	C424.619965,310.451050 424.619965,315.332611 424.619965,320.609100 
	C390.279114,320.609100 356.106018,320.609100 321.465759,320.609100 
	C321.465759,315.732910 321.465759,310.847473 321.465759,305.000000 
	C324.101288,305.000000 326.839447,305.000000 330.068787,305.000000 
z"/>
<path fill="#1565C0" opacity="1.000000" stroke="none" 
	d="
M424.997742,347.825317 
	C425.160736,351.005341 425.005096,353.076721 421.221558,353.051453 
	C399.279663,352.904785 377.336456,352.952362 355.393738,352.919525 
	C354.909119,352.918823 354.424774,352.743469 353.473785,352.559143 
	C353.473785,347.752167 353.473785,342.867798 353.473785,337.486877 
	C376.983246,337.486877 400.614197,337.486877 424.998932,337.486877 
	C424.998932,340.822998 424.998932,344.088287 424.997742,347.825317 
z"/>
<path fill="#1565C0" opacity="1.000000" stroke="none" 
	d="
M413.964294,369.000000 
	C417.733765,369.000000 421.009186,369.000000 424.637939,369.000000 
	C424.637939,374.480438 424.637939,379.354492 424.637939,384.616943 
	C408.925995,384.616943 393.413330,384.616943 377.448975,384.616943 
	C377.448975,379.703766 377.448975,374.826019 377.448975,369.000000 
	C389.407990,369.000000 401.439117,369.000000 413.964294,369.000000 
z"/>
<path fill="#1565C0" opacity="1.000000" stroke="none" 
	d="
M453.699524,320.977356 
	C440.596100,321.031860 440.592865,321.031738 441.027435,308.407166 
	C441.055603,307.588867 441.191467,306.774231 441.327087,305.483459 
	C446.334137,305.483459 451.316284,305.483459 456.950623,305.483459 
	C456.950623,309.867249 457.112244,314.126373 456.824158,318.354858 
	C456.761078,319.281097 455.096039,320.098175 453.699524,320.977356 
z"/>
<path fill="#1565C0" opacity="1.000000" stroke="none" 
	d="
M452.764587,352.992859 
	C440.733185,353.008881 440.724487,353.008667 441.017487,341.457825 
	C441.049927,340.178040 441.251068,338.902557 441.404083,337.311859 
	C443.257935,337.198395 444.866058,337.036591 446.476074,337.014709 
	C449.741455,336.970245 453.007874,337.001465 456.955139,337.001465 
	C456.955139,341.820618 457.187836,346.086395 456.785309,350.291351 
	C456.689270,351.294800 454.473236,352.095306 452.764587,352.992859 
z"/>
<path fill="#1565C0" opacity="1.000000" stroke="none" 
	d="
M451.825073,369.002228 
	C456.006958,368.450134 457.080811,370.061066 457.081787,373.733368 
	C457.084839,385.149384 457.232239,385.154053 445.926392,384.990814 
	C444.610901,384.971832 443.296661,384.865967 441.494537,384.776062 
	C441.494537,379.688995 441.494537,374.707214 441.494537,369.001068 
	C444.844940,369.001068 448.099182,369.001068 451.825073,369.002228 
z"/>
 
<path fill="#1565C0" opacity="1.000000" stroke="none" 
	d="
M106.742355,383.763977 
	C103.987236,387.686615 101.656853,391.494354 98.873749,394.936035 
	C98.096100,395.897736 95.620659,396.535248 94.546494,396.021088 
	C90.570518,394.117889 86.854752,391.671051 82.055740,388.848999 
	C86.792496,382.236908 90.933929,375.780762 95.744873,369.869537 
	C109.022003,353.555725 125.529388,341.329254 144.681793,332.726990 
	C160.625153,325.566101 177.197342,320.945282 194.861877,320.982758 
	C207.120880,321.008759 219.369431,320.627747 231.413116,323.849182 
	C234.749710,324.741638 235.401886,326.037109 234.499680,329.069824 
	C233.378433,332.838806 232.536606,336.690887 231.457397,340.969879 
	C181.671417,331.021240 139.748978,344.024536 106.742355,383.763977 
z"/>
<path fill="#1565C0" opacity="1.000000" stroke="none" 
	d="
M87.525024,410.421814 
	C88.339729,411.871674 89.438736,413.296997 89.174637,414.394287 
	C88.179504,418.528992 86.740807,422.556915 85.243065,427.344513 
	C79.946465,426.099182 74.588463,424.839417 68.543167,423.418060 
	C70.305168,417.979095 71.733498,412.923004 73.692375,408.081512 
	C74.074059,407.138214 76.697456,406.339691 77.975769,406.671814 
	C81.140953,407.494110 84.126015,409.009674 87.525024,410.421814 
z"/>
</svg>