<svg version="1.1" id="Layer_1" xmlns="http://www.w3.org/2000/svg" xmlns:xlink="http://www.w3.org/1999/xlink" x="0px" y="0px"
	 width="100%" viewBox="0 0 512 512" enable-background="new 0 0 512 512" xml:space="preserve">

<path fill="#FFFFFF" opacity="1.000000" stroke="none" 
	d="
M251.460632,513.000000 
	C249.200287,511.401886 247.600708,509.467987 245.569931,508.257507 
	C225.109970,496.061951 205.756470,482.303070 187.544724,466.979279 
	C176.504349,457.689606 165.422165,448.387634 155.069702,438.357422 
	C140.736404,424.470306 126.424774,410.460693 113.276886,395.474396 
	C94.809044,374.424225 78.020271,351.964172 65.104294,326.971832 
	C59.014004,315.187164 54.292774,302.888000 54.885357,289.039673 
	C55.426224,276.399902 54.918777,263.718140 55.015209,251.055939 
	C55.306438,212.814377 55.908428,174.573471 55.927090,136.332077 
	C55.943390,102.922920 55.523853,69.509888 54.898823,36.106014 
	C54.673695,24.074406 64.088043,21.881584 72.020325,25.430164 
	C86.029503,31.697300 100.609543,36.362244 115.904587,37.881908 
	C128.506363,39.133980 141.245255,40.221611 153.863831,39.758766 
	C167.398727,39.262318 180.663147,36.230801 193.754135,32.190987 
	C214.871567,25.674257 234.120926,16.037264 250.998322,1.369106 
	C254.692917,1.000000 258.385834,1.000000 262.539368,0.999998 
	C264.673798,2.844582 266.066986,5.098392 268.065857,6.468811 
	C283.626129,17.136950 299.950134,26.357204 318.078339,32.032902 
	C332.516510,36.553299 347.198334,39.156879 362.374695,40.204025 
	C383.995911,41.695866 404.739777,38.285023 425.174469,31.942961 
	C431.123016,30.096786 436.830475,27.460329 442.616486,25.107580 
	C449.557434,22.285210 459.107849,23.574936 459.048676,35.321156 
	C458.900970,64.642365 459.122711,93.965439 458.970734,123.286598 
	C458.751831,165.523315 458.227051,207.758591 458.060883,249.995377 
	C458.006775,263.741058 458.552002,277.493561 459.034485,291.235504 
	C459.458069,303.300476 455.070862,313.985809 449.979614,324.490448 
	C441.446564,342.096436 430.403473,358.153778 418.615479,373.654449 
	C411.399719,383.142883 403.410217,392.067322 395.443054,400.953522 
	C386.296051,411.155670 377.252319,421.521454 367.344666,430.955994 
	C345.701294,451.565796 323.377350,471.434570 298.472748,488.154480 
	C286.450012,496.225983 274.437897,504.313354 262.710510,512.696777 
	C259.307098,513.000000 255.614182,513.000000 251.460632,513.000000 
M433.736084,50.032909 
	C417.165222,56.070843 399.902039,58.817333 382.431335,59.843140 
	C373.067474,60.392948 363.608307,59.355602 354.193665,58.994946 
	C340.340942,58.464283 326.988342,55.249859 313.775299,51.341721 
	C294.357727,45.598419 276.567688,36.490219 259.705261,25.385452 
	C258.411957,24.533745 255.595383,24.547764 254.284180,25.394344 
	C241.019562,33.958668 227.291748,41.525169 212.488312,47.170700 
	C192.983231,54.609264 172.790771,58.779392 152.034500,59.862675 
	C142.827911,60.343174 133.494095,59.814491 124.307816,58.870205 
	C114.341408,57.845726 104.431061,56.051300 94.589165,54.119400 
	C88.092232,52.844090 81.759209,50.733810 75.000000,48.901756 
	C75.000000,51.098354 74.987015,52.751240 75.001900,54.403873 
	C75.332748,91.147118 75.879791,127.890053 75.928322,164.633652 
	C75.963211,191.045670 75.262772,217.457962 75.026497,243.871323 
	C74.883415,259.865997 74.897720,275.864136 75.080154,291.858002 
	C75.120071,295.357513 75.812553,298.954773 76.825996,302.319824 
	C81.240227,316.976746 89.096199,330.048248 98.002342,342.156555 
	C111.774559,360.880554 125.827408,379.590607 141.607574,396.592957 
	C158.559845,414.858154 176.867035,432.078125 196.023651,448.023407 
	C213.989990,462.977936 233.845108,475.662170 252.853043,489.367676 
	C255.732162,491.443665 258.326416,491.379395 261.287476,489.274475 
	C269.971039,483.101715 278.765747,477.083038 287.578217,471.094208 
	C309.653778,456.091858 329.767334,438.688385 349.035767,420.322968 
	C359.112549,410.718475 368.691711,400.561676 378.082245,390.276917 
	C385.678772,381.957031 393.191772,373.459534 399.784241,364.348022 
	C409.693695,350.652130 419.151062,336.589691 428.068329,322.228394 
	C434.737671,311.487274 439.255554,300.079010 439.188568,286.680756 
	C438.801971,209.368973 439.000000,132.054260 439.000000,54.740528 
	C439.000000,52.924946 439.000000,51.109367 439.000000,48.752525 
	C437.243622,49.248165 435.914368,49.623268 433.736084,50.032909 
z"/>
<path fill="#FFFFFF" opacity="1.000000" stroke="none" 
	d="
M409.000000,133.000000 
	C409.000000,183.656921 408.926239,233.814087 409.091827,283.970459 
	C409.112915,290.355194 407.431702,296.090881 405.007782,301.758606 
	C398.166656,317.754730 388.509521,332.083221 377.732056,345.566254 
	C368.625092,356.959381 358.813354,367.819580 348.891724,378.524719 
	C329.296417,399.667389 307.442017,418.218414 283.426849,434.203430 
	C277.919037,437.869568 272.542114,441.731781 267.057587,445.433533 
	C260.570740,449.811890 254.019852,450.584198 247.320221,445.747131 
	C233.034042,435.432648 218.290756,425.699036 204.511887,414.749481 
	C191.799866,404.647644 179.498428,393.865387 168.093704,382.318542 
	C148.379013,362.358215 130.472244,340.757812 116.260933,316.448547 
	C109.033310,304.085297 104.553543,291.078735 104.720673,275.958069 
	C105.394676,214.977371 105.151451,153.984055 104.827530,92.997627 
	C104.781891,84.404449 112.339790,79.308907 120.708549,82.981796 
	C133.231323,88.477806 146.233337,91.526382 159.834671,93.152565 
	C183.870346,96.026260 206.307419,90.875275 227.773254,80.853279 
	C235.871964,77.072136 243.128021,71.485283 250.764969,66.716347 
	C255.002518,64.070175 259.224304,63.821377 263.366089,66.873810 
	C275.999695,76.184563 289.444092,83.784378 304.625549,88.344810 
	C319.684357,92.868401 335.001678,95.001457 350.579041,93.868187 
	C365.432404,92.787590 379.745605,88.805618 393.466095,82.930893 
	C403.223694,78.752945 408.999786,82.453743 408.999939,93.008255 
	C409.000122,106.172173 409.000000,119.336082 409.000000,133.000000 
M389.000000,184.500000 
	C389.000000,158.706192 389.000000,132.912384 389.000000,106.672081 
	C387.242981,107.085533 386.008087,107.432846 384.751740,107.662926 
	C373.154358,109.786781 361.622894,112.889511 349.932648,113.703896 
	C339.370880,114.439674 328.546417,113.310036 317.993774,111.864510 
	C297.651581,109.077965 278.856262,101.694153 261.824951,90.182961 
	C258.295990,87.797806 255.797440,87.711403 252.256195,90.123383 
	C231.116440,104.521904 207.410461,111.931458 182.139252,113.835922 
	C166.773941,114.993874 151.393600,113.650879 136.437454,109.212273 
	C132.833664,108.142754 129.050980,107.676086 125.000000,106.861710 
	C125.000000,109.264633 125.000000,111.082932 125.000000,112.901230 
	C125.000000,168.054886 125.231804,223.210419 124.783257,278.360413 
	C124.703850,288.123657 127.993637,296.165924 132.580719,303.965088 
	C144.066269,323.493408 157.883102,341.438568 173.525360,357.701263 
	C187.931351,372.678619 203.275116,386.862335 219.139343,400.292969 
	C230.913818,410.261200 244.182693,418.464233 256.902374,427.536621 
	C264.073486,422.522400 270.808899,417.797668 277.559814,413.095215 
	C299.358704,397.910797 319.344421,380.723999 337.484283,361.222382 
	C353.293518,344.226349 367.897797,326.421844 379.887817,306.548584 
	C385.349731,297.495544 389.502380,288.334473 389.240051,276.972870 
	C388.536407,246.496307 389.000000,215.992813 389.000000,184.500000 
z"/>

</svg>