<svg version="1.1" id="Layer_1" xmlns="http://www.w3.org/2000/svg" xmlns:xlink="http://www.w3.org/1999/xlink" x="0px" y="0px"
	 width="100%" viewBox="0 0 512 512" enable-background="new 0 0 512 512" xml:space="preserve">
<path fill="#FF0125" opacity="1.000000" stroke="none"
	d="
M107.088806,315.862061 
	C101.472580,316.273621 97.657784,313.286865 95.023872,308.852814 
	C77.309616,279.031677 59.674896,249.163116 42.081188,219.270599 
	C32.666874,203.275269 22.694044,187.552917 14.301985,171.032425 
	C9.218033,161.024231 6.683149,149.722504 2.974549,139.011795 
	C2.671402,138.136276 2.148441,137.336884 1.363810,136.751068 
	C1.000000,123.312439 1.000000,109.624878 0.999999,95.468658 
	C1.666446,94.314804 2.769563,93.720856 2.934634,92.930893 
	C6.009171,78.217529 12.189754,64.916634 20.820122,52.670578 
	C29.080494,40.949520 39.518482,31.511324 51.691990,24.152567 
	C68.356834,14.078854 86.492058,8.741423 106.567215,9.546355 
	C107.035774,31.255610 107.049545,52.443874 106.632812,73.755699 
	C78.484261,75.171799 59.834030,100.373482 67.065514,126.764038 
	C71.868843,144.293304 86.085907,155.150650 107.038445,157.757050 
	C107.039925,210.757889 107.064369,263.309967 107.088806,315.862061 
z"/>
<path fill="#FF9696" opacity="1.000000" stroke="none" 
	d="
M513.000000,271.536804 
	C510.312164,273.669037 507.761078,275.631439 504.913910,276.958496 
	C488.962097,284.393524 472.919891,291.634308 456.944092,299.018280 
	C429.347473,311.773376 401.780243,324.592041 374.192902,337.367218 
	C368.056030,340.209076 361.886993,342.981323 355.285370,345.452606 
	C354.797424,301.201691 354.692200,257.283600 354.791443,213.365997 
	C354.805115,207.313110 353.811096,201.839920 350.047516,197.022827 
	C370.286530,204.463623 390.545959,211.849503 410.759705,219.358353 
	C439.587585,230.067078 468.420959,240.763763 497.155762,251.717941 
	C502.505707,253.757446 507.402222,256.986420 512.754028,259.333252 
	C513.000000,263.024536 513.000000,267.049103 513.000000,271.536804 
z"/>
<path fill="#BE2342" opacity="1.000000" stroke="none" 
	d="
M107.439934,315.933472 
	C107.064369,263.309967 107.039925,210.757889 106.958961,157.663116 
	C106.902443,157.120438 106.980362,156.887024 107.419678,156.981995 
	C111.142929,156.703125 114.509567,156.671036 117.697289,155.899612 
	C137.478210,151.112701 151.490631,130.713181 148.850586,110.786835 
	C145.976898,89.096947 127.787735,73.149910 106.950943,73.962875 
	C106.912773,73.840256 107.063316,73.632141 107.063316,73.632141 
	C107.049545,52.443874 107.035774,31.255610 107.028030,9.608871 
	C132.764511,7.976538 155.421143,15.957451 175.496063,31.898796 
	C194.988373,47.377495 207.089981,67.632126 211.649704,91.717216 
	C217.332764,121.735855 212.802765,150.453842 196.677841,176.973557 
	C182.043488,201.041840 167.690506,225.281448 153.255081,249.470352 
	C146.542984,260.717560 139.929550,272.023651 132.923218,283.733826 
	C132.271088,284.344055 132.076538,284.605011 131.712799,285.143494 
	C127.256706,292.271606 123.266022,299.326660 118.820480,306.082397 
	C116.692482,309.316223 113.702675,311.983002 111.103195,314.906586 
	C109.999146,315.272675 108.895103,315.638794 107.439934,315.933472 
z"/>
<path fill="#2D2D2D" opacity="1.000000" stroke="none" 
	d="
M111.557961,314.947754 
	C113.702675,311.983002 116.692482,309.316223 118.820480,306.082397 
	C123.266022,299.326660 127.256706,292.271606 132.180725,285.159302 
	C159.960587,284.984619 186.993927,284.990173 214.027283,284.995697 
	C237.803391,283.574707 264.104584,305.686279 267.268921,332.185822 
	C269.607208,351.767395 264.567200,368.330627 250.542206,381.952271 
	C240.412369,391.790741 228.211349,397.094757 213.794189,397.043549 
	C178.487091,396.918213 143.179306,396.981110 107.436234,396.475281 
	C107.038002,386.352997 107.075348,376.723694 107.569885,367.067810 
	C142.210495,367.026947 176.393951,367.027863 210.577271,366.961090 
	C212.673141,366.957001 214.767944,366.417542 216.863251,366.127167 
	C226.382263,362.657623 233.632660,357.139374 236.236053,346.597595 
	C239.347015,334.000488 231.499207,319.441376 216.693359,316.219421 
	C211.418015,315.071411 205.829910,315.070557 200.382721,315.050598 
	C170.926376,314.942719 141.469452,314.993073 111.557961,314.947754 
z"/>
<path fill="#485A61" opacity="1.000000" stroke="none" 
	d="
M349.857300,196.717987 
	C353.811096,201.839920 354.805115,207.313110 354.791443,213.365997 
	C354.692200,257.283600 354.797424,301.201691 354.943756,345.581543 
	C355.037872,374.021515 355.026215,401.999512 354.634338,430.521698 
	C344.175934,427.812653 334.157898,427.998901 324.199310,431.590729 
	C324.134613,430.095703 324.013519,428.600708 324.013336,427.105682 
	C324.003784,354.683105 323.994080,282.260529 324.014587,209.837967 
	C324.018036,197.598404 334.506042,189.855515 345.384460,194.022125 
	C346.895569,194.600906 348.243561,195.605621 349.857300,196.717987 
z"/>
<path fill="#475A61" opacity="1.000000" stroke="none" 
	d="
M107.112686,367.094391 
	C107.075348,376.723694 107.038002,386.352997 106.964096,396.442139 
	C98.104767,396.934967 89.271591,396.712219 80.462036,397.070312 
	C70.968513,397.456177 61.688385,398.763885 54.841415,406.619904 
	C47.974152,414.499207 45.089916,423.402344 48.077423,433.578308 
	C51.334858,444.673767 58.816391,452.310120 70.229248,453.736206 
	C82.023354,455.209930 94.067673,454.681122 106.503586,455.520447 
	C107.054077,465.646454 107.103531,475.280365 107.094887,485.150696 
	C107.036789,485.387115 106.946381,485.863495 106.946381,485.863495 
	C93.005547,485.573700 79.003326,485.981293 65.144348,484.761444 
	C55.050079,483.873016 45.859909,479.126678 38.059940,472.481659 
	C23.143435,459.773834 15.282257,443.681152 16.027443,423.862427 
	C16.796894,403.398346 26.259007,387.612274 42.888592,376.116241 
	C51.163094,370.396088 60.492779,367.228394 70.692444,366.989746 
	C82.471031,366.714172 94.247963,366.368347 106.523140,366.340759 
	C107.020660,366.628510 107.112686,367.094391 107.112686,367.094391 
z"/>
<path fill="#2D2D2D" opacity="1.000000" stroke="none" 
	d="
M107.152985,484.914276 
	C107.103531,475.280365 107.054077,465.646454 106.966797,455.552368 
	C158.311905,455.056763 209.694855,455.020691 261.077789,454.986267 
	C274.713623,454.977112 288.349487,454.972778 302.571777,455.372589 
	C300.687256,465.857758 301.947144,475.561493 305.618500,484.981140 
	C239.146805,484.962860 173.149887,484.938568 107.152985,484.914276 
z"/>
<path fill="#0080FF" opacity="1.000000" stroke="none" 
	d="
M306.093292,484.975098 
	C301.947144,475.561493 300.687256,465.857758 303.034729,455.361145 
	C306.762268,444.519531 312.794678,436.057068 323.911499,431.749084 
	C334.157898,427.998901 344.175934,427.812653 354.654907,430.983765 
	C366.444794,436.614807 374.779968,445.130463 377.291595,457.867981 
	C381.495697,479.188599 371.459412,497.950500 349.625885,503.894958 
	C332.999115,508.421783 315.314758,501.281769 306.821045,486.128418 
	C306.565674,485.293335 306.372131,485.093018 306.093292,484.975098 
z"/>
<path fill="#394145" opacity="1.000000" stroke="none" 
	d="
M213.721741,284.706055 
	C186.993927,284.990173 159.960587,284.984619 132.459290,284.963257 
	C132.076538,284.605011 132.271088,284.344055 132.802521,284.060364 
	C157.844070,283.970703 182.658127,283.975800 207.472137,284.017609 
	C209.453705,284.020935 211.434860,284.277557 213.721741,284.706055 
z"/>
<path fill="#363F42" opacity="1.000000" stroke="none" 
	d="
M305.618500,484.981140 
	C306.372131,485.093018 306.565674,485.293335 306.693298,485.787048 
	C240.437744,485.984833 174.162720,485.971649 107.417038,485.910980 
	C106.946381,485.863495 107.036789,485.387115 107.094887,485.150696 
	C173.149887,484.938568 239.146805,484.962860 305.618500,484.981140 
z"/>
<path fill="#3E4646" opacity="1.000000" stroke="none" 
	d="
M107.569878,367.067810 
	C107.112686,367.094391 107.020660,366.628510 106.986015,366.393738 
	C143.285583,366.129059 179.619781,366.099121 216.408630,366.098175 
	C214.767944,366.417542 212.673141,366.957001 210.577271,366.961090 
	C176.393951,367.027863 142.210495,367.026947 107.569878,367.067810 
z"/>
<path fill="#FFFEFE" opacity="1.000000" stroke="none" 
	d="
M106.981926,157.214355 
	C86.085907,155.150650 71.868843,144.293304 67.065514,126.764038 
	C59.834030,100.373482 78.484261,75.171799 106.632812,73.755699 
	C107.063316,73.632141 106.912773,73.840256 106.952347,74.426117 
	C106.988075,102.303658 106.984215,129.595337 106.980362,156.887024 
	C106.980362,156.887024 106.902443,157.120438 106.981926,157.214355 
z"/>
<path fill="#FFF4F4" opacity="1.000000" stroke="none" 
	d="
M107.419678,156.981995 
	C106.984215,129.595337 106.988075,102.303658 106.990524,74.548737 
	C127.787735,73.149910 145.976898,89.096947 148.850586,110.786835 
	C151.490631,130.713181 137.478210,151.112701 117.697289,155.899612 
	C114.509567,156.671036 111.142929,156.703125 107.419678,156.981995 
z"/>
</svg>